<svg width="600" height="400" viewBox="0 0 600 400" fill="none" xmlns="http://www.w3.org/2000/svg">
<rect width="600" height="400" fill="#DBD1D1"/>
<g clip-path="url(#clip0_2:5)" filter="url(#filter0_d_2:5)">
<g filter="url(#filter1_d_2:5)">
<rect x="150" y="103" width="300" height="194" rx="10" fill="#C4C4C4"/>
</g>
<path d="M172.222 148.272C169.116 148.272 166.918 147.966 165.626 147.354C164.334 146.742 163.506 145.677 163.144 144.158C162.804 142.617 162.634 139.999 162.634 136.304C162.634 132.609 162.804 130.003 163.144 128.484C163.506 126.943 164.334 125.866 165.626 125.254C166.918 124.642 169.116 124.336 172.222 124.336C175.304 124.336 177.492 124.642 178.784 125.254C180.098 125.866 180.926 126.943 181.266 128.484C181.628 130.003 181.81 132.609 181.81 136.304C181.81 139.999 181.628 142.617 181.266 144.158C180.926 145.677 180.098 146.742 178.784 147.354C177.492 147.966 175.304 148.272 172.222 148.272ZM172.222 145.552C174.534 145.552 176.098 145.405 176.914 145.11C177.73 144.815 178.262 144.079 178.512 142.9C178.761 141.721 178.886 139.523 178.886 136.304C178.886 133.085 178.761 130.887 178.512 129.708C178.262 128.529 177.73 127.793 176.914 127.498C176.098 127.203 174.534 127.056 172.222 127.056C169.91 127.056 168.334 127.203 167.496 127.498C166.68 127.793 166.147 128.529 165.898 129.708C165.648 130.887 165.524 133.085 165.524 136.304C165.524 139.523 165.648 141.721 165.898 142.9C166.147 144.079 166.68 144.815 167.496 145.11C168.334 145.405 169.91 145.552 172.222 145.552ZM199.108 138.242C199.108 136.633 199.006 135.488 198.802 134.808C198.598 134.105 198.213 133.641 197.646 133.414C197.079 133.187 196.127 133.074 194.79 133.074C193.362 133.074 192.308 133.301 191.628 133.754C190.971 134.207 190.551 134.831 190.37 135.624C190.211 136.417 190.132 137.562 190.132 139.058V148H187.378V130.66H189.826L189.962 133.108H190.166C190.551 132.224 191.186 131.555 192.07 131.102C192.954 130.626 194.235 130.388 195.912 130.388C197.589 130.388 198.847 130.626 199.686 131.102C200.547 131.578 201.125 132.292 201.42 133.244C201.715 134.173 201.862 135.477 201.862 137.154V148H199.108V138.242ZM221.603 140.316H209.737C209.737 141.971 209.851 143.149 210.077 143.852C210.304 144.555 210.791 145.053 211.539 145.348C212.31 145.62 213.591 145.756 215.381 145.756C217.127 145.756 218.974 145.631 220.923 145.382V147.796C220.198 147.932 219.257 148.045 218.101 148.136C216.945 148.227 215.846 148.272 214.803 148.272C212.469 148.272 210.746 148 209.635 147.456C208.547 146.912 207.833 146.039 207.493 144.838C207.153 143.637 206.983 141.812 206.983 139.364C206.983 136.961 207.131 135.159 207.425 133.958C207.743 132.757 208.434 131.861 209.499 131.272C210.587 130.683 212.299 130.388 214.633 130.388C216.809 130.388 218.385 130.683 219.359 131.272C220.334 131.839 220.946 132.711 221.195 133.89C221.467 135.046 221.603 136.859 221.603 139.33V140.316ZM214.565 132.904C213.092 132.904 212.027 133.04 211.369 133.312C210.735 133.561 210.304 134.049 210.077 134.774C209.873 135.477 209.76 136.621 209.737 138.208H218.951V137.936C218.951 136.44 218.815 135.341 218.543 134.638C218.294 133.935 217.875 133.471 217.285 133.244C216.696 133.017 215.789 132.904 214.565 132.904ZM249.413 147.83C248.71 147.966 247.826 148.068 246.761 148.136C245.718 148.227 244.743 148.272 243.837 148.272C241.026 148.272 238.975 147.966 237.683 147.354C236.391 146.742 235.518 145.631 235.065 144.022C234.634 142.39 234.419 139.817 234.419 136.304C234.419 132.813 234.634 130.252 235.065 128.62C235.518 126.988 236.391 125.866 237.683 125.254C238.975 124.642 241.026 124.336 243.837 124.336C244.766 124.336 245.741 124.381 246.761 124.472C247.781 124.563 248.619 124.687 249.277 124.846V127.396C247.577 127.169 246.013 127.056 244.585 127.056C242.205 127.056 240.539 127.237 239.587 127.6C238.657 127.963 238.045 128.745 237.751 129.946C237.456 131.147 237.309 133.267 237.309 136.304C237.309 139.341 237.456 141.461 237.751 142.662C238.045 143.863 238.657 144.645 239.587 145.008C240.539 145.371 242.205 145.552 244.585 145.552C246.33 145.552 247.939 145.439 249.413 145.212V147.83ZM254.315 148V122.738H257.069V148H254.315ZM262.846 125.9V122.738H265.77V125.9H262.846ZM262.948 148V130.66H265.702V148H262.948ZM282.597 147.83C281.985 147.943 281.237 148.045 280.353 148.136C279.492 148.227 278.664 148.272 277.871 148.272C275.74 148.272 274.176 147.966 273.179 147.354C272.182 146.742 271.536 145.835 271.241 144.634C270.969 143.433 270.833 141.665 270.833 139.33C270.833 137.041 271.003 135.273 271.343 134.026C271.683 132.779 272.352 131.861 273.349 131.272C274.346 130.683 275.82 130.388 277.769 130.388C278.54 130.388 279.356 130.433 280.217 130.524C281.101 130.615 281.849 130.717 282.461 130.83V133.278C281.101 133.029 279.764 132.904 278.449 132.904C276.998 132.904 275.933 133.074 275.253 133.414C274.596 133.754 274.154 134.355 273.927 135.216C273.7 136.077 273.587 137.449 273.587 139.33C273.587 141.234 273.7 142.628 273.927 143.512C274.176 144.373 274.63 144.963 275.287 145.28C275.967 145.597 277.055 145.756 278.551 145.756C279.662 145.756 281.01 145.643 282.597 145.416V147.83ZM298.27 148L292.15 140.52H289.974V148H287.22V122.738H289.974V137.97H292.15L298.304 130.66H301.398L294.36 139.058L301.5 148H298.27ZM313.925 124.608H321.371C324.613 124.608 326.902 124.903 328.239 125.492C329.577 126.059 330.427 127.09 330.789 128.586C331.152 130.082 331.333 132.655 331.333 136.304C331.333 139.953 331.152 142.526 330.789 144.022C330.427 145.518 329.577 146.561 328.239 147.15C326.902 147.717 324.613 148 321.371 148H313.925V124.608ZM320.895 145.28C323.547 145.28 325.327 145.144 326.233 144.872C327.163 144.577 327.763 143.875 328.035 142.764C328.307 141.631 328.443 139.477 328.443 136.304C328.443 133.153 328.296 131.011 328.001 129.878C327.729 128.745 327.129 128.042 326.199 127.77C325.293 127.475 323.525 127.328 320.895 127.328H316.849V145.28H320.895ZM350.797 140.316H338.931C338.931 141.971 339.044 143.149 339.271 143.852C339.497 144.555 339.985 145.053 340.733 145.348C341.503 145.62 342.784 145.756 344.575 145.756C346.32 145.756 348.167 145.631 350.117 145.382V147.796C349.391 147.932 348.451 148.045 347.295 148.136C346.139 148.227 345.039 148.272 343.997 148.272C341.662 148.272 339.939 148 338.829 147.456C337.741 146.912 337.027 146.039 336.687 144.838C336.347 143.637 336.177 141.812 336.177 139.364C336.177 136.961 336.324 135.159 336.619 133.958C336.936 132.757 337.627 131.861 338.693 131.272C339.781 130.683 341.492 130.388 343.827 130.388C346.003 130.388 347.578 130.683 348.553 131.272C349.527 131.839 350.139 132.711 350.389 133.89C350.661 135.046 350.797 136.859 350.797 139.33V140.316ZM343.759 132.904C342.285 132.904 341.22 133.04 340.563 133.312C339.928 133.561 339.497 134.049 339.271 134.774C339.067 135.477 338.953 136.621 338.931 138.208H348.145V137.936C348.145 136.44 348.009 135.341 347.737 134.638C347.487 133.935 347.068 133.471 346.479 133.244C345.889 133.017 344.983 132.904 343.759 132.904ZM361.696 148.272C360.767 148.272 359.713 148.227 358.534 148.136C357.356 148.045 356.313 147.943 355.406 147.83V145.382C357.65 145.631 359.702 145.756 361.56 145.756C362.716 145.756 363.566 145.677 364.11 145.518C364.654 145.359 365.006 145.11 365.164 144.77C365.346 144.407 365.436 143.875 365.436 143.172C365.436 142.469 365.368 141.971 365.232 141.676C365.119 141.359 364.926 141.143 364.654 141.03C364.382 140.917 363.906 140.826 363.226 140.758L358.704 140.248C357.662 140.135 356.857 139.897 356.29 139.534C355.746 139.171 355.372 138.673 355.168 138.038C354.964 137.403 354.862 136.553 354.862 135.488C354.862 134.015 355.123 132.915 355.644 132.19C356.188 131.442 356.925 130.955 357.854 130.728C358.806 130.501 360.076 130.388 361.662 130.388C362.546 130.388 363.498 130.433 364.518 130.524C365.538 130.615 366.4 130.728 367.102 130.864V133.312C365.334 133.04 363.51 132.904 361.628 132.904C360.586 132.904 359.792 132.961 359.248 133.074C358.704 133.165 358.285 133.391 357.99 133.754C357.696 134.094 357.548 134.638 357.548 135.386C357.548 136.043 357.605 136.519 357.718 136.814C357.832 137.109 358.024 137.313 358.296 137.426C358.568 137.539 359.022 137.63 359.656 137.698L364.348 138.242C365.346 138.355 366.094 138.548 366.592 138.82C367.114 139.069 367.488 139.523 367.714 140.18C367.964 140.837 368.088 141.812 368.088 143.104C368.088 144.532 367.85 145.62 367.374 146.368C366.921 147.116 366.241 147.626 365.334 147.898C364.45 148.147 363.238 148.272 361.696 148.272ZM383.967 148L377.847 140.52H375.671V148H372.917V122.738H375.671V137.97H377.847L384.001 130.66H387.095L380.057 139.058L387.197 148H383.967ZM392.607 148V133.176H389.105V130.66H392.607V125.628H395.361V130.66H399.509V133.176H395.361V148H392.607ZM410.099 148.272C407.674 148.272 405.94 148.034 404.897 147.558C403.855 147.059 403.186 146.232 402.891 145.076C402.619 143.897 402.483 141.982 402.483 139.33C402.483 136.678 402.619 134.774 402.891 133.618C403.186 132.439 403.855 131.612 404.897 131.136C405.94 130.637 407.674 130.388 410.099 130.388C412.502 130.388 414.225 130.637 415.267 131.136C416.31 131.612 416.967 132.439 417.239 133.618C417.534 134.774 417.681 136.678 417.681 139.33C417.681 141.982 417.534 143.897 417.239 145.076C416.967 146.232 416.31 147.059 415.267 147.558C414.225 148.034 412.502 148.272 410.099 148.272ZM410.099 145.756C411.754 145.756 412.899 145.609 413.533 145.314C414.168 145.019 414.553 144.487 414.689 143.716C414.848 142.923 414.927 141.461 414.927 139.33C414.927 137.199 414.848 135.749 414.689 134.978C414.553 134.185 414.168 133.641 413.533 133.346C412.899 133.051 411.754 132.904 410.099 132.904C408.445 132.904 407.289 133.051 406.631 133.346C405.997 133.641 405.6 134.185 405.441 134.978C405.305 135.749 405.237 137.199 405.237 139.33C405.237 141.461 405.305 142.923 405.441 143.716C405.6 144.487 405.997 145.019 406.631 145.314C407.289 145.609 408.445 145.756 410.099 145.756ZM422.854 130.66H425.302L425.438 133.108H425.642C426.096 132.065 426.81 131.351 427.784 130.966C428.782 130.581 429.972 130.388 431.354 130.388C433.077 130.388 434.392 130.649 435.298 131.17C436.205 131.691 436.84 132.587 437.202 133.856C437.588 135.103 437.78 136.916 437.78 139.296C437.78 141.699 437.588 143.535 437.202 144.804C436.84 146.073 436.205 146.969 435.298 147.49C434.414 148.011 433.122 148.272 431.422 148.272C429.949 148.272 428.748 148.091 427.818 147.728C426.912 147.365 426.232 146.731 425.778 145.824H425.608V154.8H422.854V130.66ZM430.266 145.586C431.74 145.586 432.782 145.45 433.394 145.178C434.029 144.906 434.448 144.351 434.652 143.512C434.879 142.673 434.992 141.279 434.992 139.33C434.992 137.381 434.879 135.987 434.652 135.148C434.448 134.309 434.029 133.754 433.394 133.482C432.782 133.187 431.74 133.04 430.266 133.04C429.11 133.04 428.192 133.199 427.512 133.516C426.832 133.833 426.356 134.321 426.084 134.978C425.88 135.477 425.744 136.055 425.676 136.712C425.631 137.369 425.608 138.242 425.608 139.33C425.608 140.441 425.631 141.313 425.676 141.948C425.722 142.583 425.835 143.115 426.016 143.546C426.311 144.271 426.798 144.793 427.478 145.11C428.158 145.427 429.088 145.586 430.266 145.586Z" fill="black"/>
<g clip-path="url(#clip1_2:5)" filter="url(#filter2_d_2:5)">
<rect x="204" y="194" width="180" height="25" fill="#F4F3F3" stroke="black" stroke-width="2"/>
<path d="M210.4 211V201.368H211.604V209.838H216.098V211H210.4ZM220.579 211.112C219.581 211.112 218.867 211.014 218.437 210.818C218.008 210.613 217.733 210.272 217.611 209.796C217.499 209.311 217.443 208.522 217.443 207.43C217.443 206.338 217.499 205.554 217.611 205.078C217.733 204.593 218.008 204.252 218.437 204.056C218.867 203.851 219.581 203.748 220.579 203.748C221.569 203.748 222.278 203.851 222.707 204.056C223.137 204.252 223.407 204.593 223.519 205.078C223.641 205.554 223.701 206.338 223.701 207.43C223.701 208.522 223.641 209.311 223.519 209.796C223.407 210.272 223.137 210.613 222.707 210.818C222.278 211.014 221.569 211.112 220.579 211.112ZM220.579 210.076C221.261 210.076 221.732 210.015 221.993 209.894C222.255 209.773 222.413 209.553 222.469 209.236C222.535 208.909 222.567 208.307 222.567 207.43C222.567 206.553 222.535 205.955 222.469 205.638C222.413 205.311 222.255 205.087 221.993 204.966C221.732 204.845 221.261 204.784 220.579 204.784C219.898 204.784 219.422 204.845 219.151 204.966C218.89 205.087 218.727 205.311 218.661 205.638C218.605 205.955 218.577 206.553 218.577 207.43C218.577 208.307 218.605 208.909 218.661 209.236C218.727 209.553 218.89 209.773 219.151 209.894C219.422 210.015 219.898 210.076 220.579 210.076ZM228.435 213.884C227.446 213.884 226.606 213.842 225.915 213.758V212.764C226.811 212.82 227.572 212.848 228.197 212.848C228.916 212.848 229.434 212.783 229.751 212.652C230.078 212.521 230.288 212.288 230.381 211.952C230.484 211.625 230.535 211.098 230.535 210.37V210.062H230.465C230.288 210.426 230.008 210.687 229.625 210.846C229.252 210.995 228.767 211.07 228.169 211.07C227.451 211.07 226.905 210.967 226.531 210.762C226.158 210.547 225.897 210.183 225.747 209.67C225.598 209.157 225.523 208.41 225.523 207.43C225.523 206.441 225.598 205.689 225.747 205.176C225.906 204.653 226.172 204.285 226.545 204.07C226.919 203.855 227.46 203.748 228.169 203.748C228.739 203.748 229.224 203.827 229.625 203.986C230.036 204.145 230.335 204.439 230.521 204.868H230.605L230.647 203.86H231.669V210.09C231.669 211.098 231.595 211.859 231.445 212.372C231.305 212.885 231.007 213.263 230.549 213.506C230.092 213.758 229.387 213.884 228.435 213.884ZM228.603 209.978C229.07 209.978 229.439 209.922 229.709 209.81C229.989 209.689 230.185 209.507 230.297 209.264C230.391 209.059 230.451 208.816 230.479 208.536C230.517 208.256 230.535 207.883 230.535 207.416C230.535 206.94 230.521 206.571 230.493 206.31C230.475 206.039 230.419 205.811 230.325 205.624C230.204 205.344 230.003 205.143 229.723 205.022C229.443 204.901 229.07 204.84 228.603 204.84C228.006 204.84 227.577 204.901 227.315 205.022C227.054 205.134 226.877 205.363 226.783 205.708C226.699 206.044 226.657 206.613 226.657 207.416C226.657 208.209 226.699 208.779 226.783 209.124C226.877 209.46 227.054 209.689 227.315 209.81C227.577 209.922 228.006 209.978 228.603 209.978ZM234.061 201.9V200.598H235.265V201.9H234.061ZM234.103 211V203.86H235.237V211H234.103ZM242.487 206.982C242.487 206.319 242.445 205.848 242.361 205.568C242.277 205.279 242.119 205.087 241.885 204.994C241.652 204.901 241.26 204.854 240.709 204.854C240.121 204.854 239.687 204.947 239.407 205.134C239.137 205.321 238.964 205.577 238.889 205.904C238.824 206.231 238.791 206.702 238.791 207.318V211H237.657V203.86H238.665L238.721 204.868H238.805C238.964 204.504 239.225 204.229 239.589 204.042C239.953 203.846 240.481 203.748 241.171 203.748C241.862 203.748 242.38 203.846 242.725 204.042C243.08 204.238 243.318 204.532 243.439 204.924C243.561 205.307 243.621 205.843 243.621 206.534V211H242.487V206.982Z" fill="#A4A4A4"/>
</g>
<g clip-path="url(#clip2_2:5)" filter="url(#filter3_d_2:5)">
<rect x="205" y="229" width="180" height="25" fill="#F4F3F3" stroke="black" stroke-width="2"/>
<path d="M211.4 236.368H215.628C216.403 236.368 216.991 236.494 217.392 236.746C217.793 236.998 218.059 237.339 218.19 237.768C218.321 238.197 218.386 238.753 218.386 239.434C218.386 240.087 218.321 240.633 218.19 241.072C218.059 241.501 217.789 241.847 217.378 242.108C216.977 242.369 216.384 242.5 215.6 242.5H212.604V246H211.4V236.368ZM215.194 241.38C215.801 241.38 216.244 241.319 216.524 241.198C216.804 241.067 216.986 240.871 217.07 240.61C217.154 240.349 217.196 239.957 217.196 239.434C217.196 238.911 217.154 238.519 217.07 238.258C216.995 237.997 216.818 237.805 216.538 237.684C216.267 237.553 215.829 237.488 215.222 237.488H212.604V241.38H215.194ZM222.255 246.112C221.433 246.112 220.836 245.963 220.463 245.664C220.089 245.356 219.903 244.815 219.903 244.04C219.903 243.489 219.968 243.06 220.099 242.752C220.229 242.444 220.449 242.22 220.757 242.08C221.074 241.94 221.517 241.87 222.087 241.87C222.357 241.87 223.249 241.893 224.761 241.94V241.52C224.761 240.96 224.705 240.563 224.593 240.33C224.49 240.097 224.294 239.947 224.005 239.882C223.725 239.817 223.244 239.784 222.563 239.784C222.264 239.784 221.886 239.803 221.429 239.84C220.981 239.868 220.631 239.901 220.379 239.938V238.944C221.116 238.813 221.979 238.748 222.969 238.748C223.809 238.748 224.434 238.837 224.845 239.014C225.265 239.182 225.545 239.462 225.685 239.854C225.825 240.237 225.895 240.797 225.895 241.534V246H224.873L224.817 245.006H224.733C224.537 245.454 224.219 245.753 223.781 245.902C223.351 246.042 222.843 246.112 222.255 246.112ZM222.689 245.09C223.155 245.09 223.533 245.048 223.823 244.964C224.121 244.88 224.336 244.717 224.467 244.474C224.663 244.138 224.761 243.671 224.761 243.074V242.752H222.381C221.989 242.752 221.699 242.78 221.513 242.836C221.335 242.892 221.209 243.004 221.135 243.172C221.06 243.331 221.023 243.583 221.023 243.928C221.023 244.264 221.065 244.511 221.149 244.67C221.233 244.829 221.387 244.941 221.611 245.006C221.844 245.062 222.203 245.09 222.689 245.09ZM230.701 246.112C230.319 246.112 229.885 246.093 229.399 246.056C228.914 246.019 228.485 245.977 228.111 245.93V244.922C229.035 245.025 229.88 245.076 230.645 245.076C231.121 245.076 231.471 245.043 231.695 244.978C231.919 244.913 232.064 244.81 232.129 244.67C232.204 244.521 232.241 244.301 232.241 244.012C232.241 243.723 232.213 243.517 232.157 243.396C232.111 243.265 232.031 243.177 231.919 243.13C231.807 243.083 231.611 243.046 231.331 243.018L229.469 242.808C229.04 242.761 228.709 242.663 228.475 242.514C228.251 242.365 228.097 242.159 228.013 241.898C227.929 241.637 227.887 241.287 227.887 240.848C227.887 240.241 227.995 239.789 228.209 239.49C228.433 239.182 228.737 238.981 229.119 238.888C229.511 238.795 230.034 238.748 230.687 238.748C231.051 238.748 231.443 238.767 231.863 238.804C232.283 238.841 232.638 238.888 232.927 238.944V239.952C232.199 239.84 231.448 239.784 230.673 239.784C230.244 239.784 229.917 239.807 229.693 239.854C229.469 239.891 229.297 239.985 229.175 240.134C229.054 240.274 228.993 240.498 228.993 240.806C228.993 241.077 229.017 241.273 229.063 241.394C229.11 241.515 229.189 241.599 229.301 241.646C229.413 241.693 229.6 241.73 229.861 241.758L231.793 241.982C232.204 242.029 232.512 242.108 232.717 242.22C232.932 242.323 233.086 242.509 233.179 242.78C233.282 243.051 233.333 243.452 233.333 243.984C233.333 244.572 233.235 245.02 233.039 245.328C232.853 245.636 232.573 245.846 232.199 245.958C231.835 246.061 231.336 246.112 230.701 246.112ZM237.688 246.112C237.305 246.112 236.871 246.093 236.386 246.056C235.9 246.019 235.471 245.977 235.098 245.93V244.922C236.022 245.025 236.866 245.076 237.632 245.076C238.108 245.076 238.458 245.043 238.682 244.978C238.906 244.913 239.05 244.81 239.116 244.67C239.19 244.521 239.228 244.301 239.228 244.012C239.228 243.723 239.2 243.517 239.144 243.396C239.097 243.265 239.018 243.177 238.906 243.13C238.794 243.083 238.598 243.046 238.318 243.018L236.456 242.808C236.026 242.761 235.695 242.663 235.462 242.514C235.238 242.365 235.084 242.159 235 241.898C234.916 241.637 234.874 241.287 234.874 240.848C234.874 240.241 234.981 239.789 235.196 239.49C235.42 239.182 235.723 238.981 236.106 238.888C236.498 238.795 237.02 238.748 237.674 238.748C238.038 238.748 238.43 238.767 238.85 238.804C239.27 238.841 239.624 238.888 239.914 238.944V239.952C239.186 239.84 238.434 239.784 237.66 239.784C237.23 239.784 236.904 239.807 236.68 239.854C236.456 239.891 236.283 239.985 236.162 240.134C236.04 240.274 235.98 240.498 235.98 240.806C235.98 241.077 236.003 241.273 236.05 241.394C236.096 241.515 236.176 241.599 236.288 241.646C236.4 241.693 236.586 241.73 236.848 241.758L238.78 241.982C239.19 242.029 239.498 242.108 239.704 242.22C239.918 242.323 240.072 242.509 240.166 242.78C240.268 243.051 240.32 243.452 240.32 243.984C240.32 244.572 240.222 245.02 240.026 245.328C239.839 245.636 239.559 245.846 239.186 245.958C238.822 246.061 238.322 246.112 237.688 246.112ZM248.496 246L246.844 240.89H246.746L245.122 246H243.806L241.524 238.86H242.7L244.45 244.53H244.548L246.284 238.86H247.362L249.112 244.53H249.21L250.946 238.86H252.094L249.812 246H248.496ZM256.442 246.112C255.444 246.112 254.73 246.014 254.3 245.818C253.871 245.613 253.596 245.272 253.474 244.796C253.362 244.311 253.306 243.522 253.306 242.43C253.306 241.338 253.362 240.554 253.474 240.078C253.596 239.593 253.871 239.252 254.3 239.056C254.73 238.851 255.444 238.748 256.442 238.748C257.432 238.748 258.141 238.851 258.57 239.056C259 239.252 259.27 239.593 259.382 240.078C259.504 240.554 259.564 241.338 259.564 242.43C259.564 243.522 259.504 244.311 259.382 244.796C259.27 245.272 259 245.613 258.57 245.818C258.141 246.014 257.432 246.112 256.442 246.112ZM256.442 245.076C257.124 245.076 257.595 245.015 257.856 244.894C258.118 244.773 258.276 244.553 258.332 244.236C258.398 243.909 258.43 243.307 258.43 242.43C258.43 241.553 258.398 240.955 258.332 240.638C258.276 240.311 258.118 240.087 257.856 239.966C257.595 239.845 257.124 239.784 256.442 239.784C255.761 239.784 255.285 239.845 255.014 239.966C254.753 240.087 254.59 240.311 254.524 240.638C254.468 240.955 254.44 241.553 254.44 242.43C254.44 243.307 254.468 243.909 254.524 244.236C254.59 244.553 254.753 244.773 255.014 244.894C255.285 245.015 255.761 245.076 256.442 245.076ZM261.695 238.86H262.703L262.759 240.218H262.843C263.011 239.658 263.291 239.275 263.683 239.07C264.075 238.855 264.588 238.748 265.223 238.748V239.966C264.579 239.966 264.084 240.064 263.739 240.26C263.393 240.456 263.155 240.759 263.025 241.17C262.894 241.571 262.829 242.117 262.829 242.808V246H261.695V238.86ZM269.105 246.112C268.395 246.112 267.854 246.005 267.481 245.79C267.107 245.575 266.841 245.211 266.683 244.698C266.533 244.175 266.459 243.424 266.459 242.444C266.459 241.455 266.533 240.699 266.683 240.176C266.832 239.653 267.089 239.285 267.453 239.07C267.826 238.855 268.363 238.748 269.063 238.748C269.679 238.748 270.173 238.823 270.547 238.972C270.929 239.121 271.209 239.383 271.387 239.756H271.471V235.598H272.605V246H271.583L271.541 245.006H271.457C271.261 245.435 270.962 245.729 270.561 245.888C270.159 246.037 269.674 246.112 269.105 246.112ZM269.539 245.02C270.024 245.02 270.407 244.959 270.687 244.838C270.967 244.707 271.158 244.507 271.261 244.236C271.354 244.021 271.41 243.779 271.429 243.508C271.457 243.228 271.471 242.845 271.471 242.36C271.471 241.959 271.457 241.627 271.429 241.366C271.401 241.105 271.349 240.881 271.275 240.694C271.163 240.405 270.962 240.195 270.673 240.064C270.393 239.924 270.005 239.854 269.511 239.854C268.923 239.854 268.498 239.915 268.237 240.036C267.985 240.148 267.812 240.377 267.719 240.722C267.635 241.067 267.593 241.637 267.593 242.43C267.593 243.242 267.635 243.821 267.719 244.166C267.812 244.511 267.985 244.74 268.237 244.852C268.498 244.964 268.932 245.02 269.539 245.02Z" fill="#A4A4A4"/>
</g>
<g filter="url(#filter4_d_2:5)">
<rect x="243" y="264" width="80" height="20" rx="2" fill="#46AEDB"/>
</g>
<path d="M253.985 279.112C253.472 279.112 252.898 279.093 252.263 279.056C251.638 279.019 251.082 278.972 250.597 278.916V277.81C251.81 277.931 252.823 277.992 253.635 277.992C254.139 277.992 254.536 277.973 254.825 277.936C255.124 277.889 255.376 277.81 255.581 277.698C255.768 277.586 255.889 277.423 255.945 277.208C256.001 276.984 256.029 276.69 256.029 276.326C256.029 275.887 256.006 275.579 255.959 275.402C255.912 275.215 255.8 275.08 255.623 274.996C255.455 274.912 255.161 274.851 254.741 274.814L252.361 274.548C251.782 274.483 251.344 274.347 251.045 274.142C250.756 273.927 250.56 273.652 250.457 273.316C250.364 272.971 250.317 272.523 250.317 271.972C250.317 271.207 250.448 270.628 250.709 270.236C250.98 269.844 251.353 269.583 251.829 269.452C252.314 269.321 252.963 269.256 253.775 269.256C254.316 269.256 254.867 269.279 255.427 269.326C255.987 269.373 256.43 269.429 256.757 269.494V270.558C256.402 270.502 255.964 270.46 255.441 270.432C254.918 270.395 254.433 270.376 253.985 270.376C253.462 270.376 253.042 270.399 252.725 270.446C252.408 270.493 252.16 270.572 251.983 270.684C251.787 270.796 251.661 270.945 251.605 271.132C251.549 271.319 251.521 271.585 251.521 271.93C251.521 272.313 251.549 272.593 251.605 272.77C251.661 272.938 251.768 273.064 251.927 273.148C252.086 273.223 252.347 273.279 252.711 273.316L255.063 273.582C255.623 273.638 256.057 273.736 256.365 273.876C256.673 274.016 256.897 274.268 257.037 274.632C257.168 274.968 257.233 275.505 257.233 276.242C257.233 277.091 257.102 277.726 256.841 278.146C256.58 278.557 256.23 278.823 255.791 278.944C255.352 279.056 254.75 279.112 253.985 279.112ZM259.36 269.9V268.598H260.564V269.9H259.36ZM259.402 279V271.86H260.536V279H259.402ZM265.56 281.884C264.571 281.884 263.731 281.842 263.04 281.758V280.764C263.936 280.82 264.697 280.848 265.322 280.848C266.041 280.848 266.559 280.783 266.876 280.652C267.203 280.521 267.413 280.288 267.506 279.952C267.609 279.625 267.66 279.098 267.66 278.37V278.062H267.59C267.413 278.426 267.133 278.687 266.75 278.846C266.377 278.995 265.892 279.07 265.294 279.07C264.576 279.07 264.03 278.967 263.656 278.762C263.283 278.547 263.022 278.183 262.872 277.67C262.723 277.157 262.648 276.41 262.648 275.43C262.648 274.441 262.723 273.689 262.872 273.176C263.031 272.653 263.297 272.285 263.67 272.07C264.044 271.855 264.585 271.748 265.294 271.748C265.864 271.748 266.349 271.827 266.75 271.986C267.161 272.145 267.46 272.439 267.646 272.868H267.73L267.772 271.86H268.794V278.09C268.794 279.098 268.72 279.859 268.57 280.372C268.43 280.885 268.132 281.263 267.674 281.506C267.217 281.758 266.512 281.884 265.56 281.884ZM265.728 277.978C266.195 277.978 266.564 277.922 266.834 277.81C267.114 277.689 267.31 277.507 267.422 277.264C267.516 277.059 267.576 276.816 267.604 276.536C267.642 276.256 267.66 275.883 267.66 275.416C267.66 274.94 267.646 274.571 267.618 274.31C267.6 274.039 267.544 273.811 267.45 273.624C267.329 273.344 267.128 273.143 266.848 273.022C266.568 272.901 266.195 272.84 265.728 272.84C265.131 272.84 264.702 272.901 264.44 273.022C264.179 273.134 264.002 273.363 263.908 273.708C263.824 274.044 263.782 274.613 263.782 275.416C263.782 276.209 263.824 276.779 263.908 277.124C264.002 277.46 264.179 277.689 264.44 277.81C264.702 277.922 265.131 277.978 265.728 277.978ZM276.058 274.982C276.058 274.319 276.016 273.848 275.932 273.568C275.848 273.279 275.689 273.087 275.456 272.994C275.222 272.901 274.83 272.854 274.28 272.854C273.692 272.854 273.258 272.947 272.978 273.134C272.707 273.321 272.534 273.577 272.46 273.904C272.394 274.231 272.362 274.702 272.362 275.318V279H271.228V271.86H272.236L272.292 272.868H272.376C272.534 272.504 272.796 272.229 273.16 272.042C273.524 271.846 274.051 271.748 274.742 271.748C275.432 271.748 275.95 271.846 276.296 272.042C276.65 272.238 276.888 272.532 277.01 272.924C277.131 273.307 277.192 273.843 277.192 274.534V279H276.058V274.982ZM282.862 269.9V268.598H284.066V269.9H282.862ZM282.904 279V271.86H284.038V279H282.904ZM291.288 274.982C291.288 274.319 291.246 273.848 291.162 273.568C291.078 273.279 290.92 273.087 290.686 272.994C290.453 272.901 290.061 272.854 289.51 272.854C288.922 272.854 288.488 272.947 288.208 273.134C287.938 273.321 287.765 273.577 287.69 273.904C287.625 274.231 287.592 274.702 287.592 275.318V279H286.458V271.86H287.466L287.522 272.868H287.606C287.765 272.504 288.026 272.229 288.39 272.042C288.754 271.846 289.282 271.748 289.972 271.748C290.663 271.748 291.181 271.846 291.526 272.042C291.881 272.238 292.119 272.532 292.24 272.924C292.362 273.307 292.422 273.843 292.422 274.534V279H291.288V274.982Z" fill="white"/>
<path d="M316.25 281.5H312.969C312.711 281.5 312.5 281.289 312.5 281.031V279.469C312.5 279.211 312.711 279 312.969 279H316.25C316.941 279 317.5 278.441 317.5 277.75V270.25C317.5 269.559 316.941 269 316.25 269H312.969C312.711 269 312.5 268.789 312.5 268.531V266.969C312.5 266.711 312.711 266.5 312.969 266.5H316.25C318.32 266.5 320 268.18 320 270.25V277.75C320 279.82 318.32 281.5 316.25 281.5ZM314.414 273.648L307.852 267.086C307.266 266.5 306.25 266.91 306.25 267.75V271.5H300.938C300.418 271.5 300 271.918 300 272.438V276.188C300 276.707 300.418 277.125 300.938 277.125H306.25V280.875C306.25 281.715 307.266 282.125 307.852 281.539L314.414 274.977C314.777 274.609 314.777 274.016 314.414 273.648Z" fill="white"/>
<path d="M235.676 183L233.901 178.425H226.151L224.376 183H222.201L228.701 165.8H231.401L237.901 183H235.676ZM230.076 168.125H229.951L226.801 176.4H233.226L230.076 168.125ZM244.941 183.2C243.675 183.2 242.708 183.008 242.041 182.625C241.375 182.242 240.9 181.592 240.616 180.675C240.35 179.742 240.216 178.4 240.216 176.65C240.216 174.883 240.35 173.533 240.616 172.6C240.883 171.667 241.341 171.008 241.991 170.625C242.658 170.242 243.616 170.05 244.866 170.05C245.966 170.05 246.85 170.183 247.516 170.45C248.2 170.717 248.7 171.183 249.016 171.85H249.166V164.425H251.191V183H249.366L249.291 181.225H249.141C248.791 181.992 248.258 182.517 247.541 182.8C246.825 183.067 245.958 183.2 244.941 183.2ZM245.716 181.25C246.583 181.25 247.266 181.142 247.766 180.925C248.266 180.692 248.608 180.333 248.791 179.85C248.958 179.467 249.058 179.033 249.091 178.55C249.141 178.05 249.166 177.367 249.166 176.5C249.166 175.783 249.141 175.192 249.091 174.725C249.041 174.258 248.95 173.858 248.816 173.525C248.616 173.008 248.258 172.633 247.741 172.4C247.241 172.15 246.55 172.025 245.666 172.025C244.616 172.025 243.858 172.133 243.391 172.35C242.941 172.55 242.633 172.958 242.466 173.575C242.316 174.192 242.241 175.208 242.241 176.625C242.241 178.075 242.316 179.108 242.466 179.725C242.633 180.342 242.941 180.75 243.391 180.95C243.858 181.15 244.633 181.25 245.716 181.25ZM271.237 175.825C271.237 174.625 271.17 173.775 271.037 173.275C270.92 172.775 270.678 172.442 270.312 172.275C269.945 172.108 269.328 172.025 268.462 172.025C267.528 172.025 266.845 172.183 266.412 172.5C265.978 172.817 265.703 173.267 265.587 173.85C265.47 174.433 265.412 175.292 265.412 176.425V183H263.387V175.825C263.387 174.625 263.32 173.775 263.187 173.275C263.07 172.775 262.828 172.442 262.462 172.275C262.095 172.108 261.478 172.025 260.612 172.025C259.678 172.025 258.995 172.192 258.562 172.525C258.128 172.842 257.853 173.3 257.737 173.9C257.62 174.483 257.562 175.325 257.562 176.425V183H255.537V170.25H257.337L257.437 172.05H257.587C257.837 171.4 258.262 170.908 258.862 170.575C259.478 170.225 260.345 170.05 261.462 170.05C262.562 170.05 263.395 170.208 263.962 170.525C264.528 170.842 264.92 171.35 265.137 172.05H265.312C265.845 170.717 267.17 170.05 269.287 170.05C270.403 170.05 271.245 170.225 271.812 170.575C272.378 170.925 272.762 171.45 272.962 172.15C273.162 172.833 273.262 173.792 273.262 175.025V183H271.237V175.825ZM277.532 166.75V164.425H279.682V166.75H277.532ZM277.607 183V170.25H279.632V183H277.607ZM292.58 175.825C292.58 174.642 292.505 173.8 292.355 173.3C292.205 172.783 291.921 172.442 291.505 172.275C291.088 172.108 290.388 172.025 289.405 172.025C288.355 172.025 287.58 172.192 287.08 172.525C286.596 172.858 286.288 173.317 286.155 173.9C286.038 174.483 285.98 175.325 285.98 176.425V183H283.955V170.25H285.755L285.855 172.05H286.005C286.288 171.4 286.755 170.908 287.405 170.575C288.055 170.225 288.996 170.05 290.23 170.05C291.463 170.05 292.388 170.225 293.005 170.575C293.638 170.925 294.063 171.45 294.28 172.15C294.496 172.833 294.605 173.792 294.605 175.025V183H292.58V175.825ZM305.129 165.8H312.679C314.063 165.8 315.113 166.025 315.829 166.475C316.546 166.925 317.021 167.533 317.254 168.3C317.488 169.067 317.604 170.058 317.604 171.275C317.604 172.442 317.488 173.417 317.254 174.2C317.021 174.967 316.538 175.583 315.804 176.05C315.088 176.517 314.029 176.75 312.629 176.75H307.279V183H305.129V165.8ZM311.904 174.75C312.988 174.75 313.779 174.642 314.279 174.425C314.779 174.192 315.104 173.842 315.254 173.375C315.404 172.908 315.479 172.208 315.479 171.275C315.479 170.342 315.404 169.642 315.254 169.175C315.121 168.708 314.804 168.367 314.304 168.15C313.821 167.917 313.038 167.8 311.954 167.8H307.279V174.75H311.904ZM324.513 183.2C323.046 183.2 321.98 182.933 321.313 182.4C320.646 181.85 320.313 180.883 320.313 179.5C320.313 178.517 320.43 177.75 320.663 177.2C320.896 176.65 321.288 176.25 321.838 176C322.405 175.75 323.196 175.625 324.213 175.625C324.696 175.625 326.288 175.667 328.988 175.75V175C328.988 174 328.888 173.292 328.688 172.875C328.505 172.458 328.155 172.192 327.638 172.075C327.138 171.958 326.28 171.9 325.063 171.9C324.53 171.9 323.855 171.933 323.038 172C322.238 172.05 321.613 172.108 321.163 172.175V170.4C322.48 170.167 324.021 170.05 325.788 170.05C327.288 170.05 328.405 170.208 329.138 170.525C329.888 170.825 330.388 171.325 330.638 172.025C330.888 172.708 331.013 173.708 331.013 175.025V183H329.188L329.088 181.225H328.938C328.588 182.025 328.021 182.558 327.238 182.825C326.471 183.075 325.563 183.2 324.513 183.2ZM325.288 181.375C326.121 181.375 326.796 181.3 327.313 181.15C327.846 181 328.23 180.708 328.463 180.275C328.813 179.675 328.988 178.842 328.988 177.775V177.2H324.738C324.038 177.2 323.521 177.25 323.188 177.35C322.871 177.45 322.646 177.65 322.513 177.95C322.38 178.233 322.313 178.683 322.313 179.3C322.313 179.9 322.388 180.342 322.538 180.625C322.688 180.908 322.963 181.108 323.363 181.225C323.78 181.325 324.421 181.375 325.288 181.375ZM343.996 175.825C343.996 174.642 343.921 173.8 343.771 173.3C343.621 172.783 343.337 172.442 342.921 172.275C342.504 172.108 341.804 172.025 340.821 172.025C339.771 172.025 338.996 172.192 338.496 172.525C338.012 172.858 337.704 173.317 337.571 173.9C337.454 174.483 337.396 175.325 337.396 176.425V183H335.371V170.25H337.171L337.271 172.05H337.421C337.704 171.4 338.171 170.908 338.821 170.575C339.471 170.225 340.412 170.05 341.646 170.05C342.879 170.05 343.804 170.225 344.421 170.575C345.054 170.925 345.479 171.45 345.696 172.15C345.912 172.833 346.021 173.792 346.021 175.025V183H343.996V175.825ZM360.537 177.35H351.812C351.812 178.567 351.895 179.433 352.062 179.95C352.228 180.467 352.587 180.833 353.137 181.05C353.703 181.25 354.645 181.35 355.962 181.35C357.245 181.35 358.603 181.258 360.037 181.075V182.85C359.503 182.95 358.812 183.033 357.962 183.1C357.112 183.167 356.303 183.2 355.537 183.2C353.82 183.2 352.553 183 351.737 182.6C350.937 182.2 350.412 181.558 350.162 180.675C349.912 179.792 349.787 178.45 349.787 176.65C349.787 174.883 349.895 173.558 350.112 172.675C350.345 171.792 350.853 171.133 351.637 170.7C352.437 170.267 353.695 170.05 355.412 170.05C357.012 170.05 358.17 170.267 358.887 170.7C359.603 171.117 360.053 171.758 360.237 172.625C360.437 173.475 360.537 174.808 360.537 176.625V177.35ZM355.362 171.9C354.278 171.9 353.495 172 353.012 172.2C352.545 172.383 352.228 172.742 352.062 173.275C351.912 173.792 351.828 174.633 351.812 175.8H358.587V175.6C358.587 174.5 358.487 173.692 358.287 173.175C358.103 172.658 357.795 172.317 357.362 172.15C356.928 171.983 356.262 171.9 355.362 171.9ZM364.326 183V164.425H366.351V183H364.326Z" fill="black"/>
</g>
<defs>
<filter id="filter0_d_2:5" x="146" y="103" width="308" height="202" filterUnits="userSpaceOnUse" color-interpolation-filters="sRGB">
<feFlood flood-opacity="0" result="BackgroundImageFix"/>
<feColorMatrix in="SourceAlpha" type="matrix" values="0 0 0 0 0 0 0 0 0 0 0 0 0 0 0 0 0 0 127 0" result="hardAlpha"/>
<feOffset dy="4"/>
<feGaussianBlur stdDeviation="2"/>
<feComposite in2="hardAlpha" operator="out"/>
<feColorMatrix type="matrix" values="0 0 0 0 0 0 0 0 0 0 0 0 0 0 0 0 0 0 0.25 0"/>
<feBlend mode="normal" in2="BackgroundImageFix" result="effect1_dropShadow_2:5"/>
<feBlend mode="normal" in="SourceGraphic" in2="effect1_dropShadow_2:5" result="shape"/>
</filter>
<filter id="filter1_d_2:5" x="146" y="103" width="308" height="202" filterUnits="userSpaceOnUse" color-interpolation-filters="sRGB">
<feFlood flood-opacity="0" result="BackgroundImageFix"/>
<feColorMatrix in="SourceAlpha" type="matrix" values="0 0 0 0 0 0 0 0 0 0 0 0 0 0 0 0 0 0 127 0" result="hardAlpha"/>
<feOffset dy="4"/>
<feGaussianBlur stdDeviation="2"/>
<feComposite in2="hardAlpha" operator="out"/>
<feColorMatrix type="matrix" values="0 0 0 0 0 0 0 0 0 0 0 0 0 0 0 0 0 0 0.25 0"/>
<feBlend mode="normal" in2="BackgroundImageFix" result="effect1_dropShadow_2:5"/>
<feBlend mode="normal" in="SourceGraphic" in2="effect1_dropShadow_2:5" result="shape"/>
</filter>
<filter id="filter2_d_2:5" x="200" y="194" width="188" height="33" filterUnits="userSpaceOnUse" color-interpolation-filters="sRGB">
<feFlood flood-opacity="0" result="BackgroundImageFix"/>
<feColorMatrix in="SourceAlpha" type="matrix" values="0 0 0 0 0 0 0 0 0 0 0 0 0 0 0 0 0 0 127 0" result="hardAlpha"/>
<feOffset dy="4"/>
<feGaussianBlur stdDeviation="2"/>
<feComposite in2="hardAlpha" operator="out"/>
<feColorMatrix type="matrix" values="0 0 0 0 0 0 0 0 0 0 0 0 0 0 0 0 0 0 0.25 0"/>
<feBlend mode="normal" in2="BackgroundImageFix" result="effect1_dropShadow_2:5"/>
<feBlend mode="normal" in="SourceGraphic" in2="effect1_dropShadow_2:5" result="shape"/>
</filter>
<filter id="filter3_d_2:5" x="201" y="229" width="188" height="33" filterUnits="userSpaceOnUse" color-interpolation-filters="sRGB">
<feFlood flood-opacity="0" result="BackgroundImageFix"/>
<feColorMatrix in="SourceAlpha" type="matrix" values="0 0 0 0 0 0 0 0 0 0 0 0 0 0 0 0 0 0 127 0" result="hardAlpha"/>
<feOffset dy="4"/>
<feGaussianBlur stdDeviation="2"/>
<feComposite in2="hardAlpha" operator="out"/>
<feColorMatrix type="matrix" values="0 0 0 0 0 0 0 0 0 0 0 0 0 0 0 0 0 0 0.25 0"/>
<feBlend mode="normal" in2="BackgroundImageFix" result="effect1_dropShadow_2:5"/>
<feBlend mode="normal" in="SourceGraphic" in2="effect1_dropShadow_2:5" result="shape"/>
</filter>
<filter id="filter4_d_2:5" x="239" y="264" width="88" height="28" filterUnits="userSpaceOnUse" color-interpolation-filters="sRGB">
<feFlood flood-opacity="0" result="BackgroundImageFix"/>
<feColorMatrix in="SourceAlpha" type="matrix" values="0 0 0 0 0 0 0 0 0 0 0 0 0 0 0 0 0 0 127 0" result="hardAlpha"/>
<feOffset dy="4"/>
<feGaussianBlur stdDeviation="2"/>
<feComposite in2="hardAlpha" operator="out"/>
<feColorMatrix type="matrix" values="0 0 0 0 0 0 0 0 0 0 0 0 0 0 0 0 0 0 0.25 0"/>
<feBlend mode="normal" in2="BackgroundImageFix" result="effect1_dropShadow_2:5"/>
<feBlend mode="normal" in="SourceGraphic" in2="effect1_dropShadow_2:5" result="shape"/>
</filter>
<clipPath id="clip0_2:5">
<rect width="300" height="194" fill="white" transform="translate(150 103)"/>
</clipPath>
<clipPath id="clip1_2:5">
<rect width="180" height="25" fill="white" transform="translate(204 194)"/>
</clipPath>
<clipPath id="clip2_2:5">
<rect width="180" height="25" fill="white" transform="translate(205 229)"/>
</clipPath>
</defs>
</svg>
