<svg width="600" height="400" viewBox="0 0 600 400" fill="none" xmlns="http://www.w3.org/2000/svg">
<rect width="600" height="400" fill="#DBD1D1"/>
<g clip-path="url(#clip0_7:26)" filter="url(#filter0_d_7:26)">
<g filter="url(#filter1_d_7:26)">
<rect x="150" y="106" width="300" height="188" rx="10" fill="#C4C4C4"/>
</g>
<path d="M172.222 160.272C169.116 160.272 166.918 159.966 165.626 159.354C164.334 158.742 163.506 157.677 163.144 156.158C162.804 154.617 162.634 151.999 162.634 148.304C162.634 144.609 162.804 142.003 163.144 140.484C163.506 138.943 164.334 137.866 165.626 137.254C166.918 136.642 169.116 136.336 172.222 136.336C175.304 136.336 177.492 136.642 178.784 137.254C180.098 137.866 180.926 138.943 181.266 140.484C181.628 142.003 181.81 144.609 181.81 148.304C181.81 151.999 181.628 154.617 181.266 156.158C180.926 157.677 180.098 158.742 178.784 159.354C177.492 159.966 175.304 160.272 172.222 160.272ZM172.222 157.552C174.534 157.552 176.098 157.405 176.914 157.11C177.73 156.815 178.262 156.079 178.512 154.9C178.761 153.721 178.886 151.523 178.886 148.304C178.886 145.085 178.761 142.887 178.512 141.708C178.262 140.529 177.73 139.793 176.914 139.498C176.098 139.203 174.534 139.056 172.222 139.056C169.91 139.056 168.334 139.203 167.496 139.498C166.68 139.793 166.147 140.529 165.898 141.708C165.648 142.887 165.524 145.085 165.524 148.304C165.524 151.523 165.648 153.721 165.898 154.9C166.147 156.079 166.68 156.815 167.496 157.11C168.334 157.405 169.91 157.552 172.222 157.552ZM199.108 150.242C199.108 148.633 199.006 147.488 198.802 146.808C198.598 146.105 198.213 145.641 197.646 145.414C197.079 145.187 196.127 145.074 194.79 145.074C193.362 145.074 192.308 145.301 191.628 145.754C190.971 146.207 190.551 146.831 190.37 147.624C190.211 148.417 190.132 149.562 190.132 151.058V160H187.378V142.66H189.826L189.962 145.108H190.166C190.551 144.224 191.186 143.555 192.07 143.102C192.954 142.626 194.235 142.388 195.912 142.388C197.589 142.388 198.847 142.626 199.686 143.102C200.547 143.578 201.125 144.292 201.42 145.244C201.715 146.173 201.862 147.477 201.862 149.154V160H199.108V150.242ZM221.603 152.316H209.737C209.737 153.971 209.851 155.149 210.077 155.852C210.304 156.555 210.791 157.053 211.539 157.348C212.31 157.62 213.591 157.756 215.381 157.756C217.127 157.756 218.974 157.631 220.923 157.382V159.796C220.198 159.932 219.257 160.045 218.101 160.136C216.945 160.227 215.846 160.272 214.803 160.272C212.469 160.272 210.746 160 209.635 159.456C208.547 158.912 207.833 158.039 207.493 156.838C207.153 155.637 206.983 153.812 206.983 151.364C206.983 148.961 207.131 147.159 207.425 145.958C207.743 144.757 208.434 143.861 209.499 143.272C210.587 142.683 212.299 142.388 214.633 142.388C216.809 142.388 218.385 142.683 219.359 143.272C220.334 143.839 220.946 144.711 221.195 145.89C221.467 147.046 221.603 148.859 221.603 151.33V152.316ZM214.565 144.904C213.092 144.904 212.027 145.04 211.369 145.312C210.735 145.561 210.304 146.049 210.077 146.774C209.873 147.477 209.76 148.621 209.737 150.208H218.951V149.936C218.951 148.44 218.815 147.341 218.543 146.638C218.294 145.935 217.875 145.471 217.285 145.244C216.696 145.017 215.789 144.904 214.565 144.904ZM249.413 159.83C248.71 159.966 247.826 160.068 246.761 160.136C245.718 160.227 244.743 160.272 243.837 160.272C241.026 160.272 238.975 159.966 237.683 159.354C236.391 158.742 235.518 157.631 235.065 156.022C234.634 154.39 234.419 151.817 234.419 148.304C234.419 144.813 234.634 142.252 235.065 140.62C235.518 138.988 236.391 137.866 237.683 137.254C238.975 136.642 241.026 136.336 243.837 136.336C244.766 136.336 245.741 136.381 246.761 136.472C247.781 136.563 248.619 136.687 249.277 136.846V139.396C247.577 139.169 246.013 139.056 244.585 139.056C242.205 139.056 240.539 139.237 239.587 139.6C238.657 139.963 238.045 140.745 237.751 141.946C237.456 143.147 237.309 145.267 237.309 148.304C237.309 151.341 237.456 153.461 237.751 154.662C238.045 155.863 238.657 156.645 239.587 157.008C240.539 157.371 242.205 157.552 244.585 157.552C246.33 157.552 247.939 157.439 249.413 157.212V159.83ZM254.315 160V134.738H257.069V160H254.315ZM262.846 137.9V134.738H265.77V137.9H262.846ZM262.948 160V142.66H265.702V160H262.948ZM282.597 159.83C281.985 159.943 281.237 160.045 280.353 160.136C279.492 160.227 278.664 160.272 277.871 160.272C275.74 160.272 274.176 159.966 273.179 159.354C272.182 158.742 271.536 157.835 271.241 156.634C270.969 155.433 270.833 153.665 270.833 151.33C270.833 149.041 271.003 147.273 271.343 146.026C271.683 144.779 272.352 143.861 273.349 143.272C274.346 142.683 275.82 142.388 277.769 142.388C278.54 142.388 279.356 142.433 280.217 142.524C281.101 142.615 281.849 142.717 282.461 142.83V145.278C281.101 145.029 279.764 144.904 278.449 144.904C276.998 144.904 275.933 145.074 275.253 145.414C274.596 145.754 274.154 146.355 273.927 147.216C273.7 148.077 273.587 149.449 273.587 151.33C273.587 153.234 273.7 154.628 273.927 155.512C274.176 156.373 274.63 156.963 275.287 157.28C275.967 157.597 277.055 157.756 278.551 157.756C279.662 157.756 281.01 157.643 282.597 157.416V159.83ZM298.27 160L292.15 152.52H289.974V160H287.22V134.738H289.974V149.97H292.15L298.304 142.66H301.398L294.36 151.058L301.5 160H298.27ZM313.925 136.608H321.371C324.613 136.608 326.902 136.903 328.239 137.492C329.577 138.059 330.427 139.09 330.789 140.586C331.152 142.082 331.333 144.655 331.333 148.304C331.333 151.953 331.152 154.526 330.789 156.022C330.427 157.518 329.577 158.561 328.239 159.15C326.902 159.717 324.613 160 321.371 160H313.925V136.608ZM320.895 157.28C323.547 157.28 325.327 157.144 326.233 156.872C327.163 156.577 327.763 155.875 328.035 154.764C328.307 153.631 328.443 151.477 328.443 148.304C328.443 145.153 328.296 143.011 328.001 141.878C327.729 140.745 327.129 140.042 326.199 139.77C325.293 139.475 323.525 139.328 320.895 139.328H316.849V157.28H320.895ZM350.797 152.316H338.931C338.931 153.971 339.044 155.149 339.271 155.852C339.497 156.555 339.985 157.053 340.733 157.348C341.503 157.62 342.784 157.756 344.575 157.756C346.32 157.756 348.167 157.631 350.117 157.382V159.796C349.391 159.932 348.451 160.045 347.295 160.136C346.139 160.227 345.039 160.272 343.997 160.272C341.662 160.272 339.939 160 338.829 159.456C337.741 158.912 337.027 158.039 336.687 156.838C336.347 155.637 336.177 153.812 336.177 151.364C336.177 148.961 336.324 147.159 336.619 145.958C336.936 144.757 337.627 143.861 338.693 143.272C339.781 142.683 341.492 142.388 343.827 142.388C346.003 142.388 347.578 142.683 348.553 143.272C349.527 143.839 350.139 144.711 350.389 145.89C350.661 147.046 350.797 148.859 350.797 151.33V152.316ZM343.759 144.904C342.285 144.904 341.22 145.04 340.563 145.312C339.928 145.561 339.497 146.049 339.271 146.774C339.067 147.477 338.953 148.621 338.931 150.208H348.145V149.936C348.145 148.44 348.009 147.341 347.737 146.638C347.487 145.935 347.068 145.471 346.479 145.244C345.889 145.017 344.983 144.904 343.759 144.904ZM361.696 160.272C360.767 160.272 359.713 160.227 358.534 160.136C357.356 160.045 356.313 159.943 355.406 159.83V157.382C357.65 157.631 359.702 157.756 361.56 157.756C362.716 157.756 363.566 157.677 364.11 157.518C364.654 157.359 365.006 157.11 365.164 156.77C365.346 156.407 365.436 155.875 365.436 155.172C365.436 154.469 365.368 153.971 365.232 153.676C365.119 153.359 364.926 153.143 364.654 153.03C364.382 152.917 363.906 152.826 363.226 152.758L358.704 152.248C357.662 152.135 356.857 151.897 356.29 151.534C355.746 151.171 355.372 150.673 355.168 150.038C354.964 149.403 354.862 148.553 354.862 147.488C354.862 146.015 355.123 144.915 355.644 144.19C356.188 143.442 356.925 142.955 357.854 142.728C358.806 142.501 360.076 142.388 361.662 142.388C362.546 142.388 363.498 142.433 364.518 142.524C365.538 142.615 366.4 142.728 367.102 142.864V145.312C365.334 145.04 363.51 144.904 361.628 144.904C360.586 144.904 359.792 144.961 359.248 145.074C358.704 145.165 358.285 145.391 357.99 145.754C357.696 146.094 357.548 146.638 357.548 147.386C357.548 148.043 357.605 148.519 357.718 148.814C357.832 149.109 358.024 149.313 358.296 149.426C358.568 149.539 359.022 149.63 359.656 149.698L364.348 150.242C365.346 150.355 366.094 150.548 366.592 150.82C367.114 151.069 367.488 151.523 367.714 152.18C367.964 152.837 368.088 153.812 368.088 155.104C368.088 156.532 367.85 157.62 367.374 158.368C366.921 159.116 366.241 159.626 365.334 159.898C364.45 160.147 363.238 160.272 361.696 160.272ZM383.967 160L377.847 152.52H375.671V160H372.917V134.738H375.671V149.97H377.847L384.001 142.66H387.095L380.057 151.058L387.197 160H383.967ZM392.607 160V145.176H389.105V142.66H392.607V137.628H395.361V142.66H399.509V145.176H395.361V160H392.607ZM410.099 160.272C407.674 160.272 405.94 160.034 404.897 159.558C403.855 159.059 403.186 158.232 402.891 157.076C402.619 155.897 402.483 153.982 402.483 151.33C402.483 148.678 402.619 146.774 402.891 145.618C403.186 144.439 403.855 143.612 404.897 143.136C405.94 142.637 407.674 142.388 410.099 142.388C412.502 142.388 414.225 142.637 415.267 143.136C416.31 143.612 416.967 144.439 417.239 145.618C417.534 146.774 417.681 148.678 417.681 151.33C417.681 153.982 417.534 155.897 417.239 157.076C416.967 158.232 416.31 159.059 415.267 159.558C414.225 160.034 412.502 160.272 410.099 160.272ZM410.099 157.756C411.754 157.756 412.899 157.609 413.533 157.314C414.168 157.019 414.553 156.487 414.689 155.716C414.848 154.923 414.927 153.461 414.927 151.33C414.927 149.199 414.848 147.749 414.689 146.978C414.553 146.185 414.168 145.641 413.533 145.346C412.899 145.051 411.754 144.904 410.099 144.904C408.445 144.904 407.289 145.051 406.631 145.346C405.997 145.641 405.6 146.185 405.441 146.978C405.305 147.749 405.237 149.199 405.237 151.33C405.237 153.461 405.305 154.923 405.441 155.716C405.6 156.487 405.997 157.019 406.631 157.314C407.289 157.609 408.445 157.756 410.099 157.756ZM422.854 142.66H425.302L425.438 145.108H425.642C426.096 144.065 426.81 143.351 427.784 142.966C428.782 142.581 429.972 142.388 431.354 142.388C433.077 142.388 434.392 142.649 435.298 143.17C436.205 143.691 436.84 144.587 437.202 145.856C437.588 147.103 437.78 148.916 437.78 151.296C437.78 153.699 437.588 155.535 437.202 156.804C436.84 158.073 436.205 158.969 435.298 159.49C434.414 160.011 433.122 160.272 431.422 160.272C429.949 160.272 428.748 160.091 427.818 159.728C426.912 159.365 426.232 158.731 425.778 157.824H425.608V166.8H422.854V142.66ZM430.266 157.586C431.74 157.586 432.782 157.45 433.394 157.178C434.029 156.906 434.448 156.351 434.652 155.512C434.879 154.673 434.992 153.279 434.992 151.33C434.992 149.381 434.879 147.987 434.652 147.148C434.448 146.309 434.029 145.754 433.394 145.482C432.782 145.187 431.74 145.04 430.266 145.04C429.11 145.04 428.192 145.199 427.512 145.516C426.832 145.833 426.356 146.321 426.084 146.978C425.88 147.477 425.744 148.055 425.676 148.712C425.631 149.369 425.608 150.242 425.608 151.33C425.608 152.441 425.631 153.313 425.676 153.948C425.722 154.583 425.835 155.115 426.016 155.546C426.311 156.271 426.798 156.793 427.478 157.11C428.158 157.427 429.088 157.586 430.266 157.586Z" fill="black"/>
<g clip-path="url(#clip1_7:26)" filter="url(#filter2_d_7:26)">
<rect x="204" y="191" width="180" height="25" fill="#F4F3F3" stroke="black" stroke-width="2"/>
<path d="M210.4 208V198.368H211.604V206.838H216.098V208H210.4ZM220.579 208.112C219.581 208.112 218.867 208.014 218.437 207.818C218.008 207.613 217.733 207.272 217.611 206.796C217.499 206.311 217.443 205.522 217.443 204.43C217.443 203.338 217.499 202.554 217.611 202.078C217.733 201.593 218.008 201.252 218.437 201.056C218.867 200.851 219.581 200.748 220.579 200.748C221.569 200.748 222.278 200.851 222.707 201.056C223.137 201.252 223.407 201.593 223.519 202.078C223.641 202.554 223.701 203.338 223.701 204.43C223.701 205.522 223.641 206.311 223.519 206.796C223.407 207.272 223.137 207.613 222.707 207.818C222.278 208.014 221.569 208.112 220.579 208.112ZM220.579 207.076C221.261 207.076 221.732 207.015 221.993 206.894C222.255 206.773 222.413 206.553 222.469 206.236C222.535 205.909 222.567 205.307 222.567 204.43C222.567 203.553 222.535 202.955 222.469 202.638C222.413 202.311 222.255 202.087 221.993 201.966C221.732 201.845 221.261 201.784 220.579 201.784C219.898 201.784 219.422 201.845 219.151 201.966C218.89 202.087 218.727 202.311 218.661 202.638C218.605 202.955 218.577 203.553 218.577 204.43C218.577 205.307 218.605 205.909 218.661 206.236C218.727 206.553 218.89 206.773 219.151 206.894C219.422 207.015 219.898 207.076 220.579 207.076ZM228.435 210.884C227.446 210.884 226.606 210.842 225.915 210.758V209.764C226.811 209.82 227.572 209.848 228.197 209.848C228.916 209.848 229.434 209.783 229.751 209.652C230.078 209.521 230.288 209.288 230.381 208.952C230.484 208.625 230.535 208.098 230.535 207.37V207.062H230.465C230.288 207.426 230.008 207.687 229.625 207.846C229.252 207.995 228.767 208.07 228.169 208.07C227.451 208.07 226.905 207.967 226.531 207.762C226.158 207.547 225.897 207.183 225.747 206.67C225.598 206.157 225.523 205.41 225.523 204.43C225.523 203.441 225.598 202.689 225.747 202.176C225.906 201.653 226.172 201.285 226.545 201.07C226.919 200.855 227.46 200.748 228.169 200.748C228.739 200.748 229.224 200.827 229.625 200.986C230.036 201.145 230.335 201.439 230.521 201.868H230.605L230.647 200.86H231.669V207.09C231.669 208.098 231.595 208.859 231.445 209.372C231.305 209.885 231.007 210.263 230.549 210.506C230.092 210.758 229.387 210.884 228.435 210.884ZM228.603 206.978C229.07 206.978 229.439 206.922 229.709 206.81C229.989 206.689 230.185 206.507 230.297 206.264C230.391 206.059 230.451 205.816 230.479 205.536C230.517 205.256 230.535 204.883 230.535 204.416C230.535 203.94 230.521 203.571 230.493 203.31C230.475 203.039 230.419 202.811 230.325 202.624C230.204 202.344 230.003 202.143 229.723 202.022C229.443 201.901 229.07 201.84 228.603 201.84C228.006 201.84 227.577 201.901 227.315 202.022C227.054 202.134 226.877 202.363 226.783 202.708C226.699 203.044 226.657 203.613 226.657 204.416C226.657 205.209 226.699 205.779 226.783 206.124C226.877 206.46 227.054 206.689 227.315 206.81C227.577 206.922 228.006 206.978 228.603 206.978ZM234.061 198.9V197.598H235.265V198.9H234.061ZM234.103 208V200.86H235.237V208H234.103ZM242.487 203.982C242.487 203.319 242.445 202.848 242.361 202.568C242.277 202.279 242.119 202.087 241.885 201.994C241.652 201.901 241.26 201.854 240.709 201.854C240.121 201.854 239.687 201.947 239.407 202.134C239.137 202.321 238.964 202.577 238.889 202.904C238.824 203.231 238.791 203.702 238.791 204.318V208H237.657V200.86H238.665L238.721 201.868H238.805C238.964 201.504 239.225 201.229 239.589 201.042C239.953 200.846 240.481 200.748 241.171 200.748C241.862 200.748 242.38 200.846 242.725 201.042C243.08 201.238 243.318 201.532 243.439 201.924C243.561 202.307 243.621 202.843 243.621 203.534V208H242.487V203.982Z" fill="#A4A4A4"/>
</g>
<g clip-path="url(#clip2_7:26)" filter="url(#filter3_d_7:26)">
<rect x="205" y="226" width="180" height="25" fill="#F4F3F3" stroke="black" stroke-width="2"/>
<path d="M211.4 233.368H215.628C216.403 233.368 216.991 233.494 217.392 233.746C217.793 233.998 218.059 234.339 218.19 234.768C218.321 235.197 218.386 235.753 218.386 236.434C218.386 237.087 218.321 237.633 218.19 238.072C218.059 238.501 217.789 238.847 217.378 239.108C216.977 239.369 216.384 239.5 215.6 239.5H212.604V243H211.4V233.368ZM215.194 238.38C215.801 238.38 216.244 238.319 216.524 238.198C216.804 238.067 216.986 237.871 217.07 237.61C217.154 237.349 217.196 236.957 217.196 236.434C217.196 235.911 217.154 235.519 217.07 235.258C216.995 234.997 216.818 234.805 216.538 234.684C216.267 234.553 215.829 234.488 215.222 234.488H212.604V238.38H215.194ZM222.255 243.112C221.433 243.112 220.836 242.963 220.463 242.664C220.089 242.356 219.903 241.815 219.903 241.04C219.903 240.489 219.968 240.06 220.099 239.752C220.229 239.444 220.449 239.22 220.757 239.08C221.074 238.94 221.517 238.87 222.087 238.87C222.357 238.87 223.249 238.893 224.761 238.94V238.52C224.761 237.96 224.705 237.563 224.593 237.33C224.49 237.097 224.294 236.947 224.005 236.882C223.725 236.817 223.244 236.784 222.563 236.784C222.264 236.784 221.886 236.803 221.429 236.84C220.981 236.868 220.631 236.901 220.379 236.938V235.944C221.116 235.813 221.979 235.748 222.969 235.748C223.809 235.748 224.434 235.837 224.845 236.014C225.265 236.182 225.545 236.462 225.685 236.854C225.825 237.237 225.895 237.797 225.895 238.534V243H224.873L224.817 242.006H224.733C224.537 242.454 224.219 242.753 223.781 242.902C223.351 243.042 222.843 243.112 222.255 243.112ZM222.689 242.09C223.155 242.09 223.533 242.048 223.823 241.964C224.121 241.88 224.336 241.717 224.467 241.474C224.663 241.138 224.761 240.671 224.761 240.074V239.752H222.381C221.989 239.752 221.699 239.78 221.513 239.836C221.335 239.892 221.209 240.004 221.135 240.172C221.06 240.331 221.023 240.583 221.023 240.928C221.023 241.264 221.065 241.511 221.149 241.67C221.233 241.829 221.387 241.941 221.611 242.006C221.844 242.062 222.203 242.09 222.689 242.09ZM230.701 243.112C230.319 243.112 229.885 243.093 229.399 243.056C228.914 243.019 228.485 242.977 228.111 242.93V241.922C229.035 242.025 229.88 242.076 230.645 242.076C231.121 242.076 231.471 242.043 231.695 241.978C231.919 241.913 232.064 241.81 232.129 241.67C232.204 241.521 232.241 241.301 232.241 241.012C232.241 240.723 232.213 240.517 232.157 240.396C232.111 240.265 232.031 240.177 231.919 240.13C231.807 240.083 231.611 240.046 231.331 240.018L229.469 239.808C229.04 239.761 228.709 239.663 228.475 239.514C228.251 239.365 228.097 239.159 228.013 238.898C227.929 238.637 227.887 238.287 227.887 237.848C227.887 237.241 227.995 236.789 228.209 236.49C228.433 236.182 228.737 235.981 229.119 235.888C229.511 235.795 230.034 235.748 230.687 235.748C231.051 235.748 231.443 235.767 231.863 235.804C232.283 235.841 232.638 235.888 232.927 235.944V236.952C232.199 236.84 231.448 236.784 230.673 236.784C230.244 236.784 229.917 236.807 229.693 236.854C229.469 236.891 229.297 236.985 229.175 237.134C229.054 237.274 228.993 237.498 228.993 237.806C228.993 238.077 229.017 238.273 229.063 238.394C229.11 238.515 229.189 238.599 229.301 238.646C229.413 238.693 229.6 238.73 229.861 238.758L231.793 238.982C232.204 239.029 232.512 239.108 232.717 239.22C232.932 239.323 233.086 239.509 233.179 239.78C233.282 240.051 233.333 240.452 233.333 240.984C233.333 241.572 233.235 242.02 233.039 242.328C232.853 242.636 232.573 242.846 232.199 242.958C231.835 243.061 231.336 243.112 230.701 243.112ZM237.688 243.112C237.305 243.112 236.871 243.093 236.386 243.056C235.9 243.019 235.471 242.977 235.098 242.93V241.922C236.022 242.025 236.866 242.076 237.632 242.076C238.108 242.076 238.458 242.043 238.682 241.978C238.906 241.913 239.05 241.81 239.116 241.67C239.19 241.521 239.228 241.301 239.228 241.012C239.228 240.723 239.2 240.517 239.144 240.396C239.097 240.265 239.018 240.177 238.906 240.13C238.794 240.083 238.598 240.046 238.318 240.018L236.456 239.808C236.026 239.761 235.695 239.663 235.462 239.514C235.238 239.365 235.084 239.159 235 238.898C234.916 238.637 234.874 238.287 234.874 237.848C234.874 237.241 234.981 236.789 235.196 236.49C235.42 236.182 235.723 235.981 236.106 235.888C236.498 235.795 237.02 235.748 237.674 235.748C238.038 235.748 238.43 235.767 238.85 235.804C239.27 235.841 239.624 235.888 239.914 235.944V236.952C239.186 236.84 238.434 236.784 237.66 236.784C237.23 236.784 236.904 236.807 236.68 236.854C236.456 236.891 236.283 236.985 236.162 237.134C236.04 237.274 235.98 237.498 235.98 237.806C235.98 238.077 236.003 238.273 236.05 238.394C236.096 238.515 236.176 238.599 236.288 238.646C236.4 238.693 236.586 238.73 236.848 238.758L238.78 238.982C239.19 239.029 239.498 239.108 239.704 239.22C239.918 239.323 240.072 239.509 240.166 239.78C240.268 240.051 240.32 240.452 240.32 240.984C240.32 241.572 240.222 242.02 240.026 242.328C239.839 242.636 239.559 242.846 239.186 242.958C238.822 243.061 238.322 243.112 237.688 243.112ZM248.496 243L246.844 237.89H246.746L245.122 243H243.806L241.524 235.86H242.7L244.45 241.53H244.548L246.284 235.86H247.362L249.112 241.53H249.21L250.946 235.86H252.094L249.812 243H248.496ZM256.442 243.112C255.444 243.112 254.73 243.014 254.3 242.818C253.871 242.613 253.596 242.272 253.474 241.796C253.362 241.311 253.306 240.522 253.306 239.43C253.306 238.338 253.362 237.554 253.474 237.078C253.596 236.593 253.871 236.252 254.3 236.056C254.73 235.851 255.444 235.748 256.442 235.748C257.432 235.748 258.141 235.851 258.57 236.056C259 236.252 259.27 236.593 259.382 237.078C259.504 237.554 259.564 238.338 259.564 239.43C259.564 240.522 259.504 241.311 259.382 241.796C259.27 242.272 259 242.613 258.57 242.818C258.141 243.014 257.432 243.112 256.442 243.112ZM256.442 242.076C257.124 242.076 257.595 242.015 257.856 241.894C258.118 241.773 258.276 241.553 258.332 241.236C258.398 240.909 258.43 240.307 258.43 239.43C258.43 238.553 258.398 237.955 258.332 237.638C258.276 237.311 258.118 237.087 257.856 236.966C257.595 236.845 257.124 236.784 256.442 236.784C255.761 236.784 255.285 236.845 255.014 236.966C254.753 237.087 254.59 237.311 254.524 237.638C254.468 237.955 254.44 238.553 254.44 239.43C254.44 240.307 254.468 240.909 254.524 241.236C254.59 241.553 254.753 241.773 255.014 241.894C255.285 242.015 255.761 242.076 256.442 242.076ZM261.695 235.86H262.703L262.759 237.218H262.843C263.011 236.658 263.291 236.275 263.683 236.07C264.075 235.855 264.588 235.748 265.223 235.748V236.966C264.579 236.966 264.084 237.064 263.739 237.26C263.393 237.456 263.155 237.759 263.025 238.17C262.894 238.571 262.829 239.117 262.829 239.808V243H261.695V235.86ZM269.105 243.112C268.395 243.112 267.854 243.005 267.481 242.79C267.107 242.575 266.841 242.211 266.683 241.698C266.533 241.175 266.459 240.424 266.459 239.444C266.459 238.455 266.533 237.699 266.683 237.176C266.832 236.653 267.089 236.285 267.453 236.07C267.826 235.855 268.363 235.748 269.063 235.748C269.679 235.748 270.173 235.823 270.547 235.972C270.929 236.121 271.209 236.383 271.387 236.756H271.471V232.598H272.605V243H271.583L271.541 242.006H271.457C271.261 242.435 270.962 242.729 270.561 242.888C270.159 243.037 269.674 243.112 269.105 243.112ZM269.539 242.02C270.024 242.02 270.407 241.959 270.687 241.838C270.967 241.707 271.158 241.507 271.261 241.236C271.354 241.021 271.41 240.779 271.429 240.508C271.457 240.228 271.471 239.845 271.471 239.36C271.471 238.959 271.457 238.627 271.429 238.366C271.401 238.105 271.349 237.881 271.275 237.694C271.163 237.405 270.962 237.195 270.673 237.064C270.393 236.924 270.005 236.854 269.511 236.854C268.923 236.854 268.498 236.915 268.237 237.036C267.985 237.148 267.812 237.377 267.719 237.722C267.635 238.067 267.593 238.637 267.593 239.43C267.593 240.242 267.635 240.821 267.719 241.166C267.812 241.511 267.985 241.74 268.237 241.852C268.498 241.964 268.932 242.02 269.539 242.02Z" fill="#A4A4A4"/>
</g>
<g filter="url(#filter4_d_7:26)">
<rect x="243" y="261" width="80" height="20" rx="2" fill="#46AEDB"/>
</g>
<path d="M253.985 276.112C253.472 276.112 252.898 276.093 252.263 276.056C251.638 276.019 251.082 275.972 250.597 275.916V274.81C251.81 274.931 252.823 274.992 253.635 274.992C254.139 274.992 254.536 274.973 254.825 274.936C255.124 274.889 255.376 274.81 255.581 274.698C255.768 274.586 255.889 274.423 255.945 274.208C256.001 273.984 256.029 273.69 256.029 273.326C256.029 272.887 256.006 272.579 255.959 272.402C255.912 272.215 255.8 272.08 255.623 271.996C255.455 271.912 255.161 271.851 254.741 271.814L252.361 271.548C251.782 271.483 251.344 271.347 251.045 271.142C250.756 270.927 250.56 270.652 250.457 270.316C250.364 269.971 250.317 269.523 250.317 268.972C250.317 268.207 250.448 267.628 250.709 267.236C250.98 266.844 251.353 266.583 251.829 266.452C252.314 266.321 252.963 266.256 253.775 266.256C254.316 266.256 254.867 266.279 255.427 266.326C255.987 266.373 256.43 266.429 256.757 266.494V267.558C256.402 267.502 255.964 267.46 255.441 267.432C254.918 267.395 254.433 267.376 253.985 267.376C253.462 267.376 253.042 267.399 252.725 267.446C252.408 267.493 252.16 267.572 251.983 267.684C251.787 267.796 251.661 267.945 251.605 268.132C251.549 268.319 251.521 268.585 251.521 268.93C251.521 269.313 251.549 269.593 251.605 269.77C251.661 269.938 251.768 270.064 251.927 270.148C252.086 270.223 252.347 270.279 252.711 270.316L255.063 270.582C255.623 270.638 256.057 270.736 256.365 270.876C256.673 271.016 256.897 271.268 257.037 271.632C257.168 271.968 257.233 272.505 257.233 273.242C257.233 274.091 257.102 274.726 256.841 275.146C256.58 275.557 256.23 275.823 255.791 275.944C255.352 276.056 254.75 276.112 253.985 276.112ZM259.36 266.9V265.598H260.564V266.9H259.36ZM259.402 276V268.86H260.536V276H259.402ZM265.56 278.884C264.571 278.884 263.731 278.842 263.04 278.758V277.764C263.936 277.82 264.697 277.848 265.322 277.848C266.041 277.848 266.559 277.783 266.876 277.652C267.203 277.521 267.413 277.288 267.506 276.952C267.609 276.625 267.66 276.098 267.66 275.37V275.062H267.59C267.413 275.426 267.133 275.687 266.75 275.846C266.377 275.995 265.892 276.07 265.294 276.07C264.576 276.07 264.03 275.967 263.656 275.762C263.283 275.547 263.022 275.183 262.872 274.67C262.723 274.157 262.648 273.41 262.648 272.43C262.648 271.441 262.723 270.689 262.872 270.176C263.031 269.653 263.297 269.285 263.67 269.07C264.044 268.855 264.585 268.748 265.294 268.748C265.864 268.748 266.349 268.827 266.75 268.986C267.161 269.145 267.46 269.439 267.646 269.868H267.73L267.772 268.86H268.794V275.09C268.794 276.098 268.72 276.859 268.57 277.372C268.43 277.885 268.132 278.263 267.674 278.506C267.217 278.758 266.512 278.884 265.56 278.884ZM265.728 274.978C266.195 274.978 266.564 274.922 266.834 274.81C267.114 274.689 267.31 274.507 267.422 274.264C267.516 274.059 267.576 273.816 267.604 273.536C267.642 273.256 267.66 272.883 267.66 272.416C267.66 271.94 267.646 271.571 267.618 271.31C267.6 271.039 267.544 270.811 267.45 270.624C267.329 270.344 267.128 270.143 266.848 270.022C266.568 269.901 266.195 269.84 265.728 269.84C265.131 269.84 264.702 269.901 264.44 270.022C264.179 270.134 264.002 270.363 263.908 270.708C263.824 271.044 263.782 271.613 263.782 272.416C263.782 273.209 263.824 273.779 263.908 274.124C264.002 274.46 264.179 274.689 264.44 274.81C264.702 274.922 265.131 274.978 265.728 274.978ZM276.058 271.982C276.058 271.319 276.016 270.848 275.932 270.568C275.848 270.279 275.689 270.087 275.456 269.994C275.222 269.901 274.83 269.854 274.28 269.854C273.692 269.854 273.258 269.947 272.978 270.134C272.707 270.321 272.534 270.577 272.46 270.904C272.394 271.231 272.362 271.702 272.362 272.318V276H271.228V268.86H272.236L272.292 269.868H272.376C272.534 269.504 272.796 269.229 273.16 269.042C273.524 268.846 274.051 268.748 274.742 268.748C275.432 268.748 275.95 268.846 276.296 269.042C276.65 269.238 276.888 269.532 277.01 269.924C277.131 270.307 277.192 270.843 277.192 271.534V276H276.058V271.982ZM282.862 266.9V265.598H284.066V266.9H282.862ZM282.904 276V268.86H284.038V276H282.904ZM291.288 271.982C291.288 271.319 291.246 270.848 291.162 270.568C291.078 270.279 290.92 270.087 290.686 269.994C290.453 269.901 290.061 269.854 289.51 269.854C288.922 269.854 288.488 269.947 288.208 270.134C287.938 270.321 287.765 270.577 287.69 270.904C287.625 271.231 287.592 271.702 287.592 272.318V276H286.458V268.86H287.466L287.522 269.868H287.606C287.765 269.504 288.026 269.229 288.39 269.042C288.754 268.846 289.282 268.748 289.972 268.748C290.663 268.748 291.181 268.846 291.526 269.042C291.881 269.238 292.119 269.532 292.24 269.924C292.362 270.307 292.422 270.843 292.422 271.534V276H291.288V271.982Z" fill="white"/>
<path d="M316.25 278.5H312.969C312.711 278.5 312.5 278.289 312.5 278.031V276.469C312.5 276.211 312.711 276 312.969 276H316.25C316.941 276 317.5 275.441 317.5 274.75V267.25C317.5 266.559 316.941 266 316.25 266H312.969C312.711 266 312.5 265.789 312.5 265.531V263.969C312.5 263.711 312.711 263.5 312.969 263.5H316.25C318.32 263.5 320 265.18 320 267.25V274.75C320 276.82 318.32 278.5 316.25 278.5ZM314.414 270.648L307.852 264.086C307.266 263.5 306.25 263.91 306.25 264.75V268.5H300.938C300.418 268.5 300 268.918 300 269.438V273.188C300 273.707 300.418 274.125 300.938 274.125H306.25V277.875C306.25 278.715 307.266 279.125 307.852 278.539L314.414 271.977C314.777 271.609 314.777 271.016 314.414 270.648Z" fill="white"/>
</g>
<defs>
<filter id="filter0_d_7:26" x="146" y="106" width="308" height="196" filterUnits="userSpaceOnUse" color-interpolation-filters="sRGB">
<feFlood flood-opacity="0" result="BackgroundImageFix"/>
<feColorMatrix in="SourceAlpha" type="matrix" values="0 0 0 0 0 0 0 0 0 0 0 0 0 0 0 0 0 0 127 0" result="hardAlpha"/>
<feOffset dy="4"/>
<feGaussianBlur stdDeviation="2"/>
<feComposite in2="hardAlpha" operator="out"/>
<feColorMatrix type="matrix" values="0 0 0 0 0 0 0 0 0 0 0 0 0 0 0 0 0 0 0.25 0"/>
<feBlend mode="normal" in2="BackgroundImageFix" result="effect1_dropShadow_7:26"/>
<feBlend mode="normal" in="SourceGraphic" in2="effect1_dropShadow_7:26" result="shape"/>
</filter>
<filter id="filter1_d_7:26" x="146" y="106" width="308" height="196" filterUnits="userSpaceOnUse" color-interpolation-filters="sRGB">
<feFlood flood-opacity="0" result="BackgroundImageFix"/>
<feColorMatrix in="SourceAlpha" type="matrix" values="0 0 0 0 0 0 0 0 0 0 0 0 0 0 0 0 0 0 127 0" result="hardAlpha"/>
<feOffset dy="4"/>
<feGaussianBlur stdDeviation="2"/>
<feComposite in2="hardAlpha" operator="out"/>
<feColorMatrix type="matrix" values="0 0 0 0 0 0 0 0 0 0 0 0 0 0 0 0 0 0 0.25 0"/>
<feBlend mode="normal" in2="BackgroundImageFix" result="effect1_dropShadow_7:26"/>
<feBlend mode="normal" in="SourceGraphic" in2="effect1_dropShadow_7:26" result="shape"/>
</filter>
<filter id="filter2_d_7:26" x="200" y="191" width="188" height="33" filterUnits="userSpaceOnUse" color-interpolation-filters="sRGB">
<feFlood flood-opacity="0" result="BackgroundImageFix"/>
<feColorMatrix in="SourceAlpha" type="matrix" values="0 0 0 0 0 0 0 0 0 0 0 0 0 0 0 0 0 0 127 0" result="hardAlpha"/>
<feOffset dy="4"/>
<feGaussianBlur stdDeviation="2"/>
<feComposite in2="hardAlpha" operator="out"/>
<feColorMatrix type="matrix" values="0 0 0 0 0 0 0 0 0 0 0 0 0 0 0 0 0 0 0.25 0"/>
<feBlend mode="normal" in2="BackgroundImageFix" result="effect1_dropShadow_7:26"/>
<feBlend mode="normal" in="SourceGraphic" in2="effect1_dropShadow_7:26" result="shape"/>
</filter>
<filter id="filter3_d_7:26" x="201" y="226" width="188" height="33" filterUnits="userSpaceOnUse" color-interpolation-filters="sRGB">
<feFlood flood-opacity="0" result="BackgroundImageFix"/>
<feColorMatrix in="SourceAlpha" type="matrix" values="0 0 0 0 0 0 0 0 0 0 0 0 0 0 0 0 0 0 127 0" result="hardAlpha"/>
<feOffset dy="4"/>
<feGaussianBlur stdDeviation="2"/>
<feComposite in2="hardAlpha" operator="out"/>
<feColorMatrix type="matrix" values="0 0 0 0 0 0 0 0 0 0 0 0 0 0 0 0 0 0 0.25 0"/>
<feBlend mode="normal" in2="BackgroundImageFix" result="effect1_dropShadow_7:26"/>
<feBlend mode="normal" in="SourceGraphic" in2="effect1_dropShadow_7:26" result="shape"/>
</filter>
<filter id="filter4_d_7:26" x="239" y="261" width="88" height="28" filterUnits="userSpaceOnUse" color-interpolation-filters="sRGB">
<feFlood flood-opacity="0" result="BackgroundImageFix"/>
<feColorMatrix in="SourceAlpha" type="matrix" values="0 0 0 0 0 0 0 0 0 0 0 0 0 0 0 0 0 0 127 0" result="hardAlpha"/>
<feOffset dy="4"/>
<feGaussianBlur stdDeviation="2"/>
<feComposite in2="hardAlpha" operator="out"/>
<feColorMatrix type="matrix" values="0 0 0 0 0 0 0 0 0 0 0 0 0 0 0 0 0 0 0.25 0"/>
<feBlend mode="normal" in2="BackgroundImageFix" result="effect1_dropShadow_7:26"/>
<feBlend mode="normal" in="SourceGraphic" in2="effect1_dropShadow_7:26" result="shape"/>
</filter>
<clipPath id="clip0_7:26">
<rect width="300" height="188" fill="white" transform="translate(150 106)"/>
</clipPath>
<clipPath id="clip1_7:26">
<rect width="180" height="25" fill="white" transform="translate(204 191)"/>
</clipPath>
<clipPath id="clip2_7:26">
<rect width="180" height="25" fill="white" transform="translate(205 226)"/>
</clipPath>
</defs>
</svg>
