<svg width="600" height="400" viewBox="0 0 600 400" fill="none" xmlns="http://www.w3.org/2000/svg">
<rect width="600" height="400" fill="#ECE8E8"/>
<rect width="600" height="40" fill="#C4C4C4"/>
<path d="M18.7871 30.208C16.4125 30.208 14.7311 29.974 13.7431 29.506C12.7551 29.038 12.1225 28.2233 11.8451 27.062C11.5851 25.8833 11.4551 23.8813 11.4551 21.056C11.4551 18.2307 11.5851 16.2373 11.8451 15.076C12.1225 13.8973 12.7551 13.074 13.7431 12.606C14.7311 12.138 16.4125 11.904 18.7871 11.904C21.1445 11.904 22.8171 12.138 23.8051 12.606C24.8105 13.074 25.4431 13.8973 25.7031 15.076C25.9805 16.2373 26.1191 18.2307 26.1191 21.056C26.1191 23.8813 25.9805 25.8833 25.7031 27.062C25.4431 28.2233 24.8105 29.038 23.8051 29.506C22.8171 29.974 21.1445 30.208 18.7871 30.208ZM18.7871 28.128C20.5551 28.128 21.7511 28.0153 22.3751 27.79C22.9991 27.5647 23.4065 27.0013 23.5971 26.1C23.7878 25.1987 23.8831 23.5173 23.8831 21.056C23.8831 18.5947 23.7878 16.9133 23.5971 16.012C23.4065 15.1107 22.9991 14.5473 22.3751 14.322C21.7511 14.0967 20.5551 13.984 18.7871 13.984C17.0191 13.984 15.8145 14.0967 15.1731 14.322C14.5491 14.5473 14.1418 15.1107 13.9511 16.012C13.7605 16.9133 13.6651 18.5947 13.6651 21.056C13.6651 23.5173 13.7605 25.1987 13.9511 26.1C14.1418 27.0013 14.5491 27.5647 15.1731 27.79C15.8145 28.0153 17.0191 28.128 18.7871 28.128ZM39.3472 22.538C39.3472 21.3073 39.2692 20.432 39.1132 19.912C38.9572 19.3747 38.6626 19.0193 38.2292 18.846C37.7959 18.6727 37.0679 18.586 36.0452 18.586C34.9532 18.586 34.1472 18.7593 33.6272 19.106C33.1246 19.4527 32.8039 19.9293 32.6652 20.536C32.5439 21.1427 32.4832 22.018 32.4832 23.162V30H30.3772V16.74H32.2492L32.3532 18.612H32.5092C32.8039 17.936 33.2892 17.4247 33.9652 17.078C34.6412 16.714 35.6206 16.532 36.9032 16.532C38.1859 16.532 39.1479 16.714 39.7892 17.078C40.4479 17.442 40.8899 17.988 41.1152 18.716C41.3406 19.4267 41.4532 20.4233 41.4532 21.706V30H39.3472V22.538ZM56.5497 24.124H47.4757C47.4757 25.3893 47.5624 26.2907 47.7357 26.828C47.909 27.3653 48.2817 27.7467 48.8537 27.972C49.443 28.18 50.4224 28.284 51.7917 28.284C53.1264 28.284 54.539 28.1887 56.0297 27.998V29.844C55.475 29.948 54.7557 30.0347 53.8717 30.104C52.9877 30.1733 52.147 30.208 51.3497 30.208C49.5644 30.208 48.247 30 47.3977 29.584C46.5657 29.168 46.0197 28.5007 45.7597 27.582C45.4997 26.6633 45.3697 25.268 45.3697 23.396C45.3697 21.5587 45.4824 20.1807 45.7077 19.262C45.9504 18.3433 46.479 17.6587 47.2937 17.208C48.1257 16.7573 49.4344 16.532 51.2197 16.532C52.8837 16.532 54.0884 16.7573 54.8337 17.208C55.579 17.6413 56.047 18.3087 56.2377 19.21C56.4457 20.094 56.5497 21.4807 56.5497 23.37V24.124ZM51.1677 18.456C50.041 18.456 49.2264 18.56 48.7237 18.768C48.2384 18.9587 47.909 19.3313 47.7357 19.886C47.5797 20.4233 47.493 21.2987 47.4757 22.512H54.5217V22.304C54.5217 21.16 54.4177 20.3193 54.2097 19.782C54.019 19.2447 53.6984 18.8893 53.2477 18.716C52.797 18.5427 52.1037 18.456 51.1677 18.456ZM77.8157 29.87C77.2783 29.974 76.6023 30.052 75.7877 30.104C74.9903 30.1733 74.245 30.208 73.5517 30.208C71.4023 30.208 69.8337 29.974 68.8457 29.506C67.8577 29.038 67.1903 28.1887 66.8437 26.958C66.5143 25.71 66.3497 23.7427 66.3497 21.056C66.3497 18.3867 66.5143 16.428 66.8437 15.18C67.1903 13.932 67.8577 13.074 68.8457 12.606C69.8337 12.138 71.4023 11.904 73.5517 11.904C74.2623 11.904 75.0077 11.9387 75.7877 12.008C76.5677 12.0773 77.209 12.1727 77.7117 12.294V14.244C76.4117 14.0707 75.2157 13.984 74.1237 13.984C72.3037 13.984 71.0297 14.1227 70.3017 14.4C69.591 14.6773 69.123 15.2753 68.8977 16.194C68.6723 17.1127 68.5597 18.7333 68.5597 21.056C68.5597 23.3787 68.6723 24.9993 68.8977 25.918C69.123 26.8367 69.591 27.4347 70.3017 27.712C71.0297 27.9893 72.3037 28.128 74.1237 28.128C75.4583 28.128 76.689 28.0413 77.8157 27.868V29.87ZM81.5647 30V10.682H83.6707V30H81.5647ZM88.0883 13.1V10.682H90.3243V13.1H88.0883ZM88.1663 30V16.74H90.2723V30H88.1663ZM103.192 29.87C102.724 29.9567 102.152 30.0347 101.476 30.104C100.817 30.1733 100.185 30.208 99.5779 30.208C97.9485 30.208 96.7525 29.974 95.9899 29.506C95.2272 29.038 94.7332 28.3447 94.5079 27.426C94.2999 26.5073 94.1959 25.1553 94.1959 23.37C94.1959 21.6193 94.3259 20.2673 94.5859 19.314C94.8459 18.3607 95.3572 17.6587 96.1199 17.208C96.8825 16.7573 98.0092 16.532 99.4999 16.532C100.089 16.532 100.713 16.5667 101.372 16.636C102.048 16.7053 102.62 16.7833 103.088 16.87V18.742C102.048 18.5513 101.025 18.456 100.02 18.456C98.9105 18.456 98.0959 18.586 97.5759 18.846C97.0732 19.106 96.7352 19.5653 96.5619 20.224C96.3885 20.8827 96.3019 21.9313 96.3019 23.37C96.3019 24.826 96.3885 25.892 96.5619 26.568C96.7525 27.2267 97.0992 27.6773 97.6019 27.92C98.1219 28.1627 98.9539 28.284 100.098 28.284C100.947 28.284 101.979 28.1973 103.192 28.024V29.87ZM115.177 30L110.497 24.28H108.833V30H106.727V10.682H108.833V22.33H110.497L115.203 16.74H117.569L112.187 23.162L117.647 30H115.177ZM127.149 12.112H132.843C135.321 12.112 137.072 12.3373 138.095 12.788C139.117 13.2213 139.767 14.01 140.045 15.154C140.322 16.298 140.461 18.2653 140.461 21.056C140.461 23.8467 140.322 25.814 140.045 26.958C139.767 28.102 139.117 28.8993 138.095 29.35C137.072 29.7833 135.321 30 132.843 30H127.149V12.112ZM132.479 27.92C134.507 27.92 135.867 27.816 136.561 27.608C137.271 27.3827 137.731 26.8453 137.939 25.996C138.147 25.1293 138.251 23.4827 138.251 21.056C138.251 18.6467 138.138 17.0087 137.913 16.142C137.705 15.2753 137.245 14.738 136.535 14.53C135.841 14.3047 134.489 14.192 132.479 14.192H129.385V27.92H132.479ZM155.345 24.124H146.271C146.271 25.3893 146.357 26.2907 146.531 26.828C146.704 27.3653 147.077 27.7467 147.649 27.972C148.238 28.18 149.217 28.284 150.587 28.284C151.921 28.284 153.334 28.1887 154.825 27.998V29.844C154.27 29.948 153.551 30.0347 152.667 30.104C151.783 30.1733 150.942 30.208 150.145 30.208C148.359 30.208 147.042 30 146.193 29.584C145.361 29.168 144.815 28.5007 144.555 27.582C144.295 26.6633 144.165 25.268 144.165 23.396C144.165 21.5587 144.277 20.1807 144.503 19.262C144.745 18.3433 145.274 17.6587 146.089 17.208C146.921 16.7573 148.229 16.532 150.015 16.532C151.679 16.532 152.883 16.7573 153.629 17.208C154.374 17.6413 154.842 18.3087 155.033 19.21C155.241 20.094 155.345 21.4807 155.345 23.37V24.124ZM149.963 18.456C148.836 18.456 148.021 18.56 147.519 18.768C147.033 18.9587 146.704 19.3313 146.531 19.886C146.375 20.4233 146.288 21.2987 146.271 22.512H153.317V22.304C153.317 21.16 153.213 20.3193 153.005 19.782C152.814 19.2447 152.493 18.8893 152.043 18.716C151.592 18.5427 150.899 18.456 149.963 18.456ZM163.679 30.208C162.969 30.208 162.163 30.1733 161.261 30.104C160.36 30.0347 159.563 29.9567 158.869 29.87V27.998C160.585 28.1887 162.154 28.284 163.575 28.284C164.459 28.284 165.109 28.2233 165.525 28.102C165.941 27.9807 166.21 27.79 166.331 27.53C166.47 27.2527 166.539 26.8453 166.539 26.308C166.539 25.7707 166.487 25.3893 166.383 25.164C166.297 24.9213 166.149 24.7567 165.941 24.67C165.733 24.5833 165.369 24.514 164.849 24.462L161.391 24.072C160.594 23.9853 159.979 23.8033 159.545 23.526C159.129 23.2487 158.843 22.8673 158.687 22.382C158.531 21.8967 158.453 21.2467 158.453 20.432C158.453 19.3053 158.653 18.4647 159.051 17.91C159.467 17.338 160.031 16.9653 160.741 16.792C161.469 16.6187 162.44 16.532 163.653 16.532C164.329 16.532 165.057 16.5667 165.837 16.636C166.617 16.7053 167.276 16.792 167.813 16.896V18.768C166.461 18.56 165.066 18.456 163.627 18.456C162.83 18.456 162.223 18.4993 161.807 18.586C161.391 18.6553 161.071 18.8287 160.845 19.106C160.62 19.366 160.507 19.782 160.507 20.354C160.507 20.8567 160.551 21.2207 160.637 21.446C160.724 21.6713 160.871 21.8273 161.079 21.914C161.287 22.0007 161.634 22.07 162.119 22.122L165.707 22.538C166.47 22.6247 167.042 22.772 167.423 22.98C167.822 23.1707 168.108 23.5173 168.281 24.02C168.472 24.5227 168.567 25.268 168.567 26.256C168.567 27.348 168.385 28.18 168.021 28.752C167.675 29.324 167.155 29.714 166.461 29.922C165.785 30.1127 164.858 30.208 163.679 30.208ZM180.71 30L176.03 24.28H174.366V30H172.26V10.682H174.366V22.33H176.03L180.736 16.74H183.102L177.72 23.162L183.18 30H180.71ZM187.317 30V18.664H184.639V16.74H187.317V12.892H189.423V16.74H192.595V18.664H189.423V30H187.317ZM200.694 30.208C198.839 30.208 197.513 30.026 196.716 29.662C195.918 29.2807 195.407 28.648 195.182 27.764C194.974 26.8627 194.87 25.398 194.87 23.37C194.87 21.342 194.974 19.886 195.182 19.002C195.407 18.1007 195.918 17.468 196.716 17.104C197.513 16.7227 198.839 16.532 200.694 16.532C202.531 16.532 203.848 16.7227 204.646 17.104C205.443 17.468 205.946 18.1007 206.154 19.002C206.379 19.886 206.492 21.342 206.492 23.37C206.492 25.398 206.379 26.8627 206.154 27.764C205.946 28.648 205.443 29.2807 204.646 29.662C203.848 30.026 202.531 30.208 200.694 30.208ZM200.694 28.284C201.959 28.284 202.834 28.1713 203.32 27.946C203.805 27.7207 204.1 27.3133 204.204 26.724C204.325 26.1173 204.386 24.9993 204.386 23.37C204.386 21.7407 204.325 20.6313 204.204 20.042C204.1 19.4353 203.805 19.0193 203.32 18.794C202.834 18.5687 201.959 18.456 200.694 18.456C199.428 18.456 198.544 18.5687 198.042 18.794C197.556 19.0193 197.253 19.4353 197.132 20.042C197.028 20.6313 196.976 21.7407 196.976 23.37C196.976 24.9993 197.028 26.1173 197.132 26.724C197.253 27.3133 197.556 27.7207 198.042 27.946C198.544 28.1713 199.428 28.284 200.694 28.284ZM210.448 16.74H212.32L212.424 18.612H212.58C212.926 17.8147 213.472 17.2687 214.218 16.974C214.98 16.6793 215.89 16.532 216.948 16.532C218.265 16.532 219.27 16.7313 219.964 17.13C220.657 17.5287 221.142 18.2133 221.42 19.184C221.714 20.1373 221.862 21.524 221.862 23.344C221.862 25.1813 221.714 26.5853 221.42 27.556C221.142 28.5267 220.657 29.2113 219.964 29.61C219.288 30.0087 218.3 30.208 217 30.208C215.873 30.208 214.954 30.0693 214.244 29.792C213.55 29.5147 213.03 29.0293 212.684 28.336H212.554V35.2H210.448V16.74ZM216.116 28.154C217.242 28.154 218.04 28.05 218.508 27.842C218.993 27.634 219.314 27.2093 219.47 26.568C219.643 25.9267 219.73 24.8607 219.73 23.37C219.73 21.8793 219.643 20.8133 219.47 20.172C219.314 19.5307 218.993 19.106 218.508 18.898C218.04 18.6727 217.242 18.56 216.116 18.56C215.232 18.56 214.53 18.6813 214.01 18.924C213.49 19.1667 213.126 19.5393 212.918 20.042C212.762 20.4233 212.658 20.8653 212.606 21.368C212.571 21.8707 212.554 22.538 212.554 23.37C212.554 24.2193 212.571 24.8867 212.606 25.372C212.64 25.8573 212.727 26.2647 212.866 26.594C213.091 27.1487 213.464 27.5473 213.984 27.79C214.504 28.0327 215.214 28.154 216.116 28.154Z" fill="black"/>
<path d="M536.799 18.4151L534.719 17.2139C534.929 16.0811 534.929 14.919 534.719 13.7861L536.799 12.585C537.038 12.4483 537.145 12.1651 537.067 11.9014C536.525 10.1631 535.603 8.59084 534.396 7.28224C534.211 7.08205 533.908 7.03322 533.674 7.16994L531.594 8.37111C530.72 7.61916 529.714 7.0381 528.625 6.65724V4.25978C528.625 3.98634 528.435 3.74709 528.166 3.68849C526.374 3.2881 524.538 3.30763 522.834 3.68849C522.565 3.74709 522.375 3.98634 522.375 4.25978V6.66212C521.291 7.04787 520.285 7.62892 519.406 8.37599L517.331 7.17482C517.092 7.0381 516.794 7.08205 516.608 7.28712C515.402 8.59084 514.479 10.1631 513.937 11.9063C513.854 12.1699 513.967 12.4531 514.206 12.5899L516.286 13.791C516.076 14.9238 516.076 16.086 516.286 17.2188L514.206 18.4199C513.967 18.5567 513.859 18.8399 513.937 19.1035C514.479 20.8418 515.402 22.4141 516.608 23.7227C516.794 23.9229 517.097 23.9717 517.331 23.835L519.411 22.6338C520.285 23.3858 521.291 23.9668 522.38 24.3477V26.75C522.38 27.0235 522.57 27.2627 522.839 27.3213C524.631 27.7217 526.467 27.7022 528.171 27.3213C528.439 27.2627 528.63 27.0235 528.63 26.75V24.3477C529.714 23.9619 530.72 23.3809 531.599 22.6338L533.679 23.835C533.918 23.9717 534.216 23.9277 534.401 23.7227C535.607 22.419 536.53 20.8467 537.072 19.1035C537.145 18.835 537.038 18.5518 536.799 18.4151ZM525.5 19.4063C523.347 19.4063 521.594 17.6533 521.594 15.5C521.594 13.3467 523.347 11.5938 525.5 11.5938C527.653 11.5938 529.406 13.3467 529.406 15.5C529.406 17.6533 527.653 19.4063 525.5 19.4063Z" fill="black"/>
<path d="M514.346 36.056C514.09 36.056 513.803 36.0467 513.485 36.028C513.173 36.0093 512.895 35.986 512.652 35.958V35.405C513.259 35.4657 513.765 35.496 514.171 35.496C514.423 35.496 514.622 35.4867 514.766 35.468C514.916 35.4447 515.042 35.405 515.144 35.349C515.238 35.293 515.298 35.2113 515.326 35.104C515.354 34.992 515.368 34.845 515.368 34.663C515.368 34.4437 515.357 34.2897 515.333 34.201C515.31 34.1077 515.254 34.04 515.165 33.998C515.081 33.956 514.934 33.9257 514.724 33.907L513.534 33.774C513.245 33.7413 513.026 33.6737 512.876 33.571C512.732 33.4637 512.634 33.326 512.582 33.158C512.536 32.9853 512.512 32.7613 512.512 32.486C512.512 32.1033 512.578 31.814 512.708 31.618C512.844 31.422 513.03 31.2913 513.268 31.226C513.511 31.1607 513.835 31.128 514.241 31.128C514.512 31.128 514.787 31.1397 515.067 31.163C515.347 31.1863 515.569 31.2143 515.732 31.247V31.779C515.555 31.751 515.336 31.73 515.074 31.716C514.813 31.6973 514.57 31.688 514.346 31.688C514.085 31.688 513.875 31.6997 513.716 31.723C513.558 31.7463 513.434 31.786 513.345 31.842C513.247 31.898 513.184 31.9727 513.156 32.066C513.128 32.1593 513.114 32.2923 513.114 32.465C513.114 32.6563 513.128 32.7963 513.156 32.885C513.184 32.969 513.238 33.032 513.317 33.074C513.397 33.1113 513.527 33.1393 513.709 33.158L514.885 33.291C515.165 33.319 515.382 33.368 515.536 33.438C515.69 33.508 515.802 33.634 515.872 33.816C515.938 33.984 515.97 34.2523 515.97 34.621C515.97 35.0457 515.905 35.363 515.774 35.573C515.644 35.7783 515.469 35.9113 515.249 35.972C515.03 36.028 514.729 36.056 514.346 36.056ZM519.911 34.418H517.468C517.468 34.7587 517.491 35.0013 517.538 35.146C517.584 35.2907 517.685 35.3933 517.839 35.454C517.997 35.51 518.261 35.538 518.63 35.538C518.989 35.538 519.369 35.5123 519.771 35.461V35.958C519.621 35.986 519.428 36.0093 519.19 36.028C518.952 36.0467 518.725 36.056 518.511 36.056C518.03 36.056 517.675 36 517.447 35.888C517.223 35.776 517.076 35.5963 517.006 35.349C516.936 35.1017 516.901 34.726 516.901 34.222C516.901 33.7273 516.931 33.3563 516.992 33.109C517.057 32.8617 517.199 32.6773 517.419 32.556C517.643 32.4347 517.995 32.374 518.476 32.374C518.924 32.374 519.248 32.4347 519.449 32.556C519.649 32.6727 519.775 32.8523 519.827 33.095C519.883 33.333 519.911 33.7063 519.911 34.215V34.418ZM518.462 32.892C518.158 32.892 517.939 32.92 517.804 32.976C517.673 33.0273 517.584 33.1277 517.538 33.277C517.496 33.4217 517.472 33.6573 517.468 33.984H519.365V33.928C519.365 33.62 519.337 33.3937 519.281 33.249C519.229 33.1043 519.143 33.0087 519.022 32.962C518.9 32.9153 518.714 32.892 518.462 32.892ZM521.232 36V32.948H520.511V32.43H521.232V31.394H521.799V32.43H522.653V32.948H521.799V36H521.232ZM523.747 36V32.948H523.026V32.43H523.747V31.394H524.314V32.43H525.168V32.948H524.314V36H523.747ZM525.948 31.45V30.799H526.55V31.45H525.948ZM525.969 36V32.43H526.536V36H525.969ZM530.161 33.991C530.161 33.6597 530.14 33.424 530.098 33.284C530.056 33.1393 529.977 33.0437 529.86 32.997C529.744 32.9503 529.548 32.927 529.272 32.927C528.978 32.927 528.761 32.9737 528.621 33.067C528.486 33.1603 528.4 33.2887 528.362 33.452C528.33 33.6153 528.313 33.851 528.313 34.159V36H527.746V32.43H528.25L528.278 32.934H528.32C528.4 32.752 528.53 32.6143 528.712 32.521C528.894 32.423 529.158 32.374 529.503 32.374C529.849 32.374 530.108 32.423 530.28 32.521C530.458 32.619 530.577 32.766 530.637 32.962C530.698 33.1533 530.728 33.4217 530.728 33.767V36H530.161V33.991ZM533.239 37.442C532.744 37.442 532.324 37.421 531.979 37.379V36.882C532.427 36.91 532.807 36.924 533.12 36.924C533.479 36.924 533.738 36.8913 533.897 36.826C534.06 36.7607 534.165 36.644 534.212 36.476C534.263 36.3127 534.289 36.049 534.289 35.685V35.531H534.254C534.165 35.713 534.025 35.8437 533.834 35.923C533.647 35.9977 533.404 36.035 533.106 36.035C532.746 36.035 532.473 35.9837 532.287 35.881C532.1 35.7737 531.969 35.5917 531.895 35.335C531.82 35.0783 531.783 34.705 531.783 34.215C531.783 33.7203 531.82 33.3447 531.895 33.088C531.974 32.8267 532.107 32.6423 532.294 32.535C532.48 32.4277 532.751 32.374 533.106 32.374C533.39 32.374 533.633 32.4137 533.834 32.493C534.039 32.5723 534.188 32.7193 534.282 32.934H534.324L534.345 32.43H534.856V35.545C534.856 36.049 534.818 36.4293 534.744 36.686C534.674 36.9427 534.524 37.1317 534.296 37.253C534.067 37.379 533.715 37.442 533.239 37.442ZM533.323 35.489C533.556 35.489 533.74 35.461 533.876 35.405C534.016 35.3443 534.114 35.2533 534.17 35.132C534.216 35.0293 534.247 34.908 534.261 34.768C534.279 34.628 534.289 34.4413 534.289 34.208C534.289 33.97 534.282 33.7857 534.268 33.655C534.258 33.5197 534.23 33.4053 534.184 33.312C534.123 33.172 534.023 33.0717 533.883 33.011C533.743 32.9503 533.556 32.92 533.323 32.92C533.024 32.92 532.809 32.9503 532.679 33.011C532.548 33.067 532.459 33.1813 532.413 33.354C532.371 33.522 532.35 33.8067 532.35 34.208C532.35 34.6047 532.371 34.8893 532.413 35.062C532.459 35.23 532.548 35.3443 532.679 35.405C532.809 35.461 533.024 35.489 533.323 35.489ZM537.255 36.056C537.064 36.056 536.847 36.0467 536.604 36.028C536.362 36.0093 536.147 35.9883 535.96 35.965V35.461C536.422 35.5123 536.845 35.538 537.227 35.538C537.465 35.538 537.64 35.5217 537.752 35.489C537.864 35.4563 537.937 35.405 537.969 35.335C538.007 35.2603 538.025 35.1507 538.025 35.006C538.025 34.8613 538.011 34.7587 537.983 34.698C537.96 34.6327 537.92 34.5883 537.864 34.565C537.808 34.5417 537.71 34.523 537.57 34.509L536.639 34.404C536.425 34.3807 536.259 34.3317 536.142 34.257C536.03 34.1823 535.953 34.0797 535.911 33.949C535.869 33.8183 535.848 33.6433 535.848 33.424C535.848 33.1207 535.902 32.8943 536.009 32.745C536.121 32.591 536.273 32.4907 536.464 32.444C536.66 32.3973 536.922 32.374 537.248 32.374C537.43 32.374 537.626 32.3833 537.836 32.402C538.046 32.4207 538.224 32.444 538.368 32.472V32.976C538.004 32.92 537.629 32.892 537.241 32.892C537.027 32.892 536.863 32.9037 536.751 32.927C536.639 32.9457 536.553 32.9923 536.492 33.067C536.432 33.137 536.401 33.249 536.401 33.403C536.401 33.5383 536.413 33.6363 536.436 33.697C536.46 33.7577 536.499 33.7997 536.555 33.823C536.611 33.8463 536.705 33.865 536.835 33.879L537.801 33.991C538.007 34.0143 538.161 34.054 538.263 34.11C538.371 34.1613 538.448 34.2547 538.494 34.39C538.546 34.5253 538.571 34.726 538.571 34.992C538.571 35.286 538.522 35.51 538.424 35.664C538.331 35.818 538.191 35.923 538.004 35.979C537.822 36.0303 537.573 36.056 537.255 36.056Z" fill="black"/>
<g clip-path="url(#clip0_1:2)">
<path d="M472.169 10.5289L464.167 18.24V26.5625C464.167 26.778 464.24 26.9847 464.37 27.1371C464.5 27.2894 464.677 27.375 464.861 27.375L469.725 27.3603C469.908 27.3592 470.084 27.2731 470.214 27.1209C470.343 26.9686 470.416 26.7626 470.416 26.5478V21.6875C470.416 21.472 470.489 21.2654 470.619 21.113C470.749 20.9606 470.926 20.875 471.11 20.875H473.888C474.072 20.875 474.249 20.9606 474.379 21.113C474.509 21.2654 474.582 21.472 474.582 21.6875V26.5442C474.582 26.6512 474.6 26.7571 474.635 26.856C474.669 26.9548 474.721 27.0447 474.785 27.1204C474.85 27.1961 474.926 27.2562 475.011 27.2972C475.095 27.3382 475.186 27.3593 475.277 27.3593L480.139 27.375C480.323 27.375 480.5 27.2894 480.63 27.1371C480.76 26.9847 480.833 26.778 480.833 26.5625V18.2344L472.833 10.5289C472.739 10.4401 472.622 10.3918 472.501 10.3918C472.38 10.3918 472.263 10.4401 472.169 10.5289ZM484.809 15.77L481.181 12.2706V5.23694C481.181 5.07532 481.126 4.92033 481.028 4.80605C480.93 4.69177 480.798 4.62756 480.66 4.62756H478.229C478.091 4.62756 477.959 4.69177 477.861 4.80605C477.763 4.92033 477.708 5.07532 477.708 5.23694V8.92417L473.822 5.18362C473.45 4.82458 472.982 4.62828 472.499 4.62828C472.016 4.62828 471.548 4.82458 471.175 5.18362L460.188 15.77C460.136 15.821 460.092 15.8836 460.06 15.9544C460.028 16.0251 460.008 16.1026 460.002 16.1823C459.995 16.262 460.002 16.3424 460.022 16.4189C460.043 16.4954 460.075 16.5665 460.119 16.6282L461.226 18.2024C461.269 18.2643 461.323 18.3155 461.383 18.3532C461.444 18.3909 461.51 18.4142 461.578 18.4219C461.646 18.4296 461.715 18.4215 461.78 18.398C461.846 18.3746 461.907 18.3362 461.96 18.2852L472.169 8.44682C472.263 8.35812 472.38 8.30975 472.501 8.30975C472.622 8.30975 472.739 8.35812 472.833 8.44682L483.043 18.2852C483.095 18.3362 483.156 18.3746 483.221 18.3981C483.287 18.4217 483.356 18.4299 483.424 18.4224C483.492 18.4148 483.558 18.3916 483.618 18.3542C483.679 18.3167 483.732 18.2656 483.776 18.2039L484.883 16.6297C484.926 16.5677 484.959 16.4962 484.979 16.4193C484.999 16.3425 485.006 16.2618 484.999 16.1819C484.992 16.102 484.972 16.0245 484.939 15.9538C484.906 15.8831 484.862 15.8206 484.809 15.77Z" fill="#777777"/>
</g>
<path d="M466.697 36V33.865H464.17V36H463.568V31.184H464.17V33.284H466.697V31.184H467.292V36H466.697ZM470.018 36.056C469.519 36.056 469.162 36.007 468.947 35.909C468.732 35.8063 468.595 35.636 468.534 35.398C468.478 35.1553 468.45 34.761 468.45 34.215C468.45 33.669 468.478 33.277 468.534 33.039C468.595 32.7963 468.732 32.626 468.947 32.528C469.162 32.4253 469.519 32.374 470.018 32.374C470.513 32.374 470.867 32.4253 471.082 32.528C471.297 32.626 471.432 32.7963 471.488 33.039C471.549 33.277 471.579 33.669 471.579 34.215C471.579 34.761 471.549 35.1553 471.488 35.398C471.432 35.636 471.297 35.8063 471.082 35.909C470.867 36.007 470.513 36.056 470.018 36.056ZM470.018 35.538C470.359 35.538 470.594 35.5077 470.725 35.447C470.856 35.3863 470.935 35.2767 470.963 35.118C470.996 34.9547 471.012 34.6537 471.012 34.215C471.012 33.7763 470.996 33.4777 470.963 33.319C470.935 33.1557 470.856 33.0437 470.725 32.983C470.594 32.9223 470.359 32.892 470.018 32.892C469.677 32.892 469.439 32.9223 469.304 32.983C469.173 33.0437 469.092 33.1557 469.059 33.319C469.031 33.4777 469.017 33.7763 469.017 34.215C469.017 34.6537 469.031 34.9547 469.059 35.118C469.092 35.2767 469.173 35.3863 469.304 35.447C469.439 35.5077 469.677 35.538 470.018 35.538ZM477.04 33.991C477.04 33.655 477.021 33.417 476.984 33.277C476.951 33.137 476.884 33.0437 476.781 32.997C476.678 32.9503 476.506 32.927 476.263 32.927C476.002 32.927 475.81 32.9713 475.689 33.06C475.568 33.1487 475.491 33.2747 475.458 33.438C475.425 33.6013 475.409 33.8417 475.409 34.159V36H474.842V33.991C474.842 33.655 474.823 33.417 474.786 33.277C474.753 33.137 474.686 33.0437 474.583 32.997C474.48 32.9503 474.308 32.927 474.065 32.927C473.804 32.927 473.612 32.9737 473.491 33.067C473.37 33.1557 473.293 33.284 473.26 33.452C473.227 33.6153 473.211 33.851 473.211 34.159V36H472.644V32.43H473.148L473.176 32.934H473.218C473.288 32.752 473.407 32.6143 473.575 32.521C473.748 32.423 473.99 32.374 474.303 32.374C474.611 32.374 474.844 32.4183 475.003 32.507C475.162 32.5957 475.271 32.738 475.332 32.934H475.381C475.53 32.5607 475.901 32.374 476.494 32.374C476.807 32.374 477.042 32.423 477.201 32.521C477.36 32.619 477.467 32.766 477.523 32.962C477.579 33.1533 477.607 33.4217 477.607 33.767V36H477.04V33.991ZM481.68 34.418H479.237C479.237 34.7587 479.26 35.0013 479.307 35.146C479.354 35.2907 479.454 35.3933 479.608 35.454C479.767 35.51 480.03 35.538 480.399 35.538C480.758 35.538 481.139 35.5123 481.54 35.461V35.958C481.391 35.986 481.197 36.0093 480.959 36.028C480.721 36.0467 480.495 36.056 480.28 36.056C479.799 36.056 479.445 36 479.216 35.888C478.992 35.776 478.845 35.5963 478.775 35.349C478.705 35.1017 478.67 34.726 478.67 34.222C478.67 33.7273 478.7 33.3563 478.761 33.109C478.826 32.8617 478.969 32.6773 479.188 32.556C479.412 32.4347 479.764 32.374 480.245 32.374C480.693 32.374 481.017 32.4347 481.218 32.556C481.419 32.6727 481.545 32.8523 481.596 33.095C481.652 33.333 481.68 33.7063 481.68 34.215V34.418ZM480.231 32.892C479.928 32.892 479.708 32.92 479.573 32.976C479.442 33.0273 479.354 33.1277 479.307 33.277C479.265 33.4217 479.242 33.6573 479.237 33.984H481.134V33.928C481.134 33.62 481.106 33.3937 481.05 33.249C480.999 33.1043 480.912 33.0087 480.791 32.962C480.67 32.9153 480.483 32.892 480.231 32.892Z" fill="#777777"/>
<path d="M590.268 16.3301L582.064 24.5332C581.332 25.2656 580.062 24.7529 580.062 23.7031V19.0156H573.422C572.772 19.0156 572.25 18.4932 572.25 17.8438V13.1563C572.25 12.5068 572.772 11.9844 573.422 11.9844H580.062V7.29688C580.062 6.25195 581.327 5.73438 582.064 6.4668L590.268 14.6699C590.722 15.1289 590.722 15.8711 590.268 16.3301ZM575.375 24.2891V22.3359C575.375 22.0137 575.111 21.75 574.789 21.75H570.688C569.823 21.75 569.125 21.0518 569.125 20.1875V10.8125C569.125 9.94824 569.823 9.25 570.688 9.25H574.789C575.111 9.25 575.375 8.98633 575.375 8.66406V6.71094C575.375 6.38867 575.111 6.125 574.789 6.125H570.688C568.1 6.125 566 8.22461 566 10.8125V20.1875C566 22.7754 568.1 24.875 570.688 24.875H574.789C575.111 24.875 575.375 24.6113 575.375 24.2891Z" fill="black"/>
<path d="M567.032 36V31.184H567.634V35.419H569.881V36H567.032ZM572.122 36.056C571.622 36.056 571.265 36.007 571.051 35.909C570.836 35.8063 570.698 35.636 570.638 35.398C570.582 35.1553 570.554 34.761 570.554 34.215C570.554 33.669 570.582 33.277 570.638 33.039C570.698 32.7963 570.836 32.626 571.051 32.528C571.265 32.4253 571.622 32.374 572.122 32.374C572.616 32.374 572.971 32.4253 573.186 32.528C573.4 32.626 573.536 32.7963 573.592 33.039C573.652 33.277 573.683 33.669 573.683 34.215C573.683 34.761 573.652 35.1553 573.592 35.398C573.536 35.636 573.4 35.8063 573.186 35.909C572.971 36.007 572.616 36.056 572.122 36.056ZM572.122 35.538C572.462 35.538 572.698 35.5077 572.829 35.447C572.959 35.3863 573.039 35.2767 573.067 35.118C573.099 34.9547 573.116 34.6537 573.116 34.215C573.116 33.7763 573.099 33.4777 573.067 33.319C573.039 33.1557 572.959 33.0437 572.829 32.983C572.698 32.9223 572.462 32.892 572.122 32.892C571.781 32.892 571.543 32.9223 571.408 32.983C571.277 33.0437 571.195 33.1557 571.163 33.319C571.135 33.4777 571.121 33.7763 571.121 34.215C571.121 34.6537 571.135 34.9547 571.163 35.118C571.195 35.2767 571.277 35.3863 571.408 35.447C571.543 35.5077 571.781 35.538 572.122 35.538ZM576.05 37.442C575.555 37.442 575.135 37.421 574.79 37.379V36.882C575.238 36.91 575.618 36.924 575.931 36.924C576.29 36.924 576.549 36.8913 576.708 36.826C576.871 36.7607 576.976 36.644 577.023 36.476C577.074 36.3127 577.1 36.049 577.1 35.685V35.531H577.065C576.976 35.713 576.836 35.8437 576.645 35.923C576.458 35.9977 576.215 36.035 575.917 36.035C575.557 36.035 575.284 35.9837 575.098 35.881C574.911 35.7737 574.78 35.5917 574.706 35.335C574.631 35.0783 574.594 34.705 574.594 34.215C574.594 33.7203 574.631 33.3447 574.706 33.088C574.785 32.8267 574.918 32.6423 575.105 32.535C575.291 32.4277 575.562 32.374 575.917 32.374C576.201 32.374 576.444 32.4137 576.645 32.493C576.85 32.5723 576.999 32.7193 577.093 32.934H577.135L577.156 32.43H577.667V35.545C577.667 36.049 577.629 36.4293 577.555 36.686C577.485 36.9427 577.335 37.1317 577.107 37.253C576.878 37.379 576.526 37.442 576.05 37.442ZM576.134 35.489C576.367 35.489 576.551 35.461 576.687 35.405C576.827 35.3443 576.925 35.2533 576.981 35.132C577.027 35.0293 577.058 34.908 577.072 34.768C577.09 34.628 577.1 34.4413 577.1 34.208C577.1 33.97 577.093 33.7857 577.079 33.655C577.069 33.5197 577.041 33.4053 576.995 33.312C576.934 33.172 576.834 33.0717 576.694 33.011C576.554 32.9503 576.367 32.92 576.134 32.92C575.835 32.92 575.62 32.9503 575.49 33.011C575.359 33.067 575.27 33.1813 575.224 33.354C575.182 33.522 575.161 33.8067 575.161 34.208C575.161 34.6047 575.182 34.8893 575.224 35.062C575.27 35.23 575.359 35.3443 575.49 35.405C575.62 35.461 575.835 35.489 576.134 35.489ZM581.945 36.056C581.446 36.056 581.089 36.007 580.874 35.909C580.659 35.8063 580.522 35.636 580.461 35.398C580.405 35.1553 580.377 34.761 580.377 34.215C580.377 33.669 580.405 33.277 580.461 33.039C580.522 32.7963 580.659 32.626 580.874 32.528C581.089 32.4253 581.446 32.374 581.945 32.374C582.44 32.374 582.794 32.4253 583.009 32.528C583.224 32.626 583.359 32.7963 583.415 33.039C583.476 33.277 583.506 33.669 583.506 34.215C583.506 34.761 583.476 35.1553 583.415 35.398C583.359 35.636 583.224 35.8063 583.009 35.909C582.794 36.007 582.44 36.056 581.945 36.056ZM581.945 35.538C582.286 35.538 582.521 35.5077 582.652 35.447C582.783 35.3863 582.862 35.2767 582.89 35.118C582.923 34.9547 582.939 34.6537 582.939 34.215C582.939 33.7763 582.923 33.4777 582.89 33.319C582.862 33.1557 582.783 33.0437 582.652 32.983C582.521 32.9223 582.286 32.892 581.945 32.892C581.604 32.892 581.366 32.9223 581.231 32.983C581.1 33.0437 581.019 33.1557 580.986 33.319C580.958 33.4777 580.944 33.7763 580.944 34.215C580.944 34.6537 580.958 34.9547 580.986 35.118C581.019 35.2767 581.1 35.3863 581.231 35.447C581.366 35.5077 581.604 35.538 581.945 35.538ZM587.014 35.496H586.972C586.893 35.678 586.762 35.818 586.58 35.916C586.398 36.0093 586.134 36.056 585.789 36.056C585.448 36.056 585.189 36.007 585.012 35.909C584.839 35.811 584.723 35.6663 584.662 35.475C584.601 35.279 584.571 35.0083 584.571 34.663V32.43H585.138V34.439C585.138 34.775 585.157 35.013 585.194 35.153C585.236 35.293 585.315 35.3863 585.432 35.433C585.549 35.4797 585.745 35.503 586.02 35.503C586.314 35.503 586.529 35.4563 586.664 35.363C586.804 35.2697 586.893 35.1413 586.93 34.978C586.967 34.81 586.986 34.5743 586.986 34.271V32.43H587.553V36H587.042L587.014 35.496ZM589.055 36V32.948H588.334V32.43H589.055V31.394H589.622V32.43H590.476V32.948H589.622V36H589.055Z" fill="black"/>
<g filter="url(#filter0_d_1:2)">
<rect x="262" y="240" width="77" height="20" rx="2" fill="#46AEDB"/>
</g>
<path d="M281.652 254.93C281.363 254.986 280.999 255.028 280.56 255.056C280.131 255.093 279.73 255.112 279.356 255.112C278.199 255.112 277.354 254.986 276.822 254.734C276.29 254.482 275.931 254.025 275.744 253.362C275.567 252.69 275.478 251.631 275.478 250.184C275.478 248.747 275.567 247.692 275.744 247.02C275.931 246.348 276.29 245.886 276.822 245.634C277.354 245.382 278.199 245.256 279.356 245.256C279.739 245.256 280.14 245.275 280.56 245.312C280.98 245.349 281.326 245.401 281.596 245.466V246.516C280.896 246.423 280.252 246.376 279.664 246.376C278.684 246.376 277.998 246.451 277.606 246.6C277.224 246.749 276.972 247.071 276.85 247.566C276.729 248.061 276.668 248.933 276.668 250.184C276.668 251.435 276.729 252.307 276.85 252.802C276.972 253.297 277.224 253.619 277.606 253.768C277.998 253.917 278.684 253.992 279.664 253.992C280.383 253.992 281.046 253.945 281.652 253.852V254.93ZM286.499 255.112C285.5 255.112 284.786 255.014 284.357 254.818C283.928 254.613 283.652 254.272 283.531 253.796C283.419 253.311 283.363 252.522 283.363 251.43C283.363 250.338 283.419 249.554 283.531 249.078C283.652 248.593 283.928 248.252 284.357 248.056C284.786 247.851 285.5 247.748 286.499 247.748C287.488 247.748 288.198 247.851 288.627 248.056C289.056 248.252 289.327 248.593 289.439 249.078C289.56 249.554 289.621 250.338 289.621 251.43C289.621 252.522 289.56 253.311 289.439 253.796C289.327 254.272 289.056 254.613 288.627 254.818C288.198 255.014 287.488 255.112 286.499 255.112ZM286.499 254.076C287.18 254.076 287.652 254.015 287.913 253.894C288.174 253.773 288.333 253.553 288.389 253.236C288.454 252.909 288.487 252.307 288.487 251.43C288.487 250.553 288.454 249.955 288.389 249.638C288.333 249.311 288.174 249.087 287.913 248.966C287.652 248.845 287.18 248.784 286.499 248.784C285.818 248.784 285.342 248.845 285.071 248.966C284.81 249.087 284.646 249.311 284.581 249.638C284.525 249.955 284.497 250.553 284.497 251.43C284.497 252.307 284.525 252.909 284.581 253.236C284.646 253.553 284.81 253.773 285.071 253.894C285.342 254.015 285.818 254.076 286.499 254.076ZM296.581 250.982C296.581 250.319 296.539 249.848 296.455 249.568C296.371 249.279 296.213 249.087 295.979 248.994C295.746 248.901 295.354 248.854 294.803 248.854C294.215 248.854 293.781 248.947 293.501 249.134C293.231 249.321 293.058 249.577 292.983 249.904C292.918 250.231 292.885 250.702 292.885 251.318V255H291.751V247.86H292.759L292.815 248.868H292.899C293.058 248.504 293.319 248.229 293.683 248.042C294.047 247.846 294.575 247.748 295.265 247.748C295.956 247.748 296.474 247.846 296.819 248.042C297.174 248.238 297.412 248.532 297.533 248.924C297.655 249.307 297.715 249.843 297.715 250.534V255H296.581V250.982ZM304.962 250.982C304.962 250.319 304.92 249.848 304.836 249.568C304.752 249.279 304.593 249.087 304.36 248.994C304.127 248.901 303.735 248.854 303.184 248.854C302.596 248.854 302.162 248.947 301.882 249.134C301.611 249.321 301.439 249.577 301.364 249.904C301.299 250.231 301.266 250.702 301.266 251.318V255H300.132V247.86H301.14L301.196 248.868H301.28C301.439 248.504 301.7 248.229 302.064 248.042C302.428 247.846 302.955 247.748 303.646 247.748C304.337 247.748 304.855 247.846 305.2 248.042C305.555 248.238 305.793 248.532 305.914 248.924C306.035 249.307 306.096 249.843 306.096 250.534V255H304.962V250.982ZM314.225 251.836H309.339C309.339 252.517 309.386 253.003 309.479 253.292C309.572 253.581 309.773 253.787 310.081 253.908C310.398 254.02 310.926 254.076 311.663 254.076C312.382 254.076 313.142 254.025 313.945 253.922V254.916C313.646 254.972 313.259 255.019 312.783 255.056C312.307 255.093 311.854 255.112 311.425 255.112C310.464 255.112 309.754 255 309.297 254.776C308.849 254.552 308.555 254.193 308.415 253.698C308.275 253.203 308.205 252.452 308.205 251.444C308.205 250.455 308.266 249.713 308.387 249.218C308.518 248.723 308.802 248.355 309.241 248.112C309.689 247.869 310.394 247.748 311.355 247.748C312.251 247.748 312.9 247.869 313.301 248.112C313.702 248.345 313.954 248.705 314.057 249.19C314.169 249.666 314.225 250.413 314.225 251.43V251.836ZM311.327 248.784C310.72 248.784 310.282 248.84 310.011 248.952C309.75 249.055 309.572 249.255 309.479 249.554C309.395 249.843 309.348 250.315 309.339 250.968H313.133V250.856C313.133 250.24 313.077 249.787 312.965 249.498C312.862 249.209 312.69 249.017 312.447 248.924C312.204 248.831 311.831 248.784 311.327 248.784ZM320.883 254.93C320.631 254.977 320.323 255.019 319.959 255.056C319.604 255.093 319.264 255.112 318.937 255.112C318.06 255.112 317.416 254.986 317.005 254.734C316.594 254.482 316.328 254.109 316.207 253.614C316.095 253.119 316.039 252.391 316.039 251.43C316.039 250.487 316.109 249.759 316.249 249.246C316.389 248.733 316.664 248.355 317.075 248.112C317.486 247.869 318.092 247.748 318.895 247.748C319.212 247.748 319.548 247.767 319.903 247.804C320.267 247.841 320.575 247.883 320.827 247.93V248.938C320.267 248.835 319.716 248.784 319.175 248.784C318.578 248.784 318.139 248.854 317.859 248.994C317.588 249.134 317.406 249.381 317.313 249.736C317.22 250.091 317.173 250.655 317.173 251.43C317.173 252.214 317.22 252.788 317.313 253.152C317.416 253.507 317.602 253.749 317.873 253.88C318.153 254.011 318.601 254.076 319.217 254.076C319.674 254.076 320.23 254.029 320.883 253.936V254.93ZM323.374 255V248.896H321.932V247.86H323.374V245.788H324.508V247.86H326.216V248.896H324.508V255H323.374Z" fill="white"/>
<path d="M233.753 163L233.097 160.92H229.177L228.553 163H225.769L229.289 151.992H233.065L236.585 163H233.753ZM231.161 154.456H231.081L229.817 158.664H232.441L231.161 154.456ZM239.124 163L236.692 154.84H239.316L240.82 160.632H240.98L242.452 154.84H245.028L242.596 163H239.124ZM248.054 163.128C247.254 163.128 246.662 162.936 246.278 162.552C245.894 162.168 245.702 161.539 245.702 160.664C245.702 160.024 245.776 159.528 245.926 159.176C246.075 158.824 246.331 158.568 246.694 158.408C247.067 158.248 247.6 158.168 248.294 158.168C248.816 158.168 249.568 158.189 250.55 158.232V157.944C250.55 157.539 250.502 157.256 250.406 157.096C250.32 156.925 250.15 156.819 249.894 156.776C249.648 156.733 249.206 156.712 248.566 156.712C247.766 156.712 246.971 156.755 246.182 156.84V154.984C247.184 154.803 248.251 154.712 249.382 154.712C250.502 154.712 251.323 154.829 251.846 155.064C252.379 155.299 252.726 155.645 252.886 156.104C253.046 156.563 253.126 157.224 253.126 158.088V163H250.662L250.598 162.056H250.47C250.192 162.493 249.856 162.781 249.462 162.92C249.067 163.059 248.598 163.128 248.054 163.128ZM249.27 161.256C249.568 161.256 249.803 161.224 249.974 161.16C250.144 161.096 250.278 160.984 250.374 160.824C250.491 160.621 250.55 160.291 250.55 159.832V159.512H249.094C248.806 159.512 248.598 159.533 248.47 159.576C248.342 159.619 248.251 159.704 248.198 159.832C248.155 159.949 248.134 160.147 248.134 160.424C248.134 160.659 248.16 160.835 248.214 160.952C248.267 161.069 248.368 161.149 248.518 161.192C248.678 161.235 248.928 161.256 249.27 161.256ZM255.085 153.224V151.112H257.725V153.224H255.085ZM255.101 163V154.84H257.709V163H255.101ZM259.664 163V151.112H262.272V163H259.664ZM266.21 163.128C265.41 163.128 264.818 162.936 264.434 162.552C264.05 162.168 263.858 161.539 263.858 160.664C263.858 160.024 263.933 159.528 264.082 159.176C264.231 158.824 264.487 158.568 264.85 158.408C265.223 158.248 265.757 158.168 266.45 158.168C266.973 158.168 267.725 158.189 268.706 158.232V157.944C268.706 157.539 268.658 157.256 268.562 157.096C268.477 156.925 268.306 156.819 268.05 156.776C267.805 156.733 267.362 156.712 266.722 156.712C265.922 156.712 265.127 156.755 264.338 156.84V154.984C265.341 154.803 266.407 154.712 267.538 154.712C268.658 154.712 269.479 154.829 270.002 155.064C270.535 155.299 270.882 155.645 271.042 156.104C271.202 156.563 271.282 157.224 271.282 158.088V163H268.818L268.754 162.056H268.626C268.349 162.493 268.013 162.781 267.618 162.92C267.223 163.059 266.754 163.128 266.21 163.128ZM267.426 161.256C267.725 161.256 267.959 161.224 268.13 161.16C268.301 161.096 268.434 160.984 268.53 160.824C268.647 160.621 268.706 160.291 268.706 159.832V159.512H267.25C266.962 159.512 266.754 159.533 266.626 159.576C266.498 159.619 266.407 159.704 266.354 159.832C266.311 159.949 266.29 160.147 266.29 160.424C266.29 160.659 266.317 160.835 266.37 160.952C266.423 161.069 266.525 161.149 266.674 161.192C266.834 161.235 267.085 161.256 267.426 161.256ZM278.217 163.128C277.684 163.128 277.22 163.053 276.825 162.904C276.441 162.744 276.137 162.456 275.913 162.04H275.769L275.705 163H273.257V151.112H275.833V155.704H275.961C276.196 155.32 276.495 155.064 276.857 154.936C277.231 154.797 277.689 154.728 278.233 154.728C278.895 154.728 279.412 154.856 279.785 155.112C280.169 155.357 280.447 155.784 280.617 156.392C280.799 157 280.889 157.848 280.889 158.936C280.889 160.035 280.799 160.888 280.617 161.496C280.436 162.093 280.153 162.515 279.769 162.76C279.396 163.005 278.879 163.128 278.217 163.128ZM277.065 160.952C277.481 160.952 277.769 160.915 277.929 160.84C278.089 160.755 278.191 160.584 278.233 160.328C278.287 160.061 278.313 159.592 278.313 158.92C278.313 158.248 278.287 157.784 278.233 157.528C278.191 157.272 278.089 157.107 277.929 157.032C277.769 156.947 277.481 156.904 277.065 156.904C276.767 156.904 276.537 156.936 276.377 157C276.228 157.053 276.111 157.16 276.025 157.32C275.951 157.48 275.897 157.683 275.865 157.928C275.844 158.173 275.833 158.504 275.833 158.92C275.833 159.336 275.844 159.672 275.865 159.928C275.897 160.173 275.951 160.371 276.025 160.52C276.111 160.68 276.228 160.792 276.377 160.856C276.537 160.92 276.767 160.952 277.065 160.952ZM282.57 163V151.112H285.178V163H282.57ZM294.3 159.56H289.42C289.42 160.072 289.458 160.429 289.532 160.632C289.618 160.835 289.794 160.968 290.06 161.032C290.338 161.096 290.828 161.128 291.532 161.128C292.29 161.128 293.106 161.085 293.98 161V162.84C293.639 162.925 293.18 162.995 292.604 163.048C292.039 163.101 291.479 163.128 290.924 163.128C289.676 163.128 288.764 162.995 288.188 162.728C287.623 162.451 287.26 162.035 287.1 161.48C286.94 160.925 286.86 160.077 286.86 158.936C286.86 157.816 286.94 156.973 287.1 156.408C287.26 155.843 287.607 155.421 288.14 155.144C288.684 154.856 289.532 154.712 290.684 154.712C291.836 154.712 292.663 154.851 293.164 155.128C293.676 155.395 293.991 155.8 294.108 156.344C294.236 156.877 294.3 157.741 294.3 158.936V159.56ZM290.668 156.584C290.284 156.584 290.007 156.621 289.836 156.696C289.666 156.771 289.554 156.92 289.5 157.144C289.447 157.357 289.42 157.72 289.42 158.232H291.884C291.884 157.72 291.852 157.352 291.788 157.128C291.724 156.904 291.612 156.76 291.452 156.696C291.292 156.621 291.031 156.584 290.668 156.584ZM309.367 158.696C309.367 158.109 309.345 157.699 309.303 157.464C309.26 157.219 309.175 157.064 309.047 157C308.919 156.936 308.689 156.904 308.359 156.904C308.017 156.904 307.772 156.952 307.623 157.048C307.484 157.144 307.388 157.315 307.335 157.56C307.292 157.805 307.271 158.2 307.271 158.744V163H304.711V158.696C304.711 158.109 304.689 157.699 304.647 157.464C304.604 157.219 304.519 157.064 304.391 157C304.263 156.936 304.033 156.904 303.703 156.904C303.372 156.904 303.132 156.957 302.983 157.064C302.833 157.16 302.732 157.331 302.679 157.576C302.636 157.811 302.615 158.2 302.615 158.744V163H300.039V154.84H302.487L302.551 155.816H302.679C303.095 155.08 303.852 154.712 304.951 154.712C305.58 154.712 306.06 154.803 306.391 154.984C306.721 155.155 306.961 155.432 307.111 155.816H307.255C307.671 155.08 308.439 154.712 309.559 154.712C310.22 154.712 310.721 154.835 311.063 155.08C311.404 155.315 311.633 155.656 311.751 156.104C311.879 156.552 311.943 157.149 311.943 157.896V163H309.367V158.696ZM315.882 163.128C315.082 163.128 314.49 162.936 314.106 162.552C313.722 162.168 313.53 161.539 313.53 160.664C313.53 160.024 313.605 159.528 313.754 159.176C313.903 158.824 314.159 158.568 314.522 158.408C314.895 158.248 315.429 158.168 316.122 158.168C316.645 158.168 317.397 158.189 318.378 158.232V157.944C318.378 157.539 318.33 157.256 318.234 157.096C318.149 156.925 317.978 156.819 317.722 156.776C317.477 156.733 317.034 156.712 316.394 156.712C315.594 156.712 314.799 156.755 314.01 156.84V154.984C315.013 154.803 316.079 154.712 317.21 154.712C318.33 154.712 319.151 154.829 319.674 155.064C320.207 155.299 320.554 155.645 320.714 156.104C320.874 156.563 320.954 157.224 320.954 158.088V163H318.49L318.426 162.056H318.298C318.021 162.493 317.685 162.781 317.29 162.92C316.895 163.059 316.426 163.128 315.882 163.128ZM317.098 161.256C317.397 161.256 317.631 161.224 317.802 161.16C317.973 161.096 318.106 160.984 318.202 160.824C318.319 160.621 318.378 160.291 318.378 159.832V159.512H316.922C316.634 159.512 316.426 159.533 316.298 159.576C316.17 159.619 316.079 159.704 316.026 159.832C315.983 159.949 315.962 160.147 315.962 160.424C315.962 160.659 315.989 160.835 316.042 160.952C316.095 161.069 316.197 161.149 316.346 161.192C316.506 161.235 316.757 161.256 317.098 161.256ZM328.689 162.856C327.889 163.037 327.062 163.128 326.209 163.128C325.132 163.128 324.337 162.973 323.825 162.664C323.324 162.344 323.004 161.901 322.865 161.336C322.726 160.771 322.657 159.965 322.657 158.92C322.657 157.907 322.726 157.117 322.865 156.552C323.014 155.976 323.34 155.528 323.841 155.208C324.353 154.877 325.137 154.712 326.193 154.712C327.11 154.712 327.921 154.803 328.625 154.984V156.84C328.049 156.755 327.468 156.712 326.881 156.712C326.38 156.712 326.017 156.771 325.793 156.888C325.58 156.995 325.436 157.192 325.361 157.48C325.297 157.768 325.265 158.248 325.265 158.92C325.265 159.592 325.297 160.077 325.361 160.376C325.436 160.664 325.58 160.861 325.793 160.968C326.017 161.075 326.385 161.128 326.897 161.128C327.462 161.128 328.06 161.085 328.689 161V162.856ZM335.2 158.696C335.2 158.099 335.173 157.683 335.12 157.448C335.077 157.213 334.987 157.064 334.848 157C334.709 156.936 334.453 156.904 334.08 156.904C333.717 156.904 333.451 156.957 333.28 157.064C333.12 157.16 333.013 157.331 332.96 157.576C332.907 157.821 332.88 158.211 332.88 158.744V163H330.304V151.112H332.88V155.784H333.008C333.232 155.4 333.536 155.128 333.92 154.968C334.315 154.797 334.779 154.712 335.312 154.712C336.005 154.712 336.528 154.835 336.88 155.08C337.243 155.315 337.483 155.656 337.6 156.104C337.717 156.541 337.776 157.139 337.776 157.896V163H335.2V158.696ZM339.71 153.224V151.112H342.35V153.224H339.71ZM339.726 163V154.84H342.334V163H339.726ZM349.185 158.696C349.185 158.099 349.158 157.683 349.105 157.448C349.062 157.213 348.971 157.064 348.833 157C348.694 156.936 348.438 156.904 348.065 156.904C347.702 156.904 347.435 156.957 347.265 157.064C347.105 157.16 346.998 157.331 346.945 157.576C346.891 157.821 346.865 158.211 346.865 158.744V163H344.289V154.84H346.737L346.801 155.816H346.945C347.361 155.08 348.145 154.712 349.297 154.712C349.99 154.712 350.513 154.835 350.865 155.08C351.227 155.315 351.467 155.656 351.585 156.104C351.702 156.541 351.76 157.139 351.76 157.896V163H349.185V158.696ZM360.878 159.56H355.998C355.998 160.072 356.036 160.429 356.11 160.632C356.196 160.835 356.372 160.968 356.638 161.032C356.916 161.096 357.406 161.128 358.11 161.128C358.868 161.128 359.684 161.085 360.558 161V162.84C360.217 162.925 359.758 162.995 359.182 163.048C358.617 163.101 358.057 163.128 357.502 163.128C356.254 163.128 355.342 162.995 354.766 162.728C354.201 162.451 353.838 162.035 353.678 161.48C353.518 160.925 353.438 160.077 353.438 158.936C353.438 157.816 353.518 156.973 353.678 156.408C353.838 155.843 354.185 155.421 354.718 155.144C355.262 154.856 356.11 154.712 357.262 154.712C358.414 154.712 359.241 154.851 359.742 155.128C360.254 155.395 360.569 155.8 360.686 156.344C360.814 156.877 360.878 157.741 360.878 158.936V159.56ZM357.246 156.584C356.862 156.584 356.585 156.621 356.414 156.696C356.244 156.771 356.132 156.92 356.078 157.144C356.025 157.357 355.998 157.72 355.998 158.232H358.462C358.462 157.72 358.43 157.352 358.366 157.128C358.302 156.904 358.19 156.76 358.03 156.696C357.87 156.621 357.609 156.584 357.246 156.584ZM365.753 163.128C365.241 163.128 364.676 163.107 364.057 163.064C363.449 163.021 362.916 162.968 362.457 162.904V161.048C363.375 161.133 364.217 161.176 364.985 161.176C365.497 161.176 365.86 161.16 366.073 161.128C366.287 161.096 366.42 161.043 366.473 160.968C366.537 160.883 366.569 160.744 366.569 160.552C366.569 160.392 366.548 160.28 366.505 160.216C366.473 160.141 366.404 160.088 366.297 160.056C366.191 160.024 366.004 159.992 365.737 159.96L363.833 159.72C363.193 159.635 362.761 159.395 362.537 159C362.324 158.595 362.217 157.992 362.217 157.192C362.217 156.477 362.356 155.944 362.633 155.592C362.911 155.229 363.284 154.995 363.753 154.888C364.233 154.771 364.852 154.712 365.609 154.712C366.132 154.712 366.665 154.733 367.209 154.776C367.753 154.819 368.191 154.877 368.521 154.952V156.792C367.647 156.707 366.863 156.664 366.169 156.664C365.7 156.664 365.364 156.675 365.161 156.696C364.959 156.717 364.815 156.771 364.729 156.856C364.655 156.931 364.617 157.059 364.617 157.24C364.617 157.4 364.628 157.512 364.649 157.576C364.681 157.64 364.745 157.688 364.841 157.72C364.948 157.752 365.119 157.784 365.353 157.816L367.241 158.04C367.657 158.093 367.983 158.189 368.217 158.328C368.452 158.456 368.633 158.691 368.761 159.032C368.9 159.363 368.969 159.848 368.969 160.488C368.969 161.245 368.836 161.816 368.569 162.2C368.313 162.584 367.961 162.835 367.513 162.952C367.065 163.069 366.479 163.128 365.753 163.128ZM370.602 157.224V154.84H373.338V157.224H370.602ZM370.602 163V160.632H373.338V163H370.602Z" fill="black"/>
<path d="M356.496 225.112C355.478 225.112 354.699 225.014 354.158 224.818C353.616 224.613 353.248 224.319 353.052 223.936C352.856 223.553 352.758 223.049 352.758 222.424C352.758 221.892 352.823 221.472 352.954 221.164C353.084 220.856 353.271 220.627 353.514 220.478C353.766 220.329 354.097 220.207 354.508 220.114V220.058C353.929 219.946 353.504 219.713 353.234 219.358C352.972 219.003 352.842 218.481 352.842 217.79C352.842 217.193 352.949 216.712 353.164 216.348C353.378 215.984 353.752 215.713 354.284 215.536C354.816 215.349 355.553 215.256 356.496 215.256C357.448 215.256 358.185 215.349 358.708 215.536C359.24 215.713 359.613 215.984 359.828 216.348C360.042 216.712 360.15 217.193 360.15 217.79C360.15 218.481 360.014 219.003 359.744 219.358C359.482 219.713 359.062 219.946 358.484 220.058V220.114C358.904 220.207 359.235 220.329 359.478 220.478C359.73 220.627 359.916 220.856 360.038 221.164C360.168 221.472 360.234 221.892 360.234 222.424C360.234 223.049 360.136 223.553 359.94 223.936C359.744 224.319 359.375 224.613 358.834 224.818C358.292 225.014 357.513 225.112 356.496 225.112ZM356.496 219.582C357.177 219.582 357.686 219.54 358.022 219.456C358.367 219.363 358.605 219.204 358.736 218.98C358.876 218.756 358.946 218.425 358.946 217.986C358.946 217.529 358.88 217.193 358.75 216.978C358.628 216.754 358.395 216.6 358.05 216.516C357.714 216.423 357.196 216.376 356.496 216.376C355.805 216.376 355.292 216.418 354.956 216.502C354.62 216.586 354.386 216.74 354.256 216.964C354.134 217.188 354.074 217.529 354.074 217.986C354.074 218.434 354.139 218.77 354.27 218.994C354.4 219.209 354.634 219.363 354.97 219.456C355.315 219.54 355.824 219.582 356.496 219.582ZM356.496 223.992C357.186 223.992 357.704 223.955 358.05 223.88C358.404 223.796 358.656 223.642 358.806 223.418C358.955 223.194 359.03 222.844 359.03 222.368C359.03 221.864 358.96 221.495 358.82 221.262C358.68 221.029 358.437 220.875 358.092 220.8C357.746 220.716 357.214 220.674 356.496 220.674C355.777 220.674 355.245 220.716 354.9 220.8C354.564 220.875 354.326 221.029 354.186 221.262C354.055 221.495 353.99 221.864 353.99 222.368C353.99 222.844 354.06 223.194 354.2 223.418C354.349 223.642 354.596 223.796 354.942 223.88C355.287 223.955 355.805 223.992 356.496 223.992Z" fill="#7CCB19"/>
<path d="M297.21 193L292.128 185.636H292.072V193H290.91V183.368H292.142L297.154 190.564H297.21V183.368H298.358V193H297.21ZM303.81 193.112C302.811 193.112 302.097 193.014 301.668 192.818C301.238 192.613 300.963 192.272 300.842 191.796C300.73 191.311 300.674 190.522 300.674 189.43C300.674 188.338 300.73 187.554 300.842 187.078C300.963 186.593 301.238 186.252 301.668 186.056C302.097 185.851 302.811 185.748 303.81 185.748C304.799 185.748 305.508 185.851 305.938 186.056C306.367 186.252 306.638 186.593 306.75 187.078C306.871 187.554 306.932 188.338 306.932 189.43C306.932 190.522 306.871 191.311 306.75 191.796C306.638 192.272 306.367 192.613 305.938 192.818C305.508 193.014 304.799 193.112 303.81 193.112ZM303.81 192.076C304.491 192.076 304.962 192.015 305.224 191.894C305.485 191.773 305.644 191.553 305.7 191.236C305.765 190.909 305.798 190.307 305.798 189.43C305.798 188.553 305.765 187.955 305.7 187.638C305.644 187.311 305.485 187.087 305.224 186.966C304.962 186.845 304.491 186.784 303.81 186.784C303.128 186.784 302.652 186.845 302.382 186.966C302.12 187.087 301.957 187.311 301.892 187.638C301.836 187.955 301.808 188.553 301.808 189.43C301.808 190.307 301.836 190.909 301.892 191.236C301.957 191.553 302.12 191.773 302.382 191.894C302.652 192.015 303.128 192.076 303.81 192.076ZM309.062 185.86H310.07L310.126 187.218H310.21C310.378 186.658 310.658 186.275 311.05 186.07C311.442 185.855 311.955 185.748 312.59 185.748V186.966C311.946 186.966 311.451 187.064 311.106 187.26C310.76 187.456 310.522 187.759 310.392 188.17C310.261 188.571 310.196 189.117 310.196 189.808V193H309.062V185.86ZM322.994 188.982C322.994 188.31 322.957 187.834 322.882 187.554C322.817 187.274 322.682 187.087 322.476 186.994C322.271 186.901 321.926 186.854 321.44 186.854C320.918 186.854 320.535 186.943 320.292 187.12C320.05 187.297 319.896 187.549 319.83 187.876C319.765 188.203 319.732 188.683 319.732 189.318V193H318.598V188.982C318.598 188.31 318.561 187.834 318.486 187.554C318.421 187.274 318.286 187.087 318.08 186.994C317.875 186.901 317.53 186.854 317.044 186.854C316.522 186.854 316.139 186.947 315.896 187.134C315.654 187.311 315.5 187.568 315.434 187.904C315.369 188.231 315.336 188.702 315.336 189.318V193H314.202V185.86H315.21L315.266 186.868H315.35C315.49 186.504 315.728 186.229 316.064 186.042C316.41 185.846 316.895 185.748 317.52 185.748C318.136 185.748 318.603 185.837 318.92 186.014C319.238 186.191 319.457 186.476 319.578 186.868H319.676C319.975 186.121 320.717 185.748 321.902 185.748C322.528 185.748 322.999 185.846 323.316 186.042C323.634 186.238 323.848 186.532 323.96 186.924C324.072 187.307 324.128 187.843 324.128 188.534V193H322.994V188.982ZM328.466 193.112C327.644 193.112 327.047 192.963 326.674 192.664C326.3 192.356 326.114 191.815 326.114 191.04C326.114 190.489 326.179 190.06 326.31 189.752C326.44 189.444 326.66 189.22 326.968 189.08C327.285 188.94 327.728 188.87 328.298 188.87C328.568 188.87 329.46 188.893 330.972 188.94V188.52C330.972 187.96 330.916 187.563 330.804 187.33C330.701 187.097 330.505 186.947 330.216 186.882C329.936 186.817 329.455 186.784 328.774 186.784C328.475 186.784 328.097 186.803 327.64 186.84C327.192 186.868 326.842 186.901 326.59 186.938V185.944C327.327 185.813 328.19 185.748 329.18 185.748C330.02 185.748 330.645 185.837 331.056 186.014C331.476 186.182 331.756 186.462 331.896 186.854C332.036 187.237 332.106 187.797 332.106 188.534V193H331.084L331.028 192.006H330.944C330.748 192.454 330.43 192.753 329.992 192.902C329.562 193.042 329.054 193.112 328.466 193.112ZM328.9 192.09C329.366 192.09 329.744 192.048 330.034 191.964C330.332 191.88 330.547 191.717 330.678 191.474C330.874 191.138 330.972 190.671 330.972 190.074V189.752H328.592C328.2 189.752 327.91 189.78 327.724 189.836C327.546 189.892 327.42 190.004 327.346 190.172C327.271 190.331 327.234 190.583 327.234 190.928C327.234 191.264 327.276 191.511 327.36 191.67C327.444 191.829 327.598 191.941 327.822 192.006C328.055 192.062 328.414 192.09 328.9 192.09ZM334.546 193V182.598H335.68V193H334.546ZM337.779 187.288V185.86H339.109V187.288H337.779ZM337.779 193V191.572H339.109V193H337.779Z" fill="black"/>
<path d="M234.295 220.884V219.778H237.627V224.832C237.169 224.916 236.651 224.981 236.073 225.028C235.503 225.084 234.999 225.112 234.561 225.112C233.385 225.112 232.512 224.986 231.943 224.734C231.383 224.473 230.995 224.006 230.781 223.334C230.575 222.653 230.473 221.603 230.473 220.184C230.473 218.775 230.58 217.729 230.795 217.048C231.009 216.367 231.397 215.9 231.957 215.648C232.526 215.387 233.394 215.256 234.561 215.256C235.018 215.256 235.527 215.284 236.087 215.34C236.656 215.396 237.155 215.461 237.585 215.536V216.6C236.521 216.451 235.709 216.376 235.149 216.376C234.038 216.376 233.263 216.437 232.825 216.558C232.395 216.679 232.092 216.997 231.915 217.51C231.747 218.023 231.663 218.915 231.663 220.184C231.663 221.36 231.728 222.205 231.859 222.718C231.989 223.231 232.251 223.577 232.643 223.754C233.035 223.931 233.679 224.02 234.575 224.02C234.855 224.02 235.181 224.011 235.555 223.992C235.928 223.964 236.231 223.936 236.465 223.908V220.884H234.295ZM240.269 215.368H244.497C245.272 215.368 245.86 215.494 246.261 215.746C246.662 215.998 246.928 216.339 247.059 216.768C247.19 217.197 247.255 217.753 247.255 218.434C247.255 219.087 247.19 219.633 247.059 220.072C246.928 220.501 246.658 220.847 246.247 221.108C245.846 221.369 245.253 221.5 244.469 221.5H241.473V225H240.269V215.368ZM244.063 220.38C244.67 220.38 245.113 220.319 245.393 220.198C245.673 220.067 245.855 219.871 245.939 219.61C246.023 219.349 246.065 218.957 246.065 218.434C246.065 217.911 246.023 217.519 245.939 217.258C245.864 216.997 245.687 216.805 245.407 216.684C245.136 216.553 244.698 216.488 244.091 216.488H241.473V220.38H244.063ZM256.64 215.368V220.786C256.64 222.037 256.561 222.956 256.402 223.544C256.243 224.123 255.912 224.529 255.408 224.762C254.904 224.995 254.092 225.112 252.972 225.112C251.852 225.112 251.04 224.995 250.536 224.762C250.032 224.519 249.696 224.109 249.528 223.53C249.369 222.951 249.29 222.037 249.29 220.786V215.368H250.48V221.248C250.48 222.088 250.527 222.685 250.62 223.04C250.713 223.395 250.928 223.642 251.264 223.782C251.6 223.922 252.169 223.992 252.972 223.992C253.775 223.992 254.339 223.922 254.666 223.782C255.002 223.642 255.212 223.399 255.296 223.054C255.389 222.699 255.436 222.097 255.436 221.248V215.368H256.64ZM269.161 225L268.167 222.438H263.827L262.833 225H261.615L265.255 215.368H266.767L270.407 225H269.161ZM266.025 216.67H265.955L264.191 221.304H267.789L266.025 216.67ZM276.547 224.93C276.295 224.977 275.987 225.019 275.623 225.056C275.268 225.093 274.928 225.112 274.601 225.112C273.724 225.112 273.08 224.986 272.669 224.734C272.258 224.482 271.992 224.109 271.871 223.614C271.759 223.119 271.703 222.391 271.703 221.43C271.703 220.487 271.773 219.759 271.913 219.246C272.053 218.733 272.328 218.355 272.739 218.112C273.15 217.869 273.756 217.748 274.559 217.748C274.876 217.748 275.212 217.767 275.567 217.804C275.931 217.841 276.239 217.883 276.491 217.93V218.938C275.931 218.835 275.38 218.784 274.839 218.784C274.242 218.784 273.803 218.854 273.523 218.994C273.252 219.134 273.07 219.381 272.977 219.736C272.884 220.091 272.837 220.655 272.837 221.43C272.837 222.214 272.884 222.788 272.977 223.152C273.08 223.507 273.266 223.749 273.537 223.88C273.817 224.011 274.265 224.076 274.881 224.076C275.338 224.076 275.894 224.029 276.547 223.936V224.93ZM282.986 224.93C282.734 224.977 282.426 225.019 282.062 225.056C281.708 225.093 281.367 225.112 281.04 225.112C280.163 225.112 279.519 224.986 279.108 224.734C278.698 224.482 278.432 224.109 278.31 223.614C278.198 223.119 278.142 222.391 278.142 221.43C278.142 220.487 278.212 219.759 278.352 219.246C278.492 218.733 278.768 218.355 279.178 218.112C279.589 217.869 280.196 217.748 280.998 217.748C281.316 217.748 281.652 217.767 282.006 217.804C282.37 217.841 282.678 217.883 282.93 217.93V218.938C282.37 218.835 281.82 218.784 281.278 218.784C280.681 218.784 280.242 218.854 279.962 218.994C279.692 219.134 279.51 219.381 279.416 219.736C279.323 220.091 279.276 220.655 279.276 221.43C279.276 222.214 279.323 222.788 279.416 223.152C279.519 223.507 279.706 223.749 279.976 223.88C280.256 224.011 280.704 224.076 281.32 224.076C281.778 224.076 282.333 224.029 282.986 223.936V224.93ZM290.602 221.836H285.716C285.716 222.517 285.763 223.003 285.856 223.292C285.949 223.581 286.15 223.787 286.458 223.908C286.775 224.02 287.303 224.076 288.04 224.076C288.759 224.076 289.519 224.025 290.322 223.922V224.916C290.023 224.972 289.636 225.019 289.16 225.056C288.684 225.093 288.231 225.112 287.802 225.112C286.841 225.112 286.131 225 285.674 224.776C285.226 224.552 284.932 224.193 284.792 223.698C284.652 223.203 284.582 222.452 284.582 221.444C284.582 220.455 284.643 219.713 284.764 219.218C284.895 218.723 285.179 218.355 285.618 218.112C286.066 217.869 286.771 217.748 287.732 217.748C288.628 217.748 289.277 217.869 289.678 218.112C290.079 218.345 290.331 218.705 290.434 219.19C290.546 219.666 290.602 220.413 290.602 221.43V221.836ZM287.704 218.784C287.097 218.784 286.659 218.84 286.388 218.952C286.127 219.055 285.949 219.255 285.856 219.554C285.772 219.843 285.725 220.315 285.716 220.968H289.51V220.856C289.51 220.24 289.454 219.787 289.342 219.498C289.239 219.209 289.067 219.017 288.824 218.924C288.581 218.831 288.208 218.784 287.704 218.784ZM292.724 225V214.598H293.858V225H292.724ZM301.991 221.836H297.105C297.105 222.517 297.151 223.003 297.245 223.292C297.338 223.581 297.539 223.787 297.847 223.908C298.164 224.02 298.691 224.076 299.429 224.076C300.147 224.076 300.908 224.025 301.711 223.922V224.916C301.412 224.972 301.025 225.019 300.549 225.056C300.073 225.093 299.62 225.112 299.191 225.112C298.229 225.112 297.52 225 297.063 224.776C296.615 224.552 296.321 224.193 296.181 223.698C296.041 223.203 295.971 222.452 295.971 221.444C295.971 220.455 296.031 219.713 296.153 219.218C296.283 218.723 296.568 218.355 297.007 218.112C297.455 217.869 298.159 217.748 299.121 217.748C300.017 217.748 300.665 217.869 301.067 218.112C301.468 218.345 301.72 218.705 301.823 219.19C301.935 219.666 301.991 220.413 301.991 221.43V221.836ZM299.093 218.784C298.486 218.784 298.047 218.84 297.777 218.952C297.515 219.055 297.338 219.255 297.245 219.554C297.161 219.843 297.114 220.315 297.105 220.968H300.899V220.856C300.899 220.24 300.843 219.787 300.731 219.498C300.628 219.209 300.455 219.017 300.213 218.924C299.97 218.831 299.597 218.784 299.093 218.784ZM304.113 217.86H305.121L305.177 219.218H305.261C305.429 218.658 305.709 218.275 306.101 218.07C306.493 217.855 307.006 217.748 307.641 217.748V218.966C306.997 218.966 306.502 219.064 306.157 219.26C305.811 219.456 305.573 219.759 305.443 220.17C305.312 220.571 305.247 221.117 305.247 221.808V225H304.113V217.86ZM311.02 225.112C310.199 225.112 309.602 224.963 309.228 224.664C308.855 224.356 308.668 223.815 308.668 223.04C308.668 222.489 308.734 222.06 308.864 221.752C308.995 221.444 309.214 221.22 309.522 221.08C309.84 220.94 310.283 220.87 310.852 220.87C311.123 220.87 312.014 220.893 313.526 220.94V220.52C313.526 219.96 313.47 219.563 313.358 219.33C313.256 219.097 313.06 218.947 312.77 218.882C312.49 218.817 312.01 218.784 311.328 218.784C311.03 218.784 310.652 218.803 310.194 218.84C309.746 218.868 309.396 218.901 309.144 218.938V217.944C309.882 217.813 310.745 217.748 311.734 217.748C312.574 217.748 313.2 217.837 313.61 218.014C314.03 218.182 314.31 218.462 314.45 218.854C314.59 219.237 314.66 219.797 314.66 220.534V225H313.638L313.582 224.006H313.498C313.302 224.454 312.985 224.753 312.546 224.902C312.117 225.042 311.608 225.112 311.02 225.112ZM311.454 224.09C311.921 224.09 312.299 224.048 312.588 223.964C312.887 223.88 313.102 223.717 313.232 223.474C313.428 223.138 313.526 222.671 313.526 222.074V221.752H311.146C310.754 221.752 310.465 221.78 310.278 221.836C310.101 221.892 309.975 222.004 309.9 222.172C309.826 222.331 309.788 222.583 309.788 222.928C309.788 223.264 309.83 223.511 309.914 223.67C309.998 223.829 310.152 223.941 310.376 224.006C310.61 224.062 310.969 224.09 311.454 224.09ZM317.62 225V218.896H316.178V217.86H317.62V215.788H318.754V217.86H320.462V218.896H318.754V225H317.62ZM327.707 221.836H322.821C322.821 222.517 322.868 223.003 322.961 223.292C323.055 223.581 323.255 223.787 323.563 223.908C323.881 224.02 324.408 224.076 325.145 224.076C325.864 224.076 326.625 224.025 327.427 223.922V224.916C327.129 224.972 326.741 225.019 326.265 225.056C325.789 225.093 325.337 225.112 324.907 225.112C323.946 225.112 323.237 225 322.779 224.776C322.331 224.552 322.037 224.193 321.897 223.698C321.757 223.203 321.687 222.452 321.687 221.444C321.687 220.455 321.748 219.713 321.869 219.218C322 218.723 322.285 218.355 322.723 218.112C323.171 217.869 323.876 217.748 324.837 217.748C325.733 217.748 326.382 217.869 326.783 218.112C327.185 218.345 327.437 218.705 327.539 219.19C327.651 219.666 327.707 220.413 327.707 221.43V221.836ZM324.809 218.784C324.203 218.784 323.764 218.84 323.493 218.952C323.232 219.055 323.055 219.255 322.961 219.554C322.877 219.843 322.831 220.315 322.821 220.968H326.615V220.856C326.615 220.24 326.559 219.787 326.447 219.498C326.345 219.209 326.172 219.017 325.929 218.924C325.687 218.831 325.313 218.784 324.809 218.784ZM332.167 225.112C331.458 225.112 330.917 225.005 330.543 224.79C330.17 224.575 329.904 224.211 329.745 223.698C329.596 223.175 329.521 222.424 329.521 221.444C329.521 220.455 329.596 219.699 329.745 219.176C329.895 218.653 330.151 218.285 330.515 218.07C330.889 217.855 331.425 217.748 332.125 217.748C332.741 217.748 333.236 217.823 333.609 217.972C333.992 218.121 334.272 218.383 334.449 218.756H334.533V214.598H335.667V225H334.645L334.603 224.006H334.519C334.323 224.435 334.025 224.729 333.623 224.888C333.222 225.037 332.737 225.112 332.167 225.112ZM332.601 224.02C333.087 224.02 333.469 223.959 333.749 223.838C334.029 223.707 334.221 223.507 334.323 223.236C334.417 223.021 334.473 222.779 334.491 222.508C334.519 222.228 334.533 221.845 334.533 221.36C334.533 220.959 334.519 220.627 334.491 220.366C334.463 220.105 334.412 219.881 334.337 219.694C334.225 219.405 334.025 219.195 333.735 219.064C333.455 218.924 333.068 218.854 332.573 218.854C331.985 218.854 331.561 218.915 331.299 219.036C331.047 219.148 330.875 219.377 330.781 219.722C330.697 220.067 330.655 220.637 330.655 221.43C330.655 222.242 330.697 222.821 330.781 223.166C330.875 223.511 331.047 223.74 331.299 223.852C331.561 223.964 331.995 224.02 332.601 224.02ZM337.779 219.288V217.86H339.109V219.288H337.779ZM337.779 225V223.572H339.109V225H337.779Z" fill="black"/>
<path d="M356.496 193.112C355.478 193.112 354.699 193.014 354.158 192.818C353.616 192.613 353.248 192.319 353.052 191.936C352.856 191.553 352.758 191.049 352.758 190.424C352.758 189.892 352.823 189.472 352.954 189.164C353.084 188.856 353.271 188.627 353.514 188.478C353.766 188.329 354.097 188.207 354.508 188.114V188.058C353.929 187.946 353.504 187.713 353.234 187.358C352.972 187.003 352.842 186.481 352.842 185.79C352.842 185.193 352.949 184.712 353.164 184.348C353.378 183.984 353.752 183.713 354.284 183.536C354.816 183.349 355.553 183.256 356.496 183.256C357.448 183.256 358.185 183.349 358.708 183.536C359.24 183.713 359.613 183.984 359.828 184.348C360.042 184.712 360.15 185.193 360.15 185.79C360.15 186.481 360.014 187.003 359.744 187.358C359.482 187.713 359.062 187.946 358.484 188.058V188.114C358.904 188.207 359.235 188.329 359.478 188.478C359.73 188.627 359.916 188.856 360.038 189.164C360.168 189.472 360.234 189.892 360.234 190.424C360.234 191.049 360.136 191.553 359.94 191.936C359.744 192.319 359.375 192.613 358.834 192.818C358.292 193.014 357.513 193.112 356.496 193.112ZM356.496 187.582C357.177 187.582 357.686 187.54 358.022 187.456C358.367 187.363 358.605 187.204 358.736 186.98C358.876 186.756 358.946 186.425 358.946 185.986C358.946 185.529 358.88 185.193 358.75 184.978C358.628 184.754 358.395 184.6 358.05 184.516C357.714 184.423 357.196 184.376 356.496 184.376C355.805 184.376 355.292 184.418 354.956 184.502C354.62 184.586 354.386 184.74 354.256 184.964C354.134 185.188 354.074 185.529 354.074 185.986C354.074 186.434 354.139 186.77 354.27 186.994C354.4 187.209 354.634 187.363 354.97 187.456C355.315 187.54 355.824 187.582 356.496 187.582ZM356.496 191.992C357.186 191.992 357.704 191.955 358.05 191.88C358.404 191.796 358.656 191.642 358.806 191.418C358.955 191.194 359.03 190.844 359.03 190.368C359.03 189.864 358.96 189.495 358.82 189.262C358.68 189.029 358.437 188.875 358.092 188.8C357.746 188.716 357.214 188.674 356.496 188.674C355.777 188.674 355.245 188.716 354.9 188.8C354.564 188.875 354.326 189.029 354.186 189.262C354.055 189.495 353.99 189.864 353.99 190.368C353.99 190.844 354.06 191.194 354.2 191.418C354.349 191.642 354.596 191.796 354.942 191.88C355.287 191.955 355.805 191.992 356.496 191.992Z" fill="#7CCB19"/>
<defs>
<filter id="filter0_d_1:2" x="258" y="240" width="85" height="28" filterUnits="userSpaceOnUse" color-interpolation-filters="sRGB">
<feFlood flood-opacity="0" result="BackgroundImageFix"/>
<feColorMatrix in="SourceAlpha" type="matrix" values="0 0 0 0 0 0 0 0 0 0 0 0 0 0 0 0 0 0 127 0" result="hardAlpha"/>
<feOffset dy="4"/>
<feGaussianBlur stdDeviation="2"/>
<feComposite in2="hardAlpha" operator="out"/>
<feColorMatrix type="matrix" values="0 0 0 0 0 0 0 0 0 0 0 0 0 0 0 0 0 0 0.25 0"/>
<feBlend mode="normal" in2="BackgroundImageFix" result="effect1_dropShadow_1:2"/>
<feBlend mode="normal" in="SourceGraphic" in2="effect1_dropShadow_1:2" result="shape"/>
</filter>
<clipPath id="clip0_1:2">
<rect width="25" height="26" fill="white" transform="translate(460 3)"/>
</clipPath>
</defs>
</svg>
