<svg width="600" height="400" viewBox="0 0 600 400" fill="none" xmlns="http://www.w3.org/2000/svg">
<rect width="600" height="400" fill="#ECE8E8"/>
<rect width="600" height="40" fill="#C4C4C4"/>
<path d="M18.7871 30.208C16.4125 30.208 14.7311 29.974 13.7431 29.506C12.7551 29.038 12.1225 28.2233 11.8451 27.062C11.5851 25.8833 11.4551 23.8813 11.4551 21.056C11.4551 18.2307 11.5851 16.2373 11.8451 15.076C12.1225 13.8973 12.7551 13.074 13.7431 12.606C14.7311 12.138 16.4125 11.904 18.7871 11.904C21.1445 11.904 22.8171 12.138 23.8051 12.606C24.8105 13.074 25.4431 13.8973 25.7031 15.076C25.9805 16.2373 26.1191 18.2307 26.1191 21.056C26.1191 23.8813 25.9805 25.8833 25.7031 27.062C25.4431 28.2233 24.8105 29.038 23.8051 29.506C22.8171 29.974 21.1445 30.208 18.7871 30.208ZM18.7871 28.128C20.5551 28.128 21.7511 28.0153 22.3751 27.79C22.9991 27.5647 23.4065 27.0013 23.5971 26.1C23.7878 25.1987 23.8831 23.5173 23.8831 21.056C23.8831 18.5947 23.7878 16.9133 23.5971 16.012C23.4065 15.1107 22.9991 14.5473 22.3751 14.322C21.7511 14.0967 20.5551 13.984 18.7871 13.984C17.0191 13.984 15.8145 14.0967 15.1731 14.322C14.5491 14.5473 14.1418 15.1107 13.9511 16.012C13.7605 16.9133 13.6651 18.5947 13.6651 21.056C13.6651 23.5173 13.7605 25.1987 13.9511 26.1C14.1418 27.0013 14.5491 27.5647 15.1731 27.79C15.8145 28.0153 17.0191 28.128 18.7871 28.128ZM39.3472 22.538C39.3472 21.3073 39.2692 20.432 39.1132 19.912C38.9572 19.3747 38.6626 19.0193 38.2292 18.846C37.7959 18.6727 37.0679 18.586 36.0452 18.586C34.9532 18.586 34.1472 18.7593 33.6272 19.106C33.1246 19.4527 32.8039 19.9293 32.6652 20.536C32.5439 21.1427 32.4832 22.018 32.4832 23.162V30H30.3772V16.74H32.2492L32.3532 18.612H32.5092C32.8039 17.936 33.2892 17.4247 33.9652 17.078C34.6412 16.714 35.6206 16.532 36.9032 16.532C38.1859 16.532 39.1479 16.714 39.7892 17.078C40.4479 17.442 40.8899 17.988 41.1152 18.716C41.3406 19.4267 41.4532 20.4233 41.4532 21.706V30H39.3472V22.538ZM56.5497 24.124H47.4757C47.4757 25.3893 47.5624 26.2907 47.7357 26.828C47.909 27.3653 48.2817 27.7467 48.8537 27.972C49.443 28.18 50.4224 28.284 51.7917 28.284C53.1264 28.284 54.539 28.1887 56.0297 27.998V29.844C55.475 29.948 54.7557 30.0347 53.8717 30.104C52.9877 30.1733 52.147 30.208 51.3497 30.208C49.5644 30.208 48.247 30 47.3977 29.584C46.5657 29.168 46.0197 28.5007 45.7597 27.582C45.4997 26.6633 45.3697 25.268 45.3697 23.396C45.3697 21.5587 45.4824 20.1807 45.7077 19.262C45.9504 18.3433 46.479 17.6587 47.2937 17.208C48.1257 16.7573 49.4344 16.532 51.2197 16.532C52.8837 16.532 54.0884 16.7573 54.8337 17.208C55.579 17.6413 56.047 18.3087 56.2377 19.21C56.4457 20.094 56.5497 21.4807 56.5497 23.37V24.124ZM51.1677 18.456C50.041 18.456 49.2264 18.56 48.7237 18.768C48.2384 18.9587 47.909 19.3313 47.7357 19.886C47.5797 20.4233 47.493 21.2987 47.4757 22.512H54.5217V22.304C54.5217 21.16 54.4177 20.3193 54.2097 19.782C54.019 19.2447 53.6984 18.8893 53.2477 18.716C52.797 18.5427 52.1037 18.456 51.1677 18.456ZM77.8157 29.87C77.2783 29.974 76.6023 30.052 75.7877 30.104C74.9903 30.1733 74.245 30.208 73.5517 30.208C71.4023 30.208 69.8337 29.974 68.8457 29.506C67.8577 29.038 67.1903 28.1887 66.8437 26.958C66.5143 25.71 66.3497 23.7427 66.3497 21.056C66.3497 18.3867 66.5143 16.428 66.8437 15.18C67.1903 13.932 67.8577 13.074 68.8457 12.606C69.8337 12.138 71.4023 11.904 73.5517 11.904C74.2623 11.904 75.0077 11.9387 75.7877 12.008C76.5677 12.0773 77.209 12.1727 77.7117 12.294V14.244C76.4117 14.0707 75.2157 13.984 74.1237 13.984C72.3037 13.984 71.0297 14.1227 70.3017 14.4C69.591 14.6773 69.123 15.2753 68.8977 16.194C68.6723 17.1127 68.5597 18.7333 68.5597 21.056C68.5597 23.3787 68.6723 24.9993 68.8977 25.918C69.123 26.8367 69.591 27.4347 70.3017 27.712C71.0297 27.9893 72.3037 28.128 74.1237 28.128C75.4583 28.128 76.689 28.0413 77.8157 27.868V29.87ZM81.5647 30V10.682H83.6707V30H81.5647ZM88.0883 13.1V10.682H90.3243V13.1H88.0883ZM88.1663 30V16.74H90.2723V30H88.1663ZM103.192 29.87C102.724 29.9567 102.152 30.0347 101.476 30.104C100.817 30.1733 100.185 30.208 99.5779 30.208C97.9485 30.208 96.7525 29.974 95.9899 29.506C95.2272 29.038 94.7332 28.3447 94.5079 27.426C94.2999 26.5073 94.1959 25.1553 94.1959 23.37C94.1959 21.6193 94.3259 20.2673 94.5859 19.314C94.8459 18.3607 95.3572 17.6587 96.1199 17.208C96.8825 16.7573 98.0092 16.532 99.4999 16.532C100.089 16.532 100.713 16.5667 101.372 16.636C102.048 16.7053 102.62 16.7833 103.088 16.87V18.742C102.048 18.5513 101.025 18.456 100.02 18.456C98.9105 18.456 98.0959 18.586 97.5759 18.846C97.0732 19.106 96.7352 19.5653 96.5619 20.224C96.3885 20.8827 96.3019 21.9313 96.3019 23.37C96.3019 24.826 96.3885 25.892 96.5619 26.568C96.7525 27.2267 97.0992 27.6773 97.6019 27.92C98.1219 28.1627 98.9539 28.284 100.098 28.284C100.947 28.284 101.979 28.1973 103.192 28.024V29.87ZM115.177 30L110.497 24.28H108.833V30H106.727V10.682H108.833V22.33H110.497L115.203 16.74H117.569L112.187 23.162L117.647 30H115.177ZM127.149 12.112H132.843C135.321 12.112 137.072 12.3373 138.095 12.788C139.117 13.2213 139.767 14.01 140.045 15.154C140.322 16.298 140.461 18.2653 140.461 21.056C140.461 23.8467 140.322 25.814 140.045 26.958C139.767 28.102 139.117 28.8993 138.095 29.35C137.072 29.7833 135.321 30 132.843 30H127.149V12.112ZM132.479 27.92C134.507 27.92 135.867 27.816 136.561 27.608C137.271 27.3827 137.731 26.8453 137.939 25.996C138.147 25.1293 138.251 23.4827 138.251 21.056C138.251 18.6467 138.138 17.0087 137.913 16.142C137.705 15.2753 137.245 14.738 136.535 14.53C135.841 14.3047 134.489 14.192 132.479 14.192H129.385V27.92H132.479ZM155.345 24.124H146.271C146.271 25.3893 146.357 26.2907 146.531 26.828C146.704 27.3653 147.077 27.7467 147.649 27.972C148.238 28.18 149.217 28.284 150.587 28.284C151.921 28.284 153.334 28.1887 154.825 27.998V29.844C154.27 29.948 153.551 30.0347 152.667 30.104C151.783 30.1733 150.942 30.208 150.145 30.208C148.359 30.208 147.042 30 146.193 29.584C145.361 29.168 144.815 28.5007 144.555 27.582C144.295 26.6633 144.165 25.268 144.165 23.396C144.165 21.5587 144.277 20.1807 144.503 19.262C144.745 18.3433 145.274 17.6587 146.089 17.208C146.921 16.7573 148.229 16.532 150.015 16.532C151.679 16.532 152.883 16.7573 153.629 17.208C154.374 17.6413 154.842 18.3087 155.033 19.21C155.241 20.094 155.345 21.4807 155.345 23.37V24.124ZM149.963 18.456C148.836 18.456 148.021 18.56 147.519 18.768C147.033 18.9587 146.704 19.3313 146.531 19.886C146.375 20.4233 146.288 21.2987 146.271 22.512H153.317V22.304C153.317 21.16 153.213 20.3193 153.005 19.782C152.814 19.2447 152.493 18.8893 152.043 18.716C151.592 18.5427 150.899 18.456 149.963 18.456ZM163.679 30.208C162.969 30.208 162.163 30.1733 161.261 30.104C160.36 30.0347 159.563 29.9567 158.869 29.87V27.998C160.585 28.1887 162.154 28.284 163.575 28.284C164.459 28.284 165.109 28.2233 165.525 28.102C165.941 27.9807 166.21 27.79 166.331 27.53C166.47 27.2527 166.539 26.8453 166.539 26.308C166.539 25.7707 166.487 25.3893 166.383 25.164C166.297 24.9213 166.149 24.7567 165.941 24.67C165.733 24.5833 165.369 24.514 164.849 24.462L161.391 24.072C160.594 23.9853 159.979 23.8033 159.545 23.526C159.129 23.2487 158.843 22.8673 158.687 22.382C158.531 21.8967 158.453 21.2467 158.453 20.432C158.453 19.3053 158.653 18.4647 159.051 17.91C159.467 17.338 160.031 16.9653 160.741 16.792C161.469 16.6187 162.44 16.532 163.653 16.532C164.329 16.532 165.057 16.5667 165.837 16.636C166.617 16.7053 167.276 16.792 167.813 16.896V18.768C166.461 18.56 165.066 18.456 163.627 18.456C162.83 18.456 162.223 18.4993 161.807 18.586C161.391 18.6553 161.071 18.8287 160.845 19.106C160.62 19.366 160.507 19.782 160.507 20.354C160.507 20.8567 160.551 21.2207 160.637 21.446C160.724 21.6713 160.871 21.8273 161.079 21.914C161.287 22.0007 161.634 22.07 162.119 22.122L165.707 22.538C166.47 22.6247 167.042 22.772 167.423 22.98C167.822 23.1707 168.108 23.5173 168.281 24.02C168.472 24.5227 168.567 25.268 168.567 26.256C168.567 27.348 168.385 28.18 168.021 28.752C167.675 29.324 167.155 29.714 166.461 29.922C165.785 30.1127 164.858 30.208 163.679 30.208ZM180.71 30L176.03 24.28H174.366V30H172.26V10.682H174.366V22.33H176.03L180.736 16.74H183.102L177.72 23.162L183.18 30H180.71ZM187.317 30V18.664H184.639V16.74H187.317V12.892H189.423V16.74H192.595V18.664H189.423V30H187.317ZM200.694 30.208C198.839 30.208 197.513 30.026 196.716 29.662C195.918 29.2807 195.407 28.648 195.182 27.764C194.974 26.8627 194.87 25.398 194.87 23.37C194.87 21.342 194.974 19.886 195.182 19.002C195.407 18.1007 195.918 17.468 196.716 17.104C197.513 16.7227 198.839 16.532 200.694 16.532C202.531 16.532 203.848 16.7227 204.646 17.104C205.443 17.468 205.946 18.1007 206.154 19.002C206.379 19.886 206.492 21.342 206.492 23.37C206.492 25.398 206.379 26.8627 206.154 27.764C205.946 28.648 205.443 29.2807 204.646 29.662C203.848 30.026 202.531 30.208 200.694 30.208ZM200.694 28.284C201.959 28.284 202.834 28.1713 203.32 27.946C203.805 27.7207 204.1 27.3133 204.204 26.724C204.325 26.1173 204.386 24.9993 204.386 23.37C204.386 21.7407 204.325 20.6313 204.204 20.042C204.1 19.4353 203.805 19.0193 203.32 18.794C202.834 18.5687 201.959 18.456 200.694 18.456C199.428 18.456 198.544 18.5687 198.042 18.794C197.556 19.0193 197.253 19.4353 197.132 20.042C197.028 20.6313 196.976 21.7407 196.976 23.37C196.976 24.9993 197.028 26.1173 197.132 26.724C197.253 27.3133 197.556 27.7207 198.042 27.946C198.544 28.1713 199.428 28.284 200.694 28.284ZM210.448 16.74H212.32L212.424 18.612H212.58C212.926 17.8147 213.472 17.2687 214.218 16.974C214.98 16.6793 215.89 16.532 216.948 16.532C218.265 16.532 219.27 16.7313 219.964 17.13C220.657 17.5287 221.142 18.2133 221.42 19.184C221.714 20.1373 221.862 21.524 221.862 23.344C221.862 25.1813 221.714 26.5853 221.42 27.556C221.142 28.5267 220.657 29.2113 219.964 29.61C219.288 30.0087 218.3 30.208 217 30.208C215.873 30.208 214.954 30.0693 214.244 29.792C213.55 29.5147 213.03 29.0293 212.684 28.336H212.554V35.2H210.448V16.74ZM216.116 28.154C217.242 28.154 218.04 28.05 218.508 27.842C218.993 27.634 219.314 27.2093 219.47 26.568C219.643 25.9267 219.73 24.8607 219.73 23.37C219.73 21.8793 219.643 20.8133 219.47 20.172C219.314 19.5307 218.993 19.106 218.508 18.898C218.04 18.6727 217.242 18.56 216.116 18.56C215.232 18.56 214.53 18.6813 214.01 18.924C213.49 19.1667 213.126 19.5393 212.918 20.042C212.762 20.4233 212.658 20.8653 212.606 21.368C212.571 21.8707 212.554 22.538 212.554 23.37C212.554 24.2193 212.571 24.8867 212.606 25.372C212.64 25.8573 212.727 26.2647 212.866 26.594C213.091 27.1487 213.464 27.5473 213.984 27.79C214.504 28.0327 215.214 28.154 216.116 28.154Z" fill="black"/>
<path d="M536.799 18.415L534.719 17.2139C534.929 16.081 534.929 14.9189 534.719 13.7861L536.799 12.5849C537.038 12.4482 537.145 12.165 537.067 11.9014C536.525 10.1631 535.603 8.59081 534.396 7.28221C534.211 7.08202 533.908 7.03319 533.674 7.16991L531.594 8.37108C530.72 7.61913 529.714 7.03807 528.625 6.65721V4.25975C528.625 3.98631 528.435 3.74706 528.166 3.68846C526.374 3.28807 524.538 3.3076 522.834 3.68846C522.565 3.74706 522.375 3.98631 522.375 4.25975V6.66209C521.291 7.04784 520.285 7.62889 519.406 8.37596L517.331 7.17479C517.092 7.03807 516.794 7.08202 516.608 7.28709C515.402 8.59081 514.479 10.1631 513.937 11.9062C513.854 12.1699 513.967 12.4531 514.206 12.5898L516.286 13.791C516.076 14.9238 516.076 16.0859 516.286 17.2187L514.206 18.4199C513.967 18.5566 513.859 18.8398 513.937 19.1035C514.479 20.8418 515.402 22.414 516.608 23.7226C516.794 23.9228 517.097 23.9717 517.331 23.8349L519.411 22.6338C520.285 23.3857 521.291 23.9668 522.38 24.3476V26.75C522.38 27.0234 522.57 27.2627 522.839 27.3213C524.631 27.7217 526.467 27.7021 528.171 27.3213C528.439 27.2627 528.63 27.0234 528.63 26.75V24.3476C529.714 23.9619 530.72 23.3808 531.599 22.6338L533.679 23.8349C533.918 23.9717 534.216 23.9277 534.401 23.7226C535.607 22.4189 536.53 20.8467 537.072 19.1035C537.145 18.8349 537.038 18.5517 536.799 18.415ZM525.5 19.4062C523.347 19.4062 521.594 17.6533 521.594 15.5C521.594 13.3467 523.347 11.5937 525.5 11.5937C527.653 11.5937 529.406 13.3467 529.406 15.5C529.406 17.6533 527.653 19.4062 525.5 19.4062Z" fill="#777777"/>
<path d="M514.346 36.056C514.09 36.056 513.803 36.0467 513.485 36.028C513.173 36.0093 512.895 35.986 512.652 35.958V35.405C513.259 35.4657 513.765 35.496 514.171 35.496C514.423 35.496 514.622 35.4867 514.766 35.468C514.916 35.4447 515.042 35.405 515.144 35.349C515.238 35.293 515.298 35.2113 515.326 35.104C515.354 34.992 515.368 34.845 515.368 34.663C515.368 34.4437 515.357 34.2897 515.333 34.201C515.31 34.1077 515.254 34.04 515.165 33.998C515.081 33.956 514.934 33.9257 514.724 33.907L513.534 33.774C513.245 33.7413 513.026 33.6737 512.876 33.571C512.732 33.4637 512.634 33.326 512.582 33.158C512.536 32.9853 512.512 32.7613 512.512 32.486C512.512 32.1033 512.578 31.814 512.708 31.618C512.844 31.422 513.03 31.2913 513.268 31.226C513.511 31.1607 513.835 31.128 514.241 31.128C514.512 31.128 514.787 31.1397 515.067 31.163C515.347 31.1863 515.569 31.2143 515.732 31.247V31.779C515.555 31.751 515.336 31.73 515.074 31.716C514.813 31.6973 514.57 31.688 514.346 31.688C514.085 31.688 513.875 31.6997 513.716 31.723C513.558 31.7463 513.434 31.786 513.345 31.842C513.247 31.898 513.184 31.9727 513.156 32.066C513.128 32.1593 513.114 32.2923 513.114 32.465C513.114 32.6563 513.128 32.7963 513.156 32.885C513.184 32.969 513.238 33.032 513.317 33.074C513.397 33.1113 513.527 33.1393 513.709 33.158L514.885 33.291C515.165 33.319 515.382 33.368 515.536 33.438C515.69 33.508 515.802 33.634 515.872 33.816C515.938 33.984 515.97 34.2523 515.97 34.621C515.97 35.0457 515.905 35.363 515.774 35.573C515.644 35.7783 515.469 35.9113 515.249 35.972C515.03 36.028 514.729 36.056 514.346 36.056ZM519.911 34.418H517.468C517.468 34.7587 517.491 35.0013 517.538 35.146C517.584 35.2907 517.685 35.3933 517.839 35.454C517.997 35.51 518.261 35.538 518.63 35.538C518.989 35.538 519.369 35.5123 519.771 35.461V35.958C519.621 35.986 519.428 36.0093 519.19 36.028C518.952 36.0467 518.725 36.056 518.511 36.056C518.03 36.056 517.675 36 517.447 35.888C517.223 35.776 517.076 35.5963 517.006 35.349C516.936 35.1017 516.901 34.726 516.901 34.222C516.901 33.7273 516.931 33.3563 516.992 33.109C517.057 32.8617 517.199 32.6773 517.419 32.556C517.643 32.4347 517.995 32.374 518.476 32.374C518.924 32.374 519.248 32.4347 519.449 32.556C519.649 32.6727 519.775 32.8523 519.827 33.095C519.883 33.333 519.911 33.7063 519.911 34.215V34.418ZM518.462 32.892C518.158 32.892 517.939 32.92 517.804 32.976C517.673 33.0273 517.584 33.1277 517.538 33.277C517.496 33.4217 517.472 33.6573 517.468 33.984H519.365V33.928C519.365 33.62 519.337 33.3937 519.281 33.249C519.229 33.1043 519.143 33.0087 519.022 32.962C518.9 32.9153 518.714 32.892 518.462 32.892ZM521.232 36V32.948H520.511V32.43H521.232V31.394H521.799V32.43H522.653V32.948H521.799V36H521.232ZM523.747 36V32.948H523.026V32.43H523.747V31.394H524.314V32.43H525.168V32.948H524.314V36H523.747ZM525.948 31.45V30.799H526.55V31.45H525.948ZM525.969 36V32.43H526.536V36H525.969ZM530.161 33.991C530.161 33.6597 530.14 33.424 530.098 33.284C530.056 33.1393 529.977 33.0437 529.86 32.997C529.744 32.9503 529.548 32.927 529.272 32.927C528.978 32.927 528.761 32.9737 528.621 33.067C528.486 33.1603 528.4 33.2887 528.362 33.452C528.33 33.6153 528.313 33.851 528.313 34.159V36H527.746V32.43H528.25L528.278 32.934H528.32C528.4 32.752 528.53 32.6143 528.712 32.521C528.894 32.423 529.158 32.374 529.503 32.374C529.849 32.374 530.108 32.423 530.28 32.521C530.458 32.619 530.577 32.766 530.637 32.962C530.698 33.1533 530.728 33.4217 530.728 33.767V36H530.161V33.991ZM533.239 37.442C532.744 37.442 532.324 37.421 531.979 37.379V36.882C532.427 36.91 532.807 36.924 533.12 36.924C533.479 36.924 533.738 36.8913 533.897 36.826C534.06 36.7607 534.165 36.644 534.212 36.476C534.263 36.3127 534.289 36.049 534.289 35.685V35.531H534.254C534.165 35.713 534.025 35.8437 533.834 35.923C533.647 35.9977 533.404 36.035 533.106 36.035C532.746 36.035 532.473 35.9837 532.287 35.881C532.1 35.7737 531.969 35.5917 531.895 35.335C531.82 35.0783 531.783 34.705 531.783 34.215C531.783 33.7203 531.82 33.3447 531.895 33.088C531.974 32.8267 532.107 32.6423 532.294 32.535C532.48 32.4277 532.751 32.374 533.106 32.374C533.39 32.374 533.633 32.4137 533.834 32.493C534.039 32.5723 534.188 32.7193 534.282 32.934H534.324L534.345 32.43H534.856V35.545C534.856 36.049 534.818 36.4293 534.744 36.686C534.674 36.9427 534.524 37.1317 534.296 37.253C534.067 37.379 533.715 37.442 533.239 37.442ZM533.323 35.489C533.556 35.489 533.74 35.461 533.876 35.405C534.016 35.3443 534.114 35.2533 534.17 35.132C534.216 35.0293 534.247 34.908 534.261 34.768C534.279 34.628 534.289 34.4413 534.289 34.208C534.289 33.97 534.282 33.7857 534.268 33.655C534.258 33.5197 534.23 33.4053 534.184 33.312C534.123 33.172 534.023 33.0717 533.883 33.011C533.743 32.9503 533.556 32.92 533.323 32.92C533.024 32.92 532.809 32.9503 532.679 33.011C532.548 33.067 532.459 33.1813 532.413 33.354C532.371 33.522 532.35 33.8067 532.35 34.208C532.35 34.6047 532.371 34.8893 532.413 35.062C532.459 35.23 532.548 35.3443 532.679 35.405C532.809 35.461 533.024 35.489 533.323 35.489ZM537.255 36.056C537.064 36.056 536.847 36.0467 536.604 36.028C536.362 36.0093 536.147 35.9883 535.96 35.965V35.461C536.422 35.5123 536.845 35.538 537.227 35.538C537.465 35.538 537.64 35.5217 537.752 35.489C537.864 35.4563 537.937 35.405 537.969 35.335C538.007 35.2603 538.025 35.1507 538.025 35.006C538.025 34.8613 538.011 34.7587 537.983 34.698C537.96 34.6327 537.92 34.5883 537.864 34.565C537.808 34.5417 537.71 34.523 537.57 34.509L536.639 34.404C536.425 34.3807 536.259 34.3317 536.142 34.257C536.03 34.1823 535.953 34.0797 535.911 33.949C535.869 33.8183 535.848 33.6433 535.848 33.424C535.848 33.1207 535.902 32.8943 536.009 32.745C536.121 32.591 536.273 32.4907 536.464 32.444C536.66 32.3973 536.922 32.374 537.248 32.374C537.43 32.374 537.626 32.3833 537.836 32.402C538.046 32.4207 538.224 32.444 538.368 32.472V32.976C538.004 32.92 537.629 32.892 537.241 32.892C537.027 32.892 536.863 32.9037 536.751 32.927C536.639 32.9457 536.553 32.9923 536.492 33.067C536.432 33.137 536.401 33.249 536.401 33.403C536.401 33.5383 536.413 33.6363 536.436 33.697C536.46 33.7577 536.499 33.7997 536.555 33.823C536.611 33.8463 536.705 33.865 536.835 33.879L537.801 33.991C538.007 34.0143 538.161 34.054 538.263 34.11C538.371 34.1613 538.448 34.2547 538.494 34.39C538.546 34.5253 538.571 34.726 538.571 34.992C538.571 35.286 538.522 35.51 538.424 35.664C538.331 35.818 538.191 35.923 538.004 35.979C537.822 36.0303 537.573 36.056 537.255 36.056Z" fill="#777777"/>
<g clip-path="url(#clip0_35:6)">
<path d="M472.169 10.5289L464.167 18.24V26.5625C464.167 26.778 464.24 26.9847 464.37 27.1371C464.5 27.2894 464.677 27.375 464.861 27.375L469.725 27.3603C469.908 27.3592 470.084 27.2731 470.214 27.1209C470.343 26.9686 470.416 26.7626 470.416 26.5478V21.6875C470.416 21.472 470.489 21.2654 470.619 21.113C470.749 20.9606 470.926 20.875 471.11 20.875H473.888C474.072 20.875 474.249 20.9606 474.379 21.113C474.509 21.2654 474.582 21.472 474.582 21.6875V26.5442C474.582 26.6512 474.6 26.7571 474.635 26.856C474.669 26.9548 474.721 27.0447 474.785 27.1204C474.85 27.1961 474.926 27.2562 475.011 27.2972C475.095 27.3382 475.186 27.3593 475.277 27.3593L480.139 27.375C480.323 27.375 480.5 27.2894 480.63 27.1371C480.76 26.9847 480.833 26.778 480.833 26.5625V18.2344L472.833 10.5289C472.739 10.4401 472.622 10.3918 472.501 10.3918C472.38 10.3918 472.263 10.4401 472.169 10.5289ZM484.809 15.77L481.181 12.2706V5.23694C481.181 5.07532 481.126 4.92033 481.028 4.80605C480.93 4.69177 480.798 4.62756 480.66 4.62756H478.229C478.091 4.62756 477.959 4.69177 477.861 4.80605C477.763 4.92033 477.708 5.07532 477.708 5.23694V8.92417L473.822 5.18362C473.45 4.82458 472.982 4.62828 472.499 4.62828C472.016 4.62828 471.548 4.82458 471.175 5.18362L460.188 15.77C460.136 15.821 460.092 15.8836 460.06 15.9544C460.028 16.0251 460.008 16.1026 460.002 16.1823C459.995 16.262 460.002 16.3424 460.022 16.4189C460.043 16.4954 460.075 16.5665 460.119 16.6282L461.226 18.2024C461.269 18.2643 461.323 18.3155 461.383 18.3532C461.444 18.3909 461.51 18.4142 461.578 18.4219C461.646 18.4296 461.715 18.4215 461.78 18.398C461.846 18.3746 461.907 18.3362 461.96 18.2852L472.169 8.44682C472.263 8.35812 472.38 8.30975 472.501 8.30975C472.622 8.30975 472.739 8.35812 472.833 8.44682L483.043 18.2852C483.095 18.3362 483.156 18.3746 483.221 18.3981C483.287 18.4217 483.356 18.4299 483.424 18.4224C483.492 18.4148 483.558 18.3916 483.618 18.3542C483.679 18.3167 483.732 18.2656 483.776 18.2039L484.883 16.6297C484.926 16.5677 484.959 16.4962 484.979 16.4193C484.999 16.3425 485.006 16.2618 484.999 16.1819C484.992 16.102 484.972 16.0245 484.939 15.9538C484.906 15.8831 484.862 15.8206 484.809 15.77Z" fill="black"/>
</g>
<path d="M466.697 36V33.865H464.17V36H463.568V31.184H464.17V33.284H466.697V31.184H467.292V36H466.697ZM470.018 36.056C469.519 36.056 469.162 36.007 468.947 35.909C468.732 35.8063 468.595 35.636 468.534 35.398C468.478 35.1553 468.45 34.761 468.45 34.215C468.45 33.669 468.478 33.277 468.534 33.039C468.595 32.7963 468.732 32.626 468.947 32.528C469.162 32.4253 469.519 32.374 470.018 32.374C470.513 32.374 470.867 32.4253 471.082 32.528C471.297 32.626 471.432 32.7963 471.488 33.039C471.549 33.277 471.579 33.669 471.579 34.215C471.579 34.761 471.549 35.1553 471.488 35.398C471.432 35.636 471.297 35.8063 471.082 35.909C470.867 36.007 470.513 36.056 470.018 36.056ZM470.018 35.538C470.359 35.538 470.594 35.5077 470.725 35.447C470.856 35.3863 470.935 35.2767 470.963 35.118C470.996 34.9547 471.012 34.6537 471.012 34.215C471.012 33.7763 470.996 33.4777 470.963 33.319C470.935 33.1557 470.856 33.0437 470.725 32.983C470.594 32.9223 470.359 32.892 470.018 32.892C469.677 32.892 469.439 32.9223 469.304 32.983C469.173 33.0437 469.092 33.1557 469.059 33.319C469.031 33.4777 469.017 33.7763 469.017 34.215C469.017 34.6537 469.031 34.9547 469.059 35.118C469.092 35.2767 469.173 35.3863 469.304 35.447C469.439 35.5077 469.677 35.538 470.018 35.538ZM477.04 33.991C477.04 33.655 477.021 33.417 476.984 33.277C476.951 33.137 476.884 33.0437 476.781 32.997C476.678 32.9503 476.506 32.927 476.263 32.927C476.002 32.927 475.81 32.9713 475.689 33.06C475.568 33.1487 475.491 33.2747 475.458 33.438C475.425 33.6013 475.409 33.8417 475.409 34.159V36H474.842V33.991C474.842 33.655 474.823 33.417 474.786 33.277C474.753 33.137 474.686 33.0437 474.583 32.997C474.48 32.9503 474.308 32.927 474.065 32.927C473.804 32.927 473.612 32.9737 473.491 33.067C473.37 33.1557 473.293 33.284 473.26 33.452C473.227 33.6153 473.211 33.851 473.211 34.159V36H472.644V32.43H473.148L473.176 32.934H473.218C473.288 32.752 473.407 32.6143 473.575 32.521C473.748 32.423 473.99 32.374 474.303 32.374C474.611 32.374 474.844 32.4183 475.003 32.507C475.162 32.5957 475.271 32.738 475.332 32.934H475.381C475.53 32.5607 475.901 32.374 476.494 32.374C476.807 32.374 477.042 32.423 477.201 32.521C477.36 32.619 477.467 32.766 477.523 32.962C477.579 33.1533 477.607 33.4217 477.607 33.767V36H477.04V33.991ZM481.68 34.418H479.237C479.237 34.7587 479.26 35.0013 479.307 35.146C479.354 35.2907 479.454 35.3933 479.608 35.454C479.767 35.51 480.03 35.538 480.399 35.538C480.758 35.538 481.139 35.5123 481.54 35.461V35.958C481.391 35.986 481.197 36.0093 480.959 36.028C480.721 36.0467 480.495 36.056 480.28 36.056C479.799 36.056 479.445 36 479.216 35.888C478.992 35.776 478.845 35.5963 478.775 35.349C478.705 35.1017 478.67 34.726 478.67 34.222C478.67 33.7273 478.7 33.3563 478.761 33.109C478.826 32.8617 478.969 32.6773 479.188 32.556C479.412 32.4347 479.764 32.374 480.245 32.374C480.693 32.374 481.017 32.4347 481.218 32.556C481.419 32.6727 481.545 32.8523 481.596 33.095C481.652 33.333 481.68 33.7063 481.68 34.215V34.418ZM480.231 32.892C479.928 32.892 479.708 32.92 479.573 32.976C479.442 33.0273 479.354 33.1277 479.307 33.277C479.265 33.4217 479.242 33.6573 479.237 33.984H481.134V33.928C481.134 33.62 481.106 33.3937 481.05 33.249C480.999 33.1043 480.912 33.0087 480.791 32.962C480.67 32.9153 480.483 32.892 480.231 32.892Z" fill="black"/>
<path d="M590.268 16.3301L582.064 24.5332C581.332 25.2656 580.062 24.7529 580.062 23.7031V19.0156H573.422C572.772 19.0156 572.25 18.4932 572.25 17.8438V13.1563C572.25 12.5068 572.772 11.9844 573.422 11.9844H580.062V7.29688C580.062 6.25195 581.327 5.73438 582.064 6.4668L590.268 14.6699C590.722 15.1289 590.722 15.8711 590.268 16.3301ZM575.375 24.2891V22.3359C575.375 22.0137 575.111 21.75 574.789 21.75H570.688C569.823 21.75 569.125 21.0518 569.125 20.1875V10.8125C569.125 9.94824 569.823 9.25 570.688 9.25H574.789C575.111 9.25 575.375 8.98633 575.375 8.66406V6.71094C575.375 6.38867 575.111 6.125 574.789 6.125H570.688C568.1 6.125 566 8.22461 566 10.8125V20.1875C566 22.7754 568.1 24.875 570.688 24.875H574.789C575.111 24.875 575.375 24.6113 575.375 24.2891Z" fill="black"/>
<path d="M567.032 36V31.184H567.634V35.419H569.881V36H567.032ZM572.122 36.056C571.622 36.056 571.265 36.007 571.051 35.909C570.836 35.8063 570.698 35.636 570.638 35.398C570.582 35.1553 570.554 34.761 570.554 34.215C570.554 33.669 570.582 33.277 570.638 33.039C570.698 32.7963 570.836 32.626 571.051 32.528C571.265 32.4253 571.622 32.374 572.122 32.374C572.616 32.374 572.971 32.4253 573.186 32.528C573.4 32.626 573.536 32.7963 573.592 33.039C573.652 33.277 573.683 33.669 573.683 34.215C573.683 34.761 573.652 35.1553 573.592 35.398C573.536 35.636 573.4 35.8063 573.186 35.909C572.971 36.007 572.616 36.056 572.122 36.056ZM572.122 35.538C572.462 35.538 572.698 35.5077 572.829 35.447C572.959 35.3863 573.039 35.2767 573.067 35.118C573.099 34.9547 573.116 34.6537 573.116 34.215C573.116 33.7763 573.099 33.4777 573.067 33.319C573.039 33.1557 572.959 33.0437 572.829 32.983C572.698 32.9223 572.462 32.892 572.122 32.892C571.781 32.892 571.543 32.9223 571.408 32.983C571.277 33.0437 571.195 33.1557 571.163 33.319C571.135 33.4777 571.121 33.7763 571.121 34.215C571.121 34.6537 571.135 34.9547 571.163 35.118C571.195 35.2767 571.277 35.3863 571.408 35.447C571.543 35.5077 571.781 35.538 572.122 35.538ZM576.05 37.442C575.555 37.442 575.135 37.421 574.79 37.379V36.882C575.238 36.91 575.618 36.924 575.931 36.924C576.29 36.924 576.549 36.8913 576.708 36.826C576.871 36.7607 576.976 36.644 577.023 36.476C577.074 36.3127 577.1 36.049 577.1 35.685V35.531H577.065C576.976 35.713 576.836 35.8437 576.645 35.923C576.458 35.9977 576.215 36.035 575.917 36.035C575.557 36.035 575.284 35.9837 575.098 35.881C574.911 35.7737 574.78 35.5917 574.706 35.335C574.631 35.0783 574.594 34.705 574.594 34.215C574.594 33.7203 574.631 33.3447 574.706 33.088C574.785 32.8267 574.918 32.6423 575.105 32.535C575.291 32.4277 575.562 32.374 575.917 32.374C576.201 32.374 576.444 32.4137 576.645 32.493C576.85 32.5723 576.999 32.7193 577.093 32.934H577.135L577.156 32.43H577.667V35.545C577.667 36.049 577.629 36.4293 577.555 36.686C577.485 36.9427 577.335 37.1317 577.107 37.253C576.878 37.379 576.526 37.442 576.05 37.442ZM576.134 35.489C576.367 35.489 576.551 35.461 576.687 35.405C576.827 35.3443 576.925 35.2533 576.981 35.132C577.027 35.0293 577.058 34.908 577.072 34.768C577.09 34.628 577.1 34.4413 577.1 34.208C577.1 33.97 577.093 33.7857 577.079 33.655C577.069 33.5197 577.041 33.4053 576.995 33.312C576.934 33.172 576.834 33.0717 576.694 33.011C576.554 32.9503 576.367 32.92 576.134 32.92C575.835 32.92 575.62 32.9503 575.49 33.011C575.359 33.067 575.27 33.1813 575.224 33.354C575.182 33.522 575.161 33.8067 575.161 34.208C575.161 34.6047 575.182 34.8893 575.224 35.062C575.27 35.23 575.359 35.3443 575.49 35.405C575.62 35.461 575.835 35.489 576.134 35.489ZM581.945 36.056C581.446 36.056 581.089 36.007 580.874 35.909C580.659 35.8063 580.522 35.636 580.461 35.398C580.405 35.1553 580.377 34.761 580.377 34.215C580.377 33.669 580.405 33.277 580.461 33.039C580.522 32.7963 580.659 32.626 580.874 32.528C581.089 32.4253 581.446 32.374 581.945 32.374C582.44 32.374 582.794 32.4253 583.009 32.528C583.224 32.626 583.359 32.7963 583.415 33.039C583.476 33.277 583.506 33.669 583.506 34.215C583.506 34.761 583.476 35.1553 583.415 35.398C583.359 35.636 583.224 35.8063 583.009 35.909C582.794 36.007 582.44 36.056 581.945 36.056ZM581.945 35.538C582.286 35.538 582.521 35.5077 582.652 35.447C582.783 35.3863 582.862 35.2767 582.89 35.118C582.923 34.9547 582.939 34.6537 582.939 34.215C582.939 33.7763 582.923 33.4777 582.89 33.319C582.862 33.1557 582.783 33.0437 582.652 32.983C582.521 32.9223 582.286 32.892 581.945 32.892C581.604 32.892 581.366 32.9223 581.231 32.983C581.1 33.0437 581.019 33.1557 580.986 33.319C580.958 33.4777 580.944 33.7763 580.944 34.215C580.944 34.6537 580.958 34.9547 580.986 35.118C581.019 35.2767 581.1 35.3863 581.231 35.447C581.366 35.5077 581.604 35.538 581.945 35.538ZM587.014 35.496H586.972C586.893 35.678 586.762 35.818 586.58 35.916C586.398 36.0093 586.134 36.056 585.789 36.056C585.448 36.056 585.189 36.007 585.012 35.909C584.839 35.811 584.723 35.6663 584.662 35.475C584.601 35.279 584.571 35.0083 584.571 34.663V32.43H585.138V34.439C585.138 34.775 585.157 35.013 585.194 35.153C585.236 35.293 585.315 35.3863 585.432 35.433C585.549 35.4797 585.745 35.503 586.02 35.503C586.314 35.503 586.529 35.4563 586.664 35.363C586.804 35.2697 586.893 35.1413 586.93 34.978C586.967 34.81 586.986 34.5743 586.986 34.271V32.43H587.553V36H587.042L587.014 35.496ZM589.055 36V32.948H588.334V32.43H589.055V31.394H589.622V32.43H590.476V32.948H589.622V36H589.055Z" fill="black"/>
<g filter="url(#filter0_d_35:6)">
<rect x="262" y="272" width="77" height="20" rx="2" fill="#46AEDB"/>
</g>
<path d="M289.219 287.112C288.706 287.112 288.132 287.093 287.497 287.056C286.872 287.019 286.317 286.972 285.831 286.916V285.81C287.045 285.931 288.057 285.992 288.869 285.992C289.373 285.992 289.77 285.973 290.059 285.936C290.358 285.889 290.61 285.81 290.815 285.698C291.002 285.586 291.123 285.423 291.179 285.208C291.235 284.984 291.263 284.69 291.263 284.326C291.263 283.887 291.24 283.579 291.193 283.402C291.147 283.215 291.035 283.08 290.857 282.996C290.689 282.912 290.395 282.851 289.975 282.814L287.595 282.548C287.017 282.483 286.578 282.347 286.279 282.142C285.99 281.927 285.794 281.652 285.691 281.316C285.598 280.971 285.551 280.523 285.551 279.972C285.551 279.207 285.682 278.628 285.943 278.236C286.214 277.844 286.587 277.583 287.063 277.452C287.549 277.321 288.197 277.256 289.009 277.256C289.551 277.256 290.101 277.279 290.661 277.326C291.221 277.373 291.665 277.429 291.991 277.494V278.558C291.637 278.502 291.198 278.46 290.675 278.432C290.153 278.395 289.667 278.376 289.219 278.376C288.697 278.376 288.277 278.399 287.959 278.446C287.642 278.493 287.395 278.572 287.217 278.684C287.021 278.796 286.895 278.945 286.839 279.132C286.783 279.319 286.755 279.585 286.755 279.93C286.755 280.313 286.783 280.593 286.839 280.77C286.895 280.938 287.003 281.064 287.161 281.148C287.32 281.223 287.581 281.279 287.945 281.316L290.297 281.582C290.857 281.638 291.291 281.736 291.599 281.876C291.907 282.016 292.131 282.268 292.271 282.632C292.402 282.968 292.467 283.505 292.467 284.242C292.467 285.091 292.337 285.726 292.075 286.146C291.814 286.557 291.464 286.823 291.025 286.944C290.587 287.056 289.985 287.112 289.219 287.112ZM296.54 287.112C295.719 287.112 295.121 286.963 294.748 286.664C294.375 286.356 294.188 285.815 294.188 285.04C294.188 284.489 294.253 284.06 294.384 283.752C294.515 283.444 294.734 283.22 295.042 283.08C295.359 282.94 295.803 282.87 296.372 282.87C296.643 282.87 297.534 282.893 299.046 282.94V282.52C299.046 281.96 298.99 281.563 298.878 281.33C298.775 281.097 298.579 280.947 298.29 280.882C298.01 280.817 297.529 280.784 296.848 280.784C296.549 280.784 296.171 280.803 295.714 280.84C295.266 280.868 294.916 280.901 294.664 280.938V279.944C295.401 279.813 296.265 279.748 297.254 279.748C298.094 279.748 298.719 279.837 299.13 280.014C299.55 280.182 299.83 280.462 299.97 280.854C300.11 281.237 300.18 281.797 300.18 282.534V287H299.158L299.102 286.006H299.018C298.822 286.454 298.505 286.753 298.066 286.902C297.637 287.042 297.128 287.112 296.54 287.112ZM296.974 286.09C297.441 286.09 297.819 286.048 298.108 285.964C298.407 285.88 298.621 285.717 298.752 285.474C298.948 285.138 299.046 284.671 299.046 284.074V283.752H296.666C296.274 283.752 295.985 283.78 295.798 283.836C295.621 283.892 295.495 284.004 295.42 284.172C295.345 284.331 295.308 284.583 295.308 284.928C295.308 285.264 295.35 285.511 295.434 285.67C295.518 285.829 295.672 285.941 295.896 286.006C296.129 286.062 296.489 286.09 296.974 286.09ZM304.276 287L301.644 279.86H302.834L304.948 285.74H305.046L307.146 279.86H308.308L305.69 287H304.276ZM315.483 283.836H310.597C310.597 284.517 310.643 285.003 310.737 285.292C310.83 285.581 311.031 285.787 311.339 285.908C311.656 286.02 312.183 286.076 312.921 286.076C313.639 286.076 314.4 286.025 315.203 285.922V286.916C314.904 286.972 314.517 287.019 314.041 287.056C313.565 287.093 313.112 287.112 312.683 287.112C311.721 287.112 311.012 287 310.555 286.776C310.107 286.552 309.813 286.193 309.673 285.698C309.533 285.203 309.463 284.452 309.463 283.444C309.463 282.455 309.523 281.713 309.645 281.218C309.775 280.723 310.06 280.355 310.499 280.112C310.947 279.869 311.651 279.748 312.613 279.748C313.509 279.748 314.157 279.869 314.559 280.112C314.96 280.345 315.212 280.705 315.315 281.19C315.427 281.666 315.483 282.413 315.483 283.43V283.836ZM312.585 280.784C311.978 280.784 311.539 280.84 311.269 280.952C311.007 281.055 310.83 281.255 310.737 281.554C310.653 281.843 310.606 282.315 310.597 282.968H314.391V282.856C314.391 282.24 314.335 281.787 314.223 281.498C314.12 281.209 313.947 281.017 313.705 280.924C313.462 280.831 313.089 280.784 312.585 280.784Z" fill="white"/>
<path d="M202.09 133.112C200.812 133.112 199.906 132.986 199.374 132.734C198.842 132.482 198.502 132.043 198.352 131.418C198.212 130.783 198.142 129.705 198.142 128.184C198.142 126.663 198.212 125.589 198.352 124.964C198.502 124.329 198.842 123.886 199.374 123.634C199.906 123.382 200.812 123.256 202.09 123.256C203.36 123.256 204.26 123.382 204.792 123.634C205.334 123.886 205.674 124.329 205.814 124.964C205.964 125.589 206.038 126.663 206.038 128.184C206.038 129.705 205.964 130.783 205.814 131.418C205.674 132.043 205.334 132.482 204.792 132.734C204.26 132.986 203.36 133.112 202.09 133.112ZM202.09 131.992C203.042 131.992 203.686 131.931 204.022 131.81C204.358 131.689 204.578 131.385 204.68 130.9C204.783 130.415 204.834 129.509 204.834 128.184C204.834 126.859 204.783 125.953 204.68 125.468C204.578 124.983 204.358 124.679 204.022 124.558C203.686 124.437 203.042 124.376 202.09 124.376C201.138 124.376 200.49 124.437 200.144 124.558C199.808 124.679 199.589 124.983 199.486 125.468C199.384 125.953 199.332 126.859 199.332 128.184C199.332 129.509 199.384 130.415 199.486 130.9C199.589 131.385 199.808 131.689 200.144 131.81C200.49 131.931 201.138 131.992 202.09 131.992ZM208.331 125.86H209.339L209.395 126.868H209.479C209.666 126.439 209.96 126.145 210.361 125.986C210.772 125.827 211.262 125.748 211.831 125.748C212.541 125.748 213.082 125.855 213.455 126.07C213.829 126.285 214.09 126.653 214.239 127.176C214.398 127.689 214.477 128.436 214.477 129.416C214.477 130.405 214.398 131.161 214.239 131.684C214.09 132.207 213.829 132.575 213.455 132.79C213.091 133.005 212.559 133.112 211.859 133.112C211.253 133.112 210.758 133.037 210.375 132.888C210.002 132.739 209.722 132.477 209.535 132.104H209.465V135.8H208.331V125.86ZM211.383 132.006C211.99 132.006 212.419 131.95 212.671 131.838C212.933 131.726 213.105 131.497 213.189 131.152C213.283 130.807 213.329 130.233 213.329 129.43C213.329 128.627 213.283 128.053 213.189 127.708C213.105 127.363 212.933 127.134 212.671 127.022C212.419 126.901 211.99 126.84 211.383 126.84C210.907 126.84 210.529 126.905 210.249 127.036C209.969 127.167 209.773 127.367 209.661 127.638C209.577 127.843 209.521 128.081 209.493 128.352C209.475 128.623 209.465 128.982 209.465 129.43C209.465 129.887 209.475 130.247 209.493 130.508C209.512 130.769 209.559 130.989 209.633 131.166C209.755 131.465 209.955 131.679 210.235 131.81C210.515 131.941 210.898 132.006 211.383 132.006ZM217.122 133V126.896H215.68V125.86H217.122V123.788H218.256V125.86H219.964V126.896H218.256V133H217.122ZM221.524 123.9V122.598H222.728V123.9H221.524ZM221.566 133V125.86H222.7V133H221.566ZM227.948 133.112C226.95 133.112 226.236 133.014 225.806 132.818C225.377 132.613 225.102 132.272 224.98 131.796C224.868 131.311 224.812 130.522 224.812 129.43C224.812 128.338 224.868 127.554 224.98 127.078C225.102 126.593 225.377 126.252 225.806 126.056C226.236 125.851 226.95 125.748 227.948 125.748C228.938 125.748 229.647 125.851 230.076 126.056C230.506 126.252 230.776 126.593 230.888 127.078C231.01 127.554 231.07 128.338 231.07 129.43C231.07 130.522 231.01 131.311 230.888 131.796C230.776 132.272 230.506 132.613 230.076 132.818C229.647 133.014 228.938 133.112 227.948 133.112ZM227.948 132.076C228.63 132.076 229.101 132.015 229.362 131.894C229.624 131.773 229.782 131.553 229.838 131.236C229.904 130.909 229.936 130.307 229.936 129.43C229.936 128.553 229.904 127.955 229.838 127.638C229.782 127.311 229.624 127.087 229.362 126.966C229.101 126.845 228.63 126.784 227.948 126.784C227.267 126.784 226.791 126.845 226.52 126.966C226.259 127.087 226.096 127.311 226.03 127.638C225.974 127.955 225.946 128.553 225.946 129.43C225.946 130.307 225.974 130.909 226.03 131.236C226.096 131.553 226.259 131.773 226.52 131.894C226.791 132.015 227.267 132.076 227.948 132.076ZM238.03 128.982C238.03 128.319 237.988 127.848 237.904 127.568C237.82 127.279 237.662 127.087 237.428 126.994C237.195 126.901 236.803 126.854 236.252 126.854C235.664 126.854 235.23 126.947 234.95 127.134C234.68 127.321 234.507 127.577 234.432 127.904C234.367 128.231 234.334 128.702 234.334 129.318V133H233.2V125.86H234.208L234.264 126.868H234.348C234.507 126.504 234.768 126.229 235.132 126.042C235.496 125.846 236.024 125.748 236.714 125.748C237.405 125.748 237.923 125.846 238.268 126.042C238.623 126.238 238.861 126.532 238.982 126.924C239.104 127.307 239.164 127.843 239.164 128.534V133H238.03V128.982ZM246.178 133V124.852L244.19 125.804V124.642L246.528 123.368H247.382V133H246.178Z" fill="black"/>
<rect x="381" y="121" width="15" height="15" fill="#C4C4C4"/>
<path d="M199.457 167.112C198.178 167.112 197.273 166.986 196.741 166.734C196.209 166.482 195.868 166.043 195.719 165.418C195.579 164.783 195.509 163.705 195.509 162.184C195.509 160.663 195.579 159.589 195.719 158.964C195.868 158.329 196.209 157.886 196.741 157.634C197.273 157.382 198.178 157.256 199.457 157.256C200.726 157.256 201.627 157.382 202.159 157.634C202.7 157.886 203.041 158.329 203.181 158.964C203.33 159.589 203.405 160.663 203.405 162.184C203.405 163.705 203.33 164.783 203.181 165.418C203.041 166.043 202.7 166.482 202.159 166.734C201.627 166.986 200.726 167.112 199.457 167.112ZM199.457 165.992C200.409 165.992 201.053 165.931 201.389 165.81C201.725 165.689 201.944 165.385 202.047 164.9C202.149 164.415 202.201 163.509 202.201 162.184C202.201 160.859 202.149 159.953 202.047 159.468C201.944 158.983 201.725 158.679 201.389 158.558C201.053 158.437 200.409 158.376 199.457 158.376C198.505 158.376 197.856 158.437 197.511 158.558C197.175 158.679 196.955 158.983 196.853 159.468C196.75 159.953 196.699 160.859 196.699 162.184C196.699 163.509 196.75 164.415 196.853 164.9C196.955 165.385 197.175 165.689 197.511 165.81C197.856 165.931 198.505 165.992 199.457 165.992ZM205.697 159.86H206.705L206.761 160.868H206.845C207.032 160.439 207.326 160.145 207.727 159.986C208.138 159.827 208.628 159.748 209.197 159.748C209.907 159.748 210.448 159.855 210.821 160.07C211.195 160.285 211.456 160.653 211.605 161.176C211.764 161.689 211.843 162.436 211.843 163.416C211.843 164.405 211.764 165.161 211.605 165.684C211.456 166.207 211.195 166.575 210.821 166.79C210.457 167.005 209.925 167.112 209.225 167.112C208.619 167.112 208.124 167.037 207.741 166.888C207.368 166.739 207.088 166.477 206.901 166.104H206.831V169.8H205.697V159.86ZM208.749 166.006C209.356 166.006 209.785 165.95 210.037 165.838C210.299 165.726 210.471 165.497 210.555 165.152C210.649 164.807 210.695 164.233 210.695 163.43C210.695 162.627 210.649 162.053 210.555 161.708C210.471 161.363 210.299 161.134 210.037 161.022C209.785 160.901 209.356 160.84 208.749 160.84C208.273 160.84 207.895 160.905 207.615 161.036C207.335 161.167 207.139 161.367 207.027 161.638C206.943 161.843 206.887 162.081 206.859 162.352C206.841 162.623 206.831 162.982 206.831 163.43C206.831 163.887 206.841 164.247 206.859 164.508C206.878 164.769 206.925 164.989 206.999 165.166C207.121 165.465 207.321 165.679 207.601 165.81C207.881 165.941 208.264 166.006 208.749 166.006ZM214.489 167V160.896H213.047V159.86H214.489V157.788H215.623V159.86H217.331V160.896H215.623V167H214.489ZM218.89 157.9V156.598H220.094V157.9H218.89ZM218.932 167V159.86H220.066V167H218.932ZM225.315 167.112C224.316 167.112 223.602 167.014 223.173 166.818C222.743 166.613 222.468 166.272 222.347 165.796C222.235 165.311 222.179 164.522 222.179 163.43C222.179 162.338 222.235 161.554 222.347 161.078C222.468 160.593 222.743 160.252 223.173 160.056C223.602 159.851 224.316 159.748 225.315 159.748C226.304 159.748 227.013 159.851 227.443 160.056C227.872 160.252 228.143 160.593 228.255 161.078C228.376 161.554 228.437 162.338 228.437 163.43C228.437 164.522 228.376 165.311 228.255 165.796C228.143 166.272 227.872 166.613 227.443 166.818C227.013 167.014 226.304 167.112 225.315 167.112ZM225.315 166.076C225.996 166.076 226.467 166.015 226.729 165.894C226.99 165.773 227.149 165.553 227.205 165.236C227.27 164.909 227.303 164.307 227.303 163.43C227.303 162.553 227.27 161.955 227.205 161.638C227.149 161.311 226.99 161.087 226.729 160.966C226.467 160.845 225.996 160.784 225.315 160.784C224.633 160.784 224.157 160.845 223.887 160.966C223.625 161.087 223.462 161.311 223.397 161.638C223.341 161.955 223.313 162.553 223.313 163.43C223.313 164.307 223.341 164.909 223.397 165.236C223.462 165.553 223.625 165.773 223.887 165.894C224.157 166.015 224.633 166.076 225.315 166.076ZM235.397 162.982C235.397 162.319 235.355 161.848 235.271 161.568C235.187 161.279 235.028 161.087 234.795 160.994C234.561 160.901 234.169 160.854 233.619 160.854C233.031 160.854 232.597 160.947 232.317 161.134C232.046 161.321 231.873 161.577 231.799 161.904C231.733 162.231 231.701 162.702 231.701 163.318V167H230.567V159.86H231.575L231.631 160.868H231.715C231.873 160.504 232.135 160.229 232.499 160.042C232.863 159.846 233.39 159.748 234.081 159.748C234.771 159.748 235.289 159.846 235.635 160.042C235.989 160.238 236.227 160.532 236.349 160.924C236.47 161.307 236.531 161.843 236.531 162.534V167H235.397V162.982ZM243.166 165.866H248.57V167H242.004V165.852C242.004 165.049 242.032 164.466 242.088 164.102C242.154 163.729 242.298 163.425 242.522 163.192C242.746 162.949 243.12 162.716 243.642 162.492C244.65 162.072 245.5 161.722 246.19 161.442C246.536 161.302 246.788 161.171 246.946 161.05C247.114 160.919 247.226 160.765 247.282 160.588C247.348 160.411 247.38 160.168 247.38 159.86C247.38 159.421 247.31 159.099 247.17 158.894C247.04 158.689 246.811 158.553 246.484 158.488C246.167 158.413 245.672 158.376 245 158.376C244.263 158.376 243.33 158.437 242.2 158.558V157.508C242.592 157.433 243.087 157.373 243.684 157.326C244.282 157.279 244.842 157.256 245.364 157.256C246.064 157.256 246.638 157.312 247.086 157.424C247.534 157.527 247.894 157.76 248.164 158.124C248.435 158.479 248.57 159.015 248.57 159.734C248.57 160.285 248.514 160.728 248.402 161.064C248.29 161.4 248.108 161.671 247.856 161.876C247.614 162.072 247.273 162.263 246.834 162.45L243.936 163.64C243.61 163.761 243.4 163.925 243.306 164.13C243.25 164.261 243.213 164.41 243.194 164.578C243.176 164.746 243.166 164.97 243.166 165.25V165.866Z" fill="black"/>
<rect x="380" y="155" width="15" height="15" fill="#C4C4C4"/>
<path d="M389.594 167L387.508 164.284H387.424L385.352 167H384.092L386.794 163.374L384.19 159.86H385.492L387.48 162.45H387.55L389.538 159.86H390.798L388.194 163.36L390.896 167H389.594Z" fill="black"/>
<path d="M195.4 204V194.368H196.604V204H195.4ZM204.054 199.982C204.054 199.319 204.012 198.848 203.928 198.568C203.844 198.279 203.685 198.087 203.452 197.994C203.219 197.901 202.827 197.854 202.276 197.854C201.688 197.854 201.254 197.947 200.974 198.134C200.703 198.321 200.531 198.577 200.456 198.904C200.391 199.231 200.358 199.702 200.358 200.318V204H199.224V196.86H200.232L200.288 197.868H200.372C200.531 197.504 200.792 197.229 201.156 197.042C201.52 196.846 202.047 196.748 202.738 196.748C203.429 196.748 203.947 196.846 204.292 197.042C204.647 197.238 204.885 197.532 205.006 197.924C205.127 198.307 205.188 198.843 205.188 199.534V204H204.054V199.982ZM207.605 196.86H208.613L208.669 197.868H208.753C208.939 197.439 209.233 197.145 209.635 196.986C210.045 196.827 210.535 196.748 211.105 196.748C211.814 196.748 212.355 196.855 212.729 197.07C213.102 197.285 213.363 197.653 213.513 198.176C213.671 198.689 213.751 199.436 213.751 200.416C213.751 201.405 213.671 202.161 213.513 202.684C213.363 203.207 213.102 203.575 212.729 203.79C212.365 204.005 211.833 204.112 211.133 204.112C210.526 204.112 210.031 204.037 209.649 203.888C209.275 203.739 208.995 203.477 208.809 203.104H208.739V206.8H207.605V196.86ZM210.657 203.006C211.263 203.006 211.693 202.95 211.945 202.838C212.206 202.726 212.379 202.497 212.463 202.152C212.556 201.807 212.603 201.233 212.603 200.43C212.603 199.627 212.556 199.053 212.463 198.708C212.379 198.363 212.206 198.134 211.945 198.022C211.693 197.901 211.263 197.84 210.657 197.84C210.181 197.84 209.803 197.905 209.523 198.036C209.243 198.167 209.047 198.367 208.935 198.638C208.851 198.843 208.795 199.081 208.767 199.352C208.748 199.623 208.739 199.982 208.739 200.43C208.739 200.887 208.748 201.247 208.767 201.508C208.785 201.769 208.832 201.989 208.907 202.166C209.028 202.465 209.229 202.679 209.509 202.81C209.789 202.941 210.171 203.006 210.657 203.006ZM220.762 202.992H220.678C220.52 203.356 220.258 203.636 219.894 203.832C219.53 204.019 219.003 204.112 218.312 204.112C217.631 204.112 217.113 204.014 216.758 203.818C216.413 203.622 216.18 203.333 216.058 202.95C215.937 202.558 215.876 202.017 215.876 201.326V196.86H217.01V200.878C217.01 201.55 217.048 202.026 217.122 202.306C217.206 202.586 217.365 202.773 217.598 202.866C217.832 202.959 218.224 203.006 218.774 203.006C219.362 203.006 219.792 202.913 220.062 202.726C220.342 202.539 220.52 202.283 220.594 201.956C220.669 201.62 220.706 201.149 220.706 200.542V196.86H221.84V204H220.818L220.762 202.992ZM224.845 204V197.896H223.403V196.86H224.845V194.788H225.979V196.86H227.687V197.896H225.979V204H224.845ZM235.411 204.112C234.413 204.112 233.699 204.014 233.269 203.818C232.84 203.613 232.565 203.272 232.443 202.796C232.331 202.311 232.275 201.522 232.275 200.43C232.275 199.338 232.331 198.554 232.443 198.078C232.565 197.593 232.84 197.252 233.269 197.056C233.699 196.851 234.413 196.748 235.411 196.748C236.401 196.748 237.11 196.851 237.539 197.056C237.969 197.252 238.239 197.593 238.351 198.078C238.473 198.554 238.533 199.338 238.533 200.43C238.533 201.522 238.473 202.311 238.351 202.796C238.239 203.272 237.969 203.613 237.539 203.818C237.11 204.014 236.401 204.112 235.411 204.112ZM235.411 203.076C236.093 203.076 236.564 203.015 236.825 202.894C237.087 202.773 237.245 202.553 237.301 202.236C237.367 201.909 237.399 201.307 237.399 200.43C237.399 199.553 237.367 198.955 237.301 198.638C237.245 198.311 237.087 198.087 236.825 197.966C236.564 197.845 236.093 197.784 235.411 197.784C234.73 197.784 234.254 197.845 233.983 197.966C233.722 198.087 233.559 198.311 233.493 198.638C233.437 198.955 233.409 199.553 233.409 200.43C233.409 201.307 233.437 201.909 233.493 202.236C233.559 202.553 233.722 202.773 233.983 202.894C234.254 203.015 234.73 203.076 235.411 203.076ZM240.663 196.86H241.671L241.727 197.868H241.811C241.998 197.439 242.292 197.145 242.693 196.986C243.104 196.827 243.594 196.748 244.163 196.748C244.873 196.748 245.414 196.855 245.787 197.07C246.161 197.285 246.422 197.653 246.571 198.176C246.73 198.689 246.809 199.436 246.809 200.416C246.809 201.405 246.73 202.161 246.571 202.684C246.422 203.207 246.161 203.575 245.787 203.79C245.423 204.005 244.891 204.112 244.191 204.112C243.585 204.112 243.09 204.037 242.707 203.888C242.334 203.739 242.054 203.477 241.867 203.104H241.797V206.8H240.663V196.86ZM243.715 203.006C244.322 203.006 244.751 202.95 245.003 202.838C245.265 202.726 245.437 202.497 245.521 202.152C245.615 201.807 245.661 201.233 245.661 200.43C245.661 199.627 245.615 199.053 245.521 198.708C245.437 198.363 245.265 198.134 245.003 198.022C244.751 197.901 244.322 197.84 243.715 197.84C243.239 197.84 242.861 197.905 242.581 198.036C242.301 198.167 242.105 198.367 241.993 198.638C241.909 198.843 241.853 199.081 241.825 199.352C241.807 199.623 241.797 199.982 241.797 200.43C241.797 200.887 241.807 201.247 241.825 201.508C241.844 201.769 241.891 201.989 241.965 202.166C242.087 202.465 242.287 202.679 242.567 202.81C242.847 202.941 243.23 203.006 243.715 203.006ZM249.454 204V197.896H248.012V196.86H249.454V194.788H250.588V196.86H252.296V197.896H250.588V204H249.454ZM253.856 194.9V193.598H255.06V194.9H253.856ZM253.898 204V196.86H255.032V204H253.898ZM260.28 204.112C259.282 204.112 258.568 204.014 258.138 203.818C257.709 203.613 257.434 203.272 257.312 202.796C257.2 202.311 257.144 201.522 257.144 200.43C257.144 199.338 257.2 198.554 257.312 198.078C257.434 197.593 257.709 197.252 258.138 197.056C258.568 196.851 259.282 196.748 260.28 196.748C261.27 196.748 261.979 196.851 262.408 197.056C262.838 197.252 263.108 197.593 263.22 198.078C263.342 198.554 263.402 199.338 263.402 200.43C263.402 201.522 263.342 202.311 263.22 202.796C263.108 203.272 262.838 203.613 262.408 203.818C261.979 204.014 261.27 204.112 260.28 204.112ZM260.28 203.076C260.962 203.076 261.433 203.015 261.694 202.894C261.956 202.773 262.114 202.553 262.17 202.236C262.236 201.909 262.268 201.307 262.268 200.43C262.268 199.553 262.236 198.955 262.17 198.638C262.114 198.311 261.956 198.087 261.694 197.966C261.433 197.845 260.962 197.784 260.28 197.784C259.599 197.784 259.123 197.845 258.852 197.966C258.591 198.087 258.428 198.311 258.362 198.638C258.306 198.955 258.278 199.553 258.278 200.43C258.278 201.307 258.306 201.909 258.362 202.236C258.428 202.553 258.591 202.773 258.852 202.894C259.123 203.015 259.599 203.076 260.28 203.076ZM270.362 199.982C270.362 199.319 270.32 198.848 270.236 198.568C270.152 198.279 269.994 198.087 269.76 197.994C269.527 197.901 269.135 197.854 268.584 197.854C267.996 197.854 267.562 197.947 267.282 198.134C267.012 198.321 266.839 198.577 266.764 198.904C266.699 199.231 266.666 199.702 266.666 200.318V204H265.532V196.86H266.54L266.596 197.868H266.68C266.839 197.504 267.1 197.229 267.464 197.042C267.828 196.846 268.356 196.748 269.046 196.748C269.737 196.748 270.255 196.846 270.6 197.042C270.955 197.238 271.193 197.532 271.314 197.924C271.436 198.307 271.496 198.843 271.496 199.534V204H270.362V199.982ZM279.168 206.1C278.58 205.4 278.151 204.821 277.88 204.364C277.619 203.916 277.423 203.351 277.292 202.67C277.171 201.989 277.11 201.046 277.11 199.842C277.11 198.638 277.171 197.695 277.292 197.014C277.423 196.323 277.624 195.749 277.894 195.292C278.165 194.835 278.59 194.27 279.168 193.598H280.022C279.528 194.242 279.168 194.769 278.944 195.18C278.72 195.581 278.543 196.141 278.412 196.86C278.282 197.569 278.216 198.563 278.216 199.842C278.216 201.13 278.282 202.133 278.412 202.852C278.543 203.571 278.716 204.131 278.93 204.532C279.154 204.933 279.518 205.456 280.022 206.1H279.168ZM283.853 204.112C283.144 204.112 282.602 204.005 282.229 203.79C281.856 203.575 281.59 203.211 281.431 202.698C281.282 202.175 281.207 201.424 281.207 200.444C281.207 199.455 281.282 198.699 281.431 198.176C281.58 197.653 281.837 197.285 282.201 197.07C282.574 196.855 283.111 196.748 283.811 196.748C284.427 196.748 284.922 196.823 285.295 196.972C285.678 197.121 285.958 197.383 286.135 197.756H286.219V193.598H287.353V204H286.331L286.289 203.006H286.205C286.009 203.435 285.71 203.729 285.309 203.888C284.908 204.037 284.422 204.112 283.853 204.112ZM284.287 203.02C284.772 203.02 285.155 202.959 285.435 202.838C285.715 202.707 285.906 202.507 286.009 202.236C286.102 202.021 286.158 201.779 286.177 201.508C286.205 201.228 286.219 200.845 286.219 200.36C286.219 199.959 286.205 199.627 286.177 199.366C286.149 199.105 286.098 198.881 286.023 198.694C285.911 198.405 285.71 198.195 285.421 198.064C285.141 197.924 284.754 197.854 284.259 197.854C283.671 197.854 283.246 197.915 282.985 198.036C282.733 198.148 282.56 198.377 282.467 198.722C282.383 199.067 282.341 199.637 282.341 200.43C282.341 201.242 282.383 201.821 282.467 202.166C282.56 202.511 282.733 202.74 282.985 202.852C283.246 202.964 283.68 203.02 284.287 203.02ZM295.498 200.836H290.612C290.612 201.517 290.659 202.003 290.752 202.292C290.846 202.581 291.046 202.787 291.354 202.908C291.672 203.02 292.199 203.076 292.936 203.076C293.655 203.076 294.416 203.025 295.218 202.922V203.916C294.92 203.972 294.532 204.019 294.056 204.056C293.58 204.093 293.128 204.112 292.698 204.112C291.737 204.112 291.028 204 290.57 203.776C290.122 203.552 289.828 203.193 289.688 202.698C289.548 202.203 289.478 201.452 289.478 200.444C289.478 199.455 289.539 198.713 289.66 198.218C289.791 197.723 290.076 197.355 290.514 197.112C290.962 196.869 291.667 196.748 292.628 196.748C293.524 196.748 294.173 196.869 294.574 197.112C294.976 197.345 295.228 197.705 295.33 198.19C295.442 198.666 295.498 199.413 295.498 200.43V200.836ZM292.6 197.784C291.994 197.784 291.555 197.84 291.284 197.952C291.023 198.055 290.846 198.255 290.752 198.554C290.668 198.843 290.622 199.315 290.612 199.968H294.406V199.856C294.406 199.24 294.35 198.787 294.238 198.498C294.136 198.209 293.963 198.017 293.72 197.924C293.478 197.831 293.104 197.784 292.6 197.784ZM299.986 204.112C299.604 204.112 299.17 204.093 298.684 204.056C298.199 204.019 297.77 203.977 297.396 203.93V202.922C298.32 203.025 299.165 203.076 299.93 203.076C300.406 203.076 300.756 203.043 300.98 202.978C301.204 202.913 301.349 202.81 301.414 202.67C301.489 202.521 301.526 202.301 301.526 202.012C301.526 201.723 301.498 201.517 301.442 201.396C301.396 201.265 301.316 201.177 301.204 201.13C301.092 201.083 300.896 201.046 300.616 201.018L298.754 200.808C298.325 200.761 297.994 200.663 297.76 200.514C297.536 200.365 297.382 200.159 297.298 199.898C297.214 199.637 297.172 199.287 297.172 198.848C297.172 198.241 297.28 197.789 297.494 197.49C297.718 197.182 298.022 196.981 298.404 196.888C298.796 196.795 299.319 196.748 299.972 196.748C300.336 196.748 300.728 196.767 301.148 196.804C301.568 196.841 301.923 196.888 302.212 196.944V197.952C301.484 197.84 300.733 197.784 299.958 197.784C299.529 197.784 299.202 197.807 298.978 197.854C298.754 197.891 298.582 197.985 298.46 198.134C298.339 198.274 298.278 198.498 298.278 198.806C298.278 199.077 298.302 199.273 298.348 199.394C298.395 199.515 298.474 199.599 298.586 199.646C298.698 199.693 298.885 199.73 299.146 199.758L301.078 199.982C301.489 200.029 301.797 200.108 302.002 200.22C302.217 200.323 302.371 200.509 302.464 200.78C302.567 201.051 302.618 201.452 302.618 201.984C302.618 202.572 302.52 203.02 302.324 203.328C302.138 203.636 301.858 203.846 301.484 203.958C301.12 204.061 300.621 204.112 299.986 204.112ZM309.143 203.93C308.891 203.977 308.583 204.019 308.219 204.056C307.864 204.093 307.523 204.112 307.197 204.112C306.319 204.112 305.675 203.986 305.265 203.734C304.854 203.482 304.588 203.109 304.467 202.614C304.355 202.119 304.299 201.391 304.299 200.43C304.299 199.487 304.369 198.759 304.509 198.246C304.649 197.733 304.924 197.355 305.335 197.112C305.745 196.869 306.352 196.748 307.155 196.748C307.472 196.748 307.808 196.767 308.163 196.804C308.527 196.841 308.835 196.883 309.087 196.93V197.938C308.527 197.835 307.976 197.784 307.435 197.784C306.837 197.784 306.399 197.854 306.119 197.994C305.848 198.134 305.666 198.381 305.573 198.736C305.479 199.091 305.433 199.655 305.433 200.43C305.433 201.214 305.479 201.788 305.573 202.152C305.675 202.507 305.862 202.749 306.133 202.88C306.413 203.011 306.861 203.076 307.477 203.076C307.934 203.076 308.489 203.029 309.143 202.936V203.93ZM310.108 206.1C310.612 205.456 310.971 204.933 311.186 204.532C311.41 204.131 311.587 203.571 311.718 202.852C311.849 202.133 311.914 201.13 311.914 199.842C311.914 198.563 311.849 197.569 311.718 196.86C311.587 196.141 311.41 195.581 311.186 195.18C310.962 194.769 310.603 194.242 310.108 193.598H310.962C311.541 194.27 311.965 194.835 312.236 195.292C312.507 195.749 312.703 196.323 312.824 197.014C312.955 197.695 313.02 198.638 313.02 199.842C313.02 201.046 312.955 201.989 312.824 202.67C312.703 203.351 312.507 203.916 312.236 204.364C311.975 204.821 311.55 205.4 310.962 206.1H310.108Z" fill="black"/>
<g clip-path="url(#clip1_35:6)" filter="url(#filter1_d_35:6)">
<rect x="194" y="211" width="180" height="25" fill="#F4F3F3" stroke="black" stroke-width="2"/>
<path d="M200.4 218.368H204.628C205.403 218.368 205.991 218.494 206.392 218.746C206.793 218.998 207.059 219.339 207.19 219.768C207.321 220.197 207.386 220.753 207.386 221.434C207.386 222.087 207.321 222.633 207.19 223.072C207.059 223.501 206.789 223.847 206.378 224.108C205.977 224.369 205.384 224.5 204.6 224.5H201.604V228H200.4V218.368ZM204.194 223.38C204.801 223.38 205.244 223.319 205.524 223.198C205.804 223.067 205.986 222.871 206.07 222.61C206.154 222.349 206.196 221.957 206.196 221.434C206.196 220.911 206.154 220.519 206.07 220.258C205.995 219.997 205.818 219.805 205.538 219.684C205.267 219.553 204.829 219.488 204.222 219.488H201.604V223.38H204.194ZM209.351 228V217.598H210.485V228H209.351ZM214.81 228.112C213.988 228.112 213.391 227.963 213.018 227.664C212.644 227.356 212.458 226.815 212.458 226.04C212.458 225.489 212.523 225.06 212.654 224.752C212.784 224.444 213.004 224.22 213.312 224.08C213.629 223.94 214.072 223.87 214.642 223.87C214.912 223.87 215.804 223.893 217.316 223.94V223.52C217.316 222.96 217.26 222.563 217.148 222.33C217.045 222.097 216.849 221.947 216.56 221.882C216.28 221.817 215.799 221.784 215.118 221.784C214.819 221.784 214.441 221.803 213.984 221.84C213.536 221.868 213.186 221.901 212.934 221.938V220.944C213.671 220.813 214.534 220.748 215.524 220.748C216.364 220.748 216.989 220.837 217.4 221.014C217.82 221.182 218.1 221.462 218.24 221.854C218.38 222.237 218.45 222.797 218.45 223.534V228H217.428L217.372 227.006H217.288C217.092 227.454 216.774 227.753 216.336 227.902C215.906 228.042 215.398 228.112 214.81 228.112ZM215.244 227.09C215.71 227.09 216.088 227.048 216.378 226.964C216.676 226.88 216.891 226.717 217.022 226.474C217.218 226.138 217.316 225.671 217.316 225.074V224.752H214.936C214.544 224.752 214.254 224.78 214.068 224.836C213.89 224.892 213.764 225.004 213.69 225.172C213.615 225.331 213.578 225.583 213.578 225.928C213.578 226.264 213.62 226.511 213.704 226.67C213.788 226.829 213.942 226.941 214.166 227.006C214.399 227.062 214.758 227.09 215.244 227.09ZM225.426 227.93C225.174 227.977 224.866 228.019 224.502 228.056C224.147 228.093 223.807 228.112 223.48 228.112C222.603 228.112 221.959 227.986 221.548 227.734C221.137 227.482 220.871 227.109 220.75 226.614C220.638 226.119 220.582 225.391 220.582 224.43C220.582 223.487 220.652 222.759 220.792 222.246C220.932 221.733 221.207 221.355 221.618 221.112C222.029 220.869 222.635 220.748 223.438 220.748C223.755 220.748 224.091 220.767 224.446 220.804C224.81 220.841 225.118 220.883 225.37 220.93V221.938C224.81 221.835 224.259 221.784 223.718 221.784C223.121 221.784 222.682 221.854 222.402 221.994C222.131 222.134 221.949 222.381 221.856 222.736C221.763 223.091 221.716 223.655 221.716 224.43C221.716 225.214 221.763 225.788 221.856 226.152C221.959 226.507 222.145 226.749 222.416 226.88C222.696 227.011 223.144 227.076 223.76 227.076C224.217 227.076 224.773 227.029 225.426 226.936V227.93ZM233.041 224.836H228.155C228.155 225.517 228.202 226.003 228.295 226.292C228.389 226.581 228.589 226.787 228.897 226.908C229.215 227.02 229.742 227.076 230.479 227.076C231.198 227.076 231.959 227.025 232.761 226.922V227.916C232.463 227.972 232.075 228.019 231.599 228.056C231.123 228.093 230.671 228.112 230.241 228.112C229.28 228.112 228.571 228 228.113 227.776C227.665 227.552 227.371 227.193 227.231 226.698C227.091 226.203 227.021 225.452 227.021 224.444C227.021 223.455 227.082 222.713 227.203 222.218C227.334 221.723 227.619 221.355 228.057 221.112C228.505 220.869 229.21 220.748 230.171 220.748C231.067 220.748 231.716 220.869 232.117 221.112C232.519 221.345 232.771 221.705 232.873 222.19C232.985 222.666 233.041 223.413 233.041 224.43V224.836ZM230.143 221.784C229.537 221.784 229.098 221.84 228.827 221.952C228.566 222.055 228.389 222.255 228.295 222.554C228.211 222.843 228.165 223.315 228.155 223.968H231.949V223.856C231.949 223.24 231.893 222.787 231.781 222.498C231.679 222.209 231.506 222.017 231.263 221.924C231.021 221.831 230.647 221.784 230.143 221.784ZM239.993 223.982C239.993 223.319 239.951 222.848 239.867 222.568C239.783 222.279 239.625 222.087 239.391 221.994C239.158 221.901 238.766 221.854 238.215 221.854C237.627 221.854 237.193 221.947 236.913 222.134C236.643 222.321 236.47 222.577 236.395 222.904C236.33 223.231 236.297 223.702 236.297 224.318V228H235.163V217.598H236.297V221.798H236.367C236.517 221.462 236.769 221.205 237.123 221.028C237.487 220.851 238.005 220.762 238.677 220.762C239.368 220.762 239.886 220.86 240.231 221.056C240.586 221.243 240.824 221.532 240.945 221.924C241.067 222.307 241.127 222.843 241.127 223.534V228H239.993V223.982ZM246.372 228.112C245.374 228.112 244.66 228.014 244.23 227.818C243.801 227.613 243.526 227.272 243.404 226.796C243.292 226.311 243.236 225.522 243.236 224.43C243.236 223.338 243.292 222.554 243.404 222.078C243.526 221.593 243.801 221.252 244.23 221.056C244.66 220.851 245.374 220.748 246.372 220.748C247.362 220.748 248.071 220.851 248.5 221.056C248.93 221.252 249.2 221.593 249.312 222.078C249.434 222.554 249.494 223.338 249.494 224.43C249.494 225.522 249.434 226.311 249.312 226.796C249.2 227.272 248.93 227.613 248.5 227.818C248.071 228.014 247.362 228.112 246.372 228.112ZM246.372 227.076C247.054 227.076 247.525 227.015 247.786 226.894C248.048 226.773 248.206 226.553 248.262 226.236C248.328 225.909 248.36 225.307 248.36 224.43C248.36 223.553 248.328 222.955 248.262 222.638C248.206 222.311 248.048 222.087 247.786 221.966C247.525 221.845 247.054 221.784 246.372 221.784C245.691 221.784 245.215 221.845 244.944 221.966C244.683 222.087 244.52 222.311 244.454 222.638C244.398 222.955 244.37 223.553 244.37 224.43C244.37 225.307 244.398 225.909 244.454 226.236C244.52 226.553 244.683 226.773 244.944 226.894C245.215 227.015 245.691 227.076 246.372 227.076ZM251.624 228V217.598H252.758V228H251.624ZM257.517 228.112C256.808 228.112 256.266 228.005 255.893 227.79C255.52 227.575 255.254 227.211 255.095 226.698C254.946 226.175 254.871 225.424 254.871 224.444C254.871 223.455 254.946 222.699 255.095 222.176C255.244 221.653 255.501 221.285 255.865 221.07C256.238 220.855 256.775 220.748 257.475 220.748C258.091 220.748 258.586 220.823 258.959 220.972C259.342 221.121 259.622 221.383 259.799 221.756H259.883V217.598H261.017V228H259.995L259.953 227.006H259.869C259.673 227.435 259.374 227.729 258.973 227.888C258.572 228.037 258.086 228.112 257.517 228.112ZM257.951 227.02C258.436 227.02 258.819 226.959 259.099 226.838C259.379 226.707 259.57 226.507 259.673 226.236C259.766 226.021 259.822 225.779 259.841 225.508C259.869 225.228 259.883 224.845 259.883 224.36C259.883 223.959 259.869 223.627 259.841 223.366C259.813 223.105 259.762 222.881 259.687 222.694C259.575 222.405 259.374 222.195 259.085 222.064C258.805 221.924 258.418 221.854 257.923 221.854C257.335 221.854 256.91 221.915 256.649 222.036C256.397 222.148 256.224 222.377 256.131 222.722C256.047 223.067 256.005 223.637 256.005 224.43C256.005 225.242 256.047 225.821 256.131 226.166C256.224 226.511 256.397 226.74 256.649 226.852C256.91 226.964 257.344 227.02 257.951 227.02ZM269.162 224.836H264.276C264.276 225.517 264.323 226.003 264.416 226.292C264.51 226.581 264.71 226.787 265.018 226.908C265.336 227.02 265.863 227.076 266.6 227.076C267.319 227.076 268.08 227.025 268.882 226.922V227.916C268.584 227.972 268.196 228.019 267.72 228.056C267.244 228.093 266.792 228.112 266.362 228.112C265.401 228.112 264.692 228 264.234 227.776C263.786 227.552 263.492 227.193 263.352 226.698C263.212 226.203 263.142 225.452 263.142 224.444C263.142 223.455 263.203 222.713 263.324 222.218C263.455 221.723 263.74 221.355 264.178 221.112C264.626 220.869 265.331 220.748 266.292 220.748C267.188 220.748 267.837 220.869 268.238 221.112C268.64 221.345 268.892 221.705 268.994 222.19C269.106 222.666 269.162 223.413 269.162 224.43V224.836ZM266.264 221.784C265.658 221.784 265.219 221.84 264.948 221.952C264.687 222.055 264.51 222.255 264.416 222.554C264.332 222.843 264.286 223.315 264.276 223.968H268.07V223.856C268.07 223.24 268.014 222.787 267.902 222.498C267.8 222.209 267.627 222.017 267.384 221.924C267.142 221.831 266.768 221.784 266.264 221.784ZM271.284 220.86H272.292L272.348 222.218H272.432C272.6 221.658 272.88 221.275 273.272 221.07C273.664 220.855 274.178 220.748 274.812 220.748V221.966C274.168 221.966 273.674 222.064 273.328 222.26C272.983 222.456 272.745 222.759 272.614 223.17C272.484 223.571 272.418 224.117 272.418 224.808V228H271.284V220.86Z" fill="#A4A4A4"/>
</g>
<defs>
<filter id="filter0_d_35:6" x="258" y="272" width="85" height="28" filterUnits="userSpaceOnUse" color-interpolation-filters="sRGB">
<feFlood flood-opacity="0" result="BackgroundImageFix"/>
<feColorMatrix in="SourceAlpha" type="matrix" values="0 0 0 0 0 0 0 0 0 0 0 0 0 0 0 0 0 0 127 0" result="hardAlpha"/>
<feOffset dy="4"/>
<feGaussianBlur stdDeviation="2"/>
<feComposite in2="hardAlpha" operator="out"/>
<feColorMatrix type="matrix" values="0 0 0 0 0 0 0 0 0 0 0 0 0 0 0 0 0 0 0.25 0"/>
<feBlend mode="normal" in2="BackgroundImageFix" result="effect1_dropShadow_35:6"/>
<feBlend mode="normal" in="SourceGraphic" in2="effect1_dropShadow_35:6" result="shape"/>
</filter>
<filter id="filter1_d_35:6" x="190" y="211" width="188" height="33" filterUnits="userSpaceOnUse" color-interpolation-filters="sRGB">
<feFlood flood-opacity="0" result="BackgroundImageFix"/>
<feColorMatrix in="SourceAlpha" type="matrix" values="0 0 0 0 0 0 0 0 0 0 0 0 0 0 0 0 0 0 127 0" result="hardAlpha"/>
<feOffset dy="4"/>
<feGaussianBlur stdDeviation="2"/>
<feComposite in2="hardAlpha" operator="out"/>
<feColorMatrix type="matrix" values="0 0 0 0 0 0 0 0 0 0 0 0 0 0 0 0 0 0 0.25 0"/>
<feBlend mode="normal" in2="BackgroundImageFix" result="effect1_dropShadow_35:6"/>
<feBlend mode="normal" in="SourceGraphic" in2="effect1_dropShadow_35:6" result="shape"/>
</filter>
<clipPath id="clip0_35:6">
<rect width="25" height="26" fill="white" transform="translate(460 3)"/>
</clipPath>
<clipPath id="clip1_35:6">
<rect width="180" height="25" fill="white" transform="translate(194 211)"/>
</clipPath>
</defs>
</svg>
